{"glyphs":{"0":{"ha":833,"x_min":90,"x_max":743,"o":"m 421 1000 q 590 942 517 1000 q 703 774 663 883 q 743 508 743 664 l 743 444 q 700 190 743 296 q 582 28 657 83 q 413 -28 507 -28 q 283 3 342 -28 q 181 94 224 35 q 114 240 138 154 q 90 435 90 325 l 90 499 q 133 770 90 658 q 252 941 176 882 q 421 1000 328 1000 m 438 874 q 316 822 365 874 q 242 682 267 771 q 217 481 217 593 l 217 419 q 225 300 217 361 q 258 188 233 239 q 328 104 282 136 q 359 100 342 101 q 396 99 376 99 q 517 147 468 99 q 592 276 567 194 q 617 463 617 358 l 617 524 q 607 656 617 590 q 572 778 597 722 q 500 868 547 833 q 472 873 488 872 q 438 874 456 874 m 622 792 l 632 642 l 571 642 l 608 683 q 583 612 597 643 q 549 553 568 581 q 500 492 529 525 q 415 400 461 447 q 314 308 368 353 q 199 219 260 263 l 189 328 l 261 328 l 218 289 q 242 338 229 317 q 274 380 254 358 q 326 432 294 401 q 453 568 378 481 q 622 792 529 656 z "},"1":{"ha":833,"x_min":108,"x_max":774,"o":"m 378 978 q 388 980 382 979 q 399 982 393 981 q 413 985 406 983 q 426 986 419 986 q 442 986 433 986 q 490 981 471 986 q 519 966 510 976 q 529 938 529 956 q 529 859 529 911 q 529 738 529 807 q 529 591 529 668 q 529 436 529 514 q 529 290 529 358 q 529 169 529 221 q 529 90 529 117 l 435 90 l 435 135 q 417 160 424 144 q 406 195 410 175 q 401 239 401 215 q 401 291 401 254 q 401 378 401 328 q 401 485 401 428 q 401 602 401 543 q 401 714 401 661 q 401 808 401 767 q 401 872 401 850 l 435 828 l 364 828 l 410 871 q 379 802 397 835 q 338 741 361 769 q 286 685 315 713 q 241 647 261 661 q 203 627 221 633 q 171 621 186 621 q 145 631 156 621 q 128 663 135 640 q 122 721 122 685 l 122 739 q 206 788 167 760 q 282 853 244 815 q 320 896 303 874 q 352 939 338 918 q 378 978 367 960 m 110 126 q 131 126 114 126 q 176 126 149 126 q 236 126 203 126 q 307 126 269 126 q 381 126 344 126 q 449 126 417 126 q 507 126 482 126 q 703 99 632 126 q 774 32 774 72 q 774 22 774 26 q 773 15 774 18 q 772 8 772 11 q 771 0 772 4 q 738 0 767 0 q 661 0 708 0 q 558 0 614 0 q 444 0 503 0 q 335 0 386 0 q 247 0 283 0 q 196 0 210 0 q 156 3 171 0 q 131 17 140 7 q 113 49 118 29 q 108 92 108 68 q 108 100 108 96 q 108 108 108 104 q 108 115 108 111 q 109 121 108 118 q 110 126 110 124 z "},"2":{"ha":833,"x_min":90,"x_max":744,"o":"m 422 1000 q 544 981 489 1000 q 640 926 600 963 q 701 840 679 890 q 722 728 722 790 l 722 719 q 705 610 722 663 q 653 513 688 558 q 569 425 619 467 q 451 346 518 383 q 329 269 376 303 q 253 206 282 236 q 213 145 225 176 q 197 74 200 114 l 186 129 l 231 94 l 167 92 q 228 113 197 106 q 294 124 258 121 q 378 126 331 126 l 675 126 q 730 109 715 126 q 744 50 744 92 q 744 40 744 44 q 744 29 744 35 q 742 19 743 24 q 741 9 742 14 q 739 0 740 4 q 703 0 735 0 q 620 0 671 0 q 509 0 569 0 q 388 0 449 0 q 276 0 328 0 q 191 0 225 0 q 150 0 157 0 q 121 16 135 0 q 99 55 107 32 q 90 96 90 78 l 90 103 q 126 224 90 167 q 229 335 163 281 q 389 442 296 389 q 486 510 447 476 q 549 578 525 543 q 583 650 572 613 q 594 728 594 688 l 594 733 q 586 788 594 761 q 564 836 578 815 q 506 864 538 854 q 425 874 474 874 q 278 820 329 874 q 221 665 226 767 l 213 665 q 178 674 193 668 q 151 687 163 679 q 133 705 140 694 q 121 728 125 715 q 117 754 117 740 q 135 839 117 799 q 188 914 153 879 q 285 976 226 951 q 422 1000 343 1000 z "},"3":{"ha":833,"x_min":93,"x_max":743,"o":"m 417 999 q 583 967 513 999 q 692 881 654 936 q 729 756 731 826 l 728 736 q 697 624 728 679 q 601 524 667 568 q 431 451 536 479 l 472 494 l 472 422 l 429 464 q 610 411 542 444 q 711 332 679 378 q 743 229 743 286 l 743 215 q 703 90 743 146 q 590 3 664 35 q 417 -28 517 -28 q 296 -17 351 -28 q 198 14 240 -6 q 129 58 156 33 q 100 104 107 81 q 93 163 93 128 q 93 177 93 169 q 94 192 93 185 q 95 205 94 199 q 97 218 96 211 q 100 231 99 225 l 108 231 q 188 156 146 185 q 284 113 231 126 q 404 99 338 99 q 514 113 468 99 q 590 154 560 128 q 633 215 619 181 l 633 221 q 598 294 626 263 q 522 347 569 325 q 415 379 475 368 q 285 392 354 390 q 249 408 260 393 q 238 460 238 424 q 238 475 238 468 q 238 488 238 482 q 240 498 239 493 q 242 510 240 503 q 382 523 318 510 q 495 565 446 536 q 576 634 544 593 q 617 728 607 675 l 617 735 q 580 807 606 776 q 510 855 554 838 q 404 872 467 872 q 246 840 310 872 q 131 742 182 808 l 122 742 q 118 754 119 747 q 115 767 117 761 q 113 781 114 774 q 113 794 113 788 q 113 810 113 801 q 122 868 113 846 q 154 915 131 890 q 257 974 188 949 q 417 999 326 999 z "},"4":{"ha":833,"x_min":65,"x_max":788,"o":"m 557 992 q 588 990 574 992 q 615 985 603 988 q 639 977 628 982 q 659 967 650 972 q 675 954 668 963 l 675 946 q 557 853 617 908 q 440 731 497 797 q 331 589 382 664 q 236 437 279 514 q 164 283 193 360 l 179 351 l 179 293 l 158 306 q 239 324 201 318 q 316 333 276 331 q 403 335 356 335 l 731 335 q 765 324 753 335 q 783 296 778 314 q 788 254 788 278 q 788 243 788 249 q 787 233 788 238 q 786 225 786 229 q 785 217 786 221 q 783 208 783 213 l 133 208 q 97 222 111 208 q 74 258 82 235 q 65 311 65 281 l 65 324 q 75 383 65 349 q 103 457 85 417 q 147 542 121 497 q 202 634 172 588 q 267 728 232 681 q 340 820 301 775 q 415 906 378 865 q 476 962 453 944 q 517 985 499 979 q 557 992 536 992 m 572 546 q 574 546 574 546 q 577 546 575 546 q 580 546 579 546 q 582 546 581 546 q 629 538 610 546 q 659 517 649 531 q 669 488 669 504 l 669 136 q 670 93 669 113 q 672 56 671 74 q 676 24 674 39 q 682 -6 679 10 q 674 -8 678 -7 q 665 -10 669 -8 q 655 -12 660 -11 q 645 -12 650 -12 q 635 -12 640 -12 q 560 10 582 -12 q 538 76 538 32 q 538 112 538 90 q 538 156 538 133 q 538 202 538 179 q 538 245 538 225 q 538 276 538 265 q 540 335 538 297 q 548 415 543 372 q 559 493 553 457 q 572 546 565 529 z "},"5":{"ha":833,"x_min":92,"x_max":743,"o":"m 150 972 q 178 972 153 972 q 244 972 204 972 q 331 972 283 972 q 426 972 378 972 q 518 972 475 972 q 592 972 561 972 q 636 972 624 972 q 697 953 679 972 q 714 901 714 933 q 713 889 714 894 q 712 877 713 883 q 711 865 711 871 q 710 854 711 860 q 707 846 708 849 q 669 846 704 846 q 580 846 633 846 q 467 846 526 846 q 351 846 407 846 q 257 846 296 846 q 208 846 218 846 q 170 851 185 846 q 149 872 156 857 q 143 915 143 888 q 145 949 143 933 q 150 972 147 964 m 224 896 l 303 896 l 299 838 q 312 801 310 821 q 310 754 314 782 q 290 652 300 706 q 270 549 279 599 q 254 460 261 499 l 224 497 l 306 497 l 232 483 q 329 511 286 504 q 421 518 372 518 q 549 501 490 518 q 652 451 608 483 q 719 370 696 418 q 743 261 743 322 l 743 247 q 722 135 743 185 q 658 48 700 85 q 556 -8 617 11 q 417 -28 494 -28 q 285 -15 342 -28 q 192 16 229 -3 q 136 53 154 35 q 101 107 111 79 q 92 168 92 135 q 92 181 92 175 q 92 192 92 186 q 94 202 93 197 q 95 212 94 207 q 97 221 96 217 l 106 221 q 233 130 163 161 q 404 99 303 99 q 581 148 518 99 q 644 268 644 197 l 644 276 q 592 351 629 321 q 499 398 556 382 q 365 414 443 414 q 306 414 332 414 q 257 414 279 414 l 207 414 q 146 422 163 414 q 133 453 129 431 q 153 568 144 515 q 172 667 163 621 q 189 751 181 713 q 206 826 197 790 q 224 896 215 863 z "},"6":{"ha":833,"x_min":90,"x_max":746,"o":"m 486 1000 q 611 984 567 1000 q 672 953 656 968 q 699 920 690 939 q 707 868 707 901 q 706 853 707 860 q 705 842 706 847 q 703 831 704 836 q 701 821 701 825 q 697 813 700 817 l 689 813 q 600 858 649 843 q 486 874 551 874 q 390 861 436 874 q 310 828 344 849 q 245 681 271 775 q 219 444 219 588 l 219 433 q 228 302 219 360 q 251 202 236 244 q 288 133 267 160 q 350 105 318 113 q 422 97 382 97 q 567 147 515 97 q 619 275 619 196 l 619 283 q 615 331 619 310 q 603 372 611 351 q 534 415 576 400 q 438 429 492 429 q 302 410 368 429 q 179 351 236 390 l 175 451 l 263 451 l 203 421 q 317 513 250 483 q 461 542 385 542 q 609 508 544 542 q 710 415 674 475 q 746 274 746 356 l 746 261 q 706 110 746 176 q 595 8 667 44 q 431 -28 524 -28 q 245 22 321 -28 q 130 176 169 72 q 90 438 90 279 l 90 449 q 108 652 90 563 q 160 807 126 742 q 243 915 194 872 q 353 979 292 958 q 486 1000 414 1000 z "},"7":{"ha":833,"x_min":96,"x_max":740,"o":"m 132 1000 q 169 998 151 1000 q 201 992 186 996 q 227 981 215 988 q 244 967 239 975 q 250 950 250 960 q 247 919 250 943 q 240 863 244 896 q 232 792 236 831 q 225 718 228 754 q 222 651 222 682 q 215 649 219 650 q 206 648 210 649 q 196 647 201 647 q 185 646 190 646 q 174 646 179 646 q 117 657 139 646 q 96 706 96 668 q 98 762 96 732 q 103 823 100 792 q 110 885 106 854 q 120 946 115 917 q 132 1000 125 975 m 454 -7 q 447 -9 451 -8 q 438 -10 443 -10 q 427 -12 433 -11 q 415 -14 421 -14 q 403 -14 408 -14 q 342 3 364 -14 q 319 57 319 19 q 330 163 319 108 q 363 281 340 218 q 420 419 385 344 q 507 582 456 493 q 558 678 538 635 q 592 759 578 721 q 615 833 606 797 q 628 908 624 869 l 633 828 l 601 892 l 660 876 q 587 860 622 865 q 510 852 551 854 q 417 850 469 850 l 201 850 q 180 860 190 850 q 162 885 169 869 q 149 918 154 901 q 141 950 143 935 q 139 972 139 965 l 675 972 q 712 959 697 972 q 733 923 726 946 q 740 871 740 900 l 740 860 q 735 810 740 838 q 717 749 729 782 q 690 677 706 715 q 654 597 675 639 q 610 508 633 554 q 532 347 563 418 q 484 217 501 276 q 460 105 467 158 q 454 -7 454 51 z "},"8":{"ha":833,"x_min":89,"x_max":751,"o":"m 428 1001 q 588 966 517 1001 q 699 868 658 931 q 740 726 740 806 l 740 719 q 713 605 740 658 q 631 515 686 551 q 492 461 575 478 l 529 499 l 529 433 l 392 475 q 564 578 510 518 q 618 721 618 638 l 618 726 q 610 788 618 760 q 588 836 603 815 q 519 868 560 857 q 426 879 478 879 q 326 859 374 879 q 248 800 278 839 q 218 704 218 761 q 235 627 218 663 q 294 561 253 592 q 403 507 335 531 l 526 461 q 633 410 590 439 q 702 351 676 382 q 740 290 728 321 q 751 229 751 260 l 751 222 q 710 93 751 150 q 591 4 668 36 q 410 -28 514 -28 q 240 2 313 -28 q 128 85 168 32 q 89 208 89 139 l 89 217 q 117 318 89 271 q 202 397 144 365 q 351 436 260 429 l 311 403 l 311 460 l 443 421 q 306 358 358 392 q 231 288 254 325 q 207 208 207 251 q 240 145 211 171 q 315 106 269 119 q 414 93 360 93 q 560 124 501 93 q 642 214 618 156 q 622 276 638 249 q 574 328 606 304 q 489 371 542 351 l 365 417 q 203 503 261 456 q 123 603 146 550 q 100 708 100 656 l 100 714 q 141 860 100 796 q 256 963 182 925 q 428 1001 329 1001 z "},"9":{"ha":833,"x_min":88,"x_max":744,"o":"m 404 1000 q 548 972 485 1000 q 655 887 611 944 q 722 740 699 829 q 744 526 744 650 l 744 515 q 717 263 744 367 q 637 95 689 160 q 513 1 585 31 q 349 -28 440 -28 q 259 -21 297 -28 q 197 -3 221 -14 q 161 19 172 8 q 137 56 146 35 q 128 111 128 76 q 128 124 128 118 q 128 134 128 129 q 130 144 129 139 q 131 153 131 149 q 133 163 132 158 l 142 163 q 233 114 185 129 q 349 99 282 99 q 447 110 401 99 q 531 143 493 121 q 593 303 571 208 q 615 528 615 397 l 615 539 q 597 729 615 651 q 544 847 579 807 q 485 873 515 865 q 418 881 456 881 q 268 817 321 881 q 215 650 215 754 l 215 642 q 221 569 215 600 q 242 510 226 538 q 309 471 269 485 q 394 457 349 457 q 531 477 465 457 q 656 536 597 497 l 656 431 l 571 431 l 631 465 q 515 369 588 399 q 368 340 443 340 q 222 374 285 340 q 123 473 158 407 q 88 636 88 539 l 88 642 q 128 833 88 753 q 239 956 168 913 q 404 1000 310 1000 z "}," ":{"ha":833,"x_min":0,"x_max":0,"o":""}," ":{"ha":833,"x_min":0,"x_max":0,"o":"z "}," ":{"ha":833,"x_min":0,"x_max":0,"o":""}," ":{"ha":833,"x_min":0,"x_max":0,"o":""}," ":{"ha":833,"x_min":0,"x_max":0,"o":""}," ":{"ha":833,"x_min":0,"x_max":0,"o":""},"A":{"ha":833,"x_min":56,"x_max":747,"o":"m 56 386 l 472 386 q 531 380 504 386 q 578 358 557 374 l 615 376 l 615 324 l 615 265 l 111 265 q 77 277 89 265 q 60 311 65 289 q 56 364 56 333 l 56 386 m 222 0 q 196 -6 210 -3 q 165 -8 182 -8 q 126 -3 144 -8 q 98 15 108 3 q 88 49 88 28 q 92 212 86 132 q 108 365 97 292 q 135 509 119 439 q 172 642 151 579 q 219 765 193 706 q 274 877 244 824 q 338 978 304 931 q 370 984 354 982 q 404 986 386 986 q 480 973 450 986 q 531 929 510 960 q 576 846 553 899 q 636 703 607 785 q 689 525 665 621 q 727 325 713 429 q 743 111 742 221 q 746 56 744 83 q 747 0 747 28 q 724 -6 736 -4 q 697 -8 711 -8 q 651 -1 671 -8 q 622 23 632 6 q 611 69 613 40 q 601 244 610 156 q 576 421 592 333 q 537 593 560 508 q 483 756 514 678 q 413 904 453 835 l 451 876 l 390 876 l 431 904 q 356 761 389 835 q 299 606 324 688 q 256 431 274 524 q 231 231 239 338 q 222 0 224 124 z "},"À":{"ha":833,"x_min":56,"x_max":747,"o":"m 56 386 l 472 386 q 531 380 504 386 q 578 358 557 374 l 615 376 l 615 324 l 615 265 l 111 265 q 77 277 89 265 q 60 311 65 289 q 56 364 56 333 l 56 386 m 222 0 q 196 -6 210 -3 q 165 -8 182 -8 q 126 -3 144 -8 q 98 15 108 3 q 88 49 88 28 q 92 212 86 132 q 108 365 97 292 q 135 509 119 439 q 172 642 151 579 q 219 765 193 706 q 274 877 244 824 q 338 978 304 931 q 370 984 354 982 q 404 986 386 986 q 480 973 450 986 q 531 929 510 960 q 576 846 553 899 q 636 703 607 785 q 689 525 665 621 q 727 325 713 429 q 743 111 742 221 q 746 56 744 83 q 747 0 747 28 q 724 -6 736 -4 q 697 -8 711 -8 q 651 -1 671 -8 q 622 23 632 6 q 611 69 613 40 q 601 244 610 156 q 576 421 592 333 q 537 593 560 508 q 483 756 514 678 q 413 904 453 835 l 451 876 l 390 876 l 431 904 q 356 761 389 835 q 299 606 324 688 q 256 431 274 524 q 231 231 239 338 q 222 0 224 124 m 319 1297 q 355 1224 332 1258 q 412 1158 378 1189 q 489 1096 446 1128 q 464 1086 476 1090 q 440 1080 451 1082 q 414 1078 428 1078 q 376 1081 393 1078 q 340 1096 358 1085 q 296 1124 317 1108 q 258 1157 275 1139 q 227 1195 240 1175 q 206 1235 214 1215 q 201 1264 199 1251 q 219 1283 204 1276 q 249 1292 233 1289 q 281 1297 264 1296 q 319 1297 299 1299 z "},"Á":{"ha":833,"x_min":56,"x_max":747,"o":"m 56 386 l 472 386 q 531 380 504 386 q 578 358 557 374 l 615 376 l 615 324 l 615 265 l 111 265 q 77 277 89 265 q 60 311 65 289 q 56 364 56 333 l 56 386 m 222 0 q 196 -6 210 -3 q 165 -8 182 -8 q 126 -3 144 -8 q 98 15 108 3 q 88 49 88 28 q 92 212 86 132 q 108 365 97 292 q 135 509 119 439 q 172 642 151 579 q 219 765 193 706 q 274 877 244 824 q 338 978 304 931 q 370 984 354 982 q 404 986 386 986 q 480 973 450 986 q 531 929 510 960 q 576 846 553 899 q 636 703 607 785 q 689 525 665 621 q 727 325 713 429 q 743 111 742 221 q 746 56 744 83 q 747 0 747 28 q 724 -6 736 -4 q 697 -8 711 -8 q 651 -1 671 -8 q 622 23 632 6 q 611 69 613 40 q 601 244 610 156 q 576 421 592 333 q 537 593 560 508 q 483 756 514 678 q 413 904 453 835 l 451 876 l 390 876 l 431 904 q 356 761 389 835 q 299 606 324 688 q 256 431 274 524 q 231 231 239 338 q 222 0 224 124 m 514 1289 q 552 1288 535 1289 q 583 1283 569 1286 q 611 1276 597 1281 q 631 1257 628 1269 q 629 1229 635 1244 q 608 1188 621 1207 q 578 1150 596 1168 q 541 1117 561 1132 q 497 1089 521 1101 q 460 1074 479 1078 q 419 1069 442 1069 q 394 1072 407 1069 q 369 1078 382 1074 q 344 1089 357 1082 q 422 1151 388 1119 q 479 1216 456 1182 q 514 1289 503 1250 z "},"Â":{"ha":833,"x_min":56,"x_max":747,"o":"m 56 386 l 472 386 q 531 380 504 386 q 578 358 557 374 l 615 376 l 615 324 l 615 265 l 111 265 q 77 277 89 265 q 60 311 65 289 q 56 364 56 333 l 56 386 m 222 0 q 196 -6 210 -3 q 165 -8 182 -8 q 126 -3 144 -8 q 98 15 108 3 q 88 49 88 28 q 92 212 86 132 q 108 365 97 292 q 135 509 119 439 q 172 642 151 579 q 219 765 193 706 q 274 877 244 824 q 338 978 304 931 q 370 984 354 982 q 404 986 386 986 q 480 973 450 986 q 531 929 510 960 q 576 846 553 899 q 636 703 607 785 q 689 525 665 621 q 727 325 713 429 q 743 111 742 221 q 746 56 744 83 q 747 0 747 28 q 724 -6 736 -4 q 697 -8 711 -8 q 651 -1 671 -8 q 622 23 632 6 q 611 69 613 40 q 601 244 610 156 q 576 421 592 333 q 537 593 560 508 q 483 756 514 678 q 413 904 453 835 l 451 876 l 390 876 l 431 904 q 356 761 389 835 q 299 606 324 688 q 256 431 274 524 q 231 231 239 338 q 222 0 224 124 m 375 1301 q 390 1301 382 1301 q 405 1301 397 1301 q 419 1301 413 1301 q 467 1296 444 1301 q 529 1265 490 1290 q 576 1233 551 1251 q 625 1192 601 1214 q 670 1143 649 1169 q 711 1086 692 1117 q 676 1075 693 1079 q 636 1071 660 1071 q 599 1078 613 1071 q 569 1104 586 1086 q 496 1169 536 1140 q 383 1231 456 1199 l 463 1214 q 417 1214 440 1214 q 371 1214 394 1214 l 449 1232 q 317 1150 368 1192 q 238 1069 265 1108 l 229 1069 q 178 1073 197 1069 q 150 1084 158 1076 q 142 1100 142 1092 q 150 1125 142 1108 q 179 1165 158 1142 q 220 1206 199 1186 q 267 1243 242 1225 q 319 1276 292 1261 q 375 1301 346 1290 z "},"Ã":{"ha":833,"x_min":56,"x_max":747,"o":"m 56 386 l 472 386 q 531 380 504 386 q 578 358 557 374 l 615 376 l 615 324 l 615 265 l 111 265 q 77 277 89 265 q 60 311 65 289 q 56 364 56 333 l 56 386 m 222 0 q 196 -6 210 -3 q 165 -8 182 -8 q 126 -3 144 -8 q 98 15 108 3 q 88 49 88 28 q 92 212 86 132 q 108 365 97 292 q 135 509 119 439 q 172 642 151 579 q 219 765 193 706 q 274 877 244 824 q 338 978 304 931 q 370 984 354 982 q 404 986 386 986 q 480 973 450 986 q 531 929 510 960 q 576 846 553 899 q 636 703 607 785 q 689 525 665 621 q 727 325 713 429 q 743 111 742 221 q 746 56 744 83 q 747 0 747 28 q 724 -6 736 -4 q 697 -8 711 -8 q 651 -1 671 -8 q 622 23 632 6 q 611 69 613 40 q 601 244 610 156 q 576 421 592 333 q 537 593 560 508 q 483 756 514 678 q 413 904 453 835 l 451 876 l 390 876 l 431 904 q 356 761 389 835 q 299 606 324 688 q 256 431 274 524 q 231 231 239 338 q 222 0 224 124 m 554 1194 q 619 1210 590 1194 q 675 1258 647 1226 l 683 1258 q 690 1235 688 1250 q 692 1208 692 1221 q 688 1172 692 1186 q 679 1147 685 1158 q 637 1104 665 1119 q 565 1089 608 1089 q 492 1104 528 1089 q 421 1140 456 1119 q 350 1175 386 1160 q 276 1190 314 1190 q 213 1175 240 1190 q 156 1126 185 1160 l 147 1126 q 141 1151 143 1138 q 139 1176 139 1164 q 142 1212 139 1199 q 151 1236 146 1225 q 194 1280 165 1264 q 265 1296 222 1296 q 339 1281 303 1296 q 410 1245 375 1265 q 481 1210 446 1225 q 554 1194 517 1194 z "},"Ä":{"ha":833,"x_min":56,"x_max":747,"o":"m 56 386 l 472 386 q 531 380 504 386 q 578 358 557 374 l 615 376 l 615 324 l 615 265 l 111 265 q 77 277 89 265 q 60 311 65 289 q 56 364 56 333 l 56 386 m 222 0 q 196 -6 210 -3 q 165 -8 182 -8 q 126 -3 144 -8 q 98 15 108 3 q 88 49 88 28 q 92 212 86 132 q 108 365 97 292 q 135 509 119 439 q 172 642 151 579 q 219 765 193 706 q 274 877 244 824 q 338 978 304 931 q 370 984 354 982 q 404 986 386 986 q 480 973 450 986 q 531 929 510 960 q 576 846 553 899 q 636 703 607 785 q 689 525 665 621 q 727 325 713 429 q 743 111 742 221 q 746 56 744 83 q 747 0 747 28 q 724 -6 736 -4 q 697 -8 711 -8 q 651 -1 671 -8 q 622 23 632 6 q 611 69 613 40 q 601 244 610 156 q 576 421 592 333 q 537 593 560 508 q 483 756 514 678 q 413 904 453 835 l 451 876 l 390 876 l 431 904 q 356 761 389 835 q 299 606 324 688 q 256 431 274 524 q 231 231 239 338 q 222 0 224 124 m 194 1260 q 225 1263 208 1263 q 256 1264 242 1264 q 303 1259 282 1264 q 337 1242 324 1254 q 350 1207 350 1229 l 350 1108 q 319 1106 336 1107 q 288 1104 303 1104 q 242 1110 264 1104 q 208 1128 221 1115 q 194 1163 194 1140 l 194 1260 m 483 1260 q 514 1263 497 1263 q 544 1264 531 1264 q 592 1259 571 1264 q 626 1242 613 1254 q 639 1207 639 1229 l 639 1108 q 608 1106 625 1107 q 576 1104 592 1104 q 531 1110 553 1104 q 497 1128 510 1115 q 483 1163 483 1140 l 483 1260 z "},"Å":{"ha":833,"x_min":56,"x_max":747,"o":"m 56 386 l 472 386 q 531 380 504 386 q 578 358 557 374 l 615 376 l 615 324 l 615 265 l 111 265 q 77 277 89 265 q 60 311 65 289 q 56 364 56 333 l 56 386 m 222 0 q 196 -6 210 -3 q 165 -8 182 -8 q 126 -3 144 -8 q 98 15 108 3 q 88 49 88 28 q 92 212 86 132 q 108 365 97 292 q 135 509 119 439 q 172 642 151 579 q 219 765 193 706 q 274 877 244 824 q 338 978 304 931 q 370 984 354 982 q 404 986 386 986 q 480 973 450 986 q 531 929 510 960 q 576 846 553 899 q 636 703 607 785 q 689 525 665 621 q 727 325 713 429 q 743 111 742 221 q 746 56 744 83 q 747 0 747 28 q 724 -6 736 -4 q 697 -8 711 -8 q 651 -1 671 -8 q 622 23 632 6 q 611 69 613 40 q 601 244 610 156 q 576 421 592 333 q 537 593 560 508 q 483 756 514 678 q 413 904 453 835 l 451 876 l 390 876 l 431 904 q 356 761 389 835 q 299 606 324 688 q 256 431 274 524 q 231 231 239 338 q 222 0 224 124 m 419 1243 q 527 1222 481 1243 q 601 1164 574 1201 q 628 1075 628 1126 l 628 1067 q 600 981 628 1018 q 524 922 572 943 q 411 900 475 900 q 303 920 350 900 q 230 976 257 940 q 203 1061 203 1013 l 203 1069 q 231 1160 203 1121 q 307 1221 258 1199 q 419 1243 356 1243 m 422 1156 q 336 1133 367 1156 q 306 1071 306 1111 l 306 1063 q 316 1024 306 1042 q 344 994 326 1007 q 375 989 360 990 q 408 988 390 988 q 495 1008 465 988 q 525 1067 525 1029 l 525 1075 q 515 1117 525 1099 q 483 1149 504 1136 q 455 1154 469 1153 q 422 1156 440 1156 z "},"Ā":{"ha":833,"x_min":56,"x_max":747,"o":"m 56 386 l 472 386 q 531 380 504 386 q 578 358 557 374 l 615 376 l 615 324 l 615 265 l 111 265 q 77 277 89 265 q 60 311 65 289 q 56 364 56 333 l 56 386 m 222 0 q 196 -6 210 -3 q 165 -8 182 -8 q 126 -3 144 -8 q 98 15 108 3 q 88 49 88 28 q 92 212 86 132 q 108 365 97 292 q 135 509 119 439 q 172 642 151 579 q 219 765 193 706 q 274 877 244 824 q 338 978 304 931 q 370 984 354 982 q 404 986 386 986 q 480 973 450 986 q 531 929 510 960 q 576 846 553 899 q 636 703 607 785 q 689 525 665 621 q 727 325 713 429 q 743 111 742 221 q 746 56 744 83 q 747 0 747 28 q 724 -6 736 -4 q 697 -8 711 -8 q 651 -1 671 -8 q 622 23 632 6 q 611 69 613 40 q 601 244 610 156 q 576 421 592 333 q 537 593 560 508 q 483 756 514 678 q 413 904 453 835 l 451 876 l 390 876 l 431 904 q 356 761 389 835 q 299 606 324 688 q 256 431 274 524 q 231 231 239 338 q 222 0 224 124 m 143 1225 l 628 1225 q 676 1208 664 1225 q 689 1154 689 1190 q 688 1134 689 1144 q 685 1115 686 1124 l 246 1115 q 182 1125 204 1115 q 151 1155 160 1135 q 143 1206 143 1175 q 143 1216 143 1211 q 143 1225 143 1221 z "},"Ă":{"ha":833,"x_min":56,"x_max":747,"o":"m 56 386 l 472 386 q 531 380 504 386 q 578 358 557 374 l 615 376 l 615 324 l 615 265 l 111 265 q 77 277 89 265 q 60 311 65 289 q 56 364 56 333 l 56 386 m 222 0 q 196 -6 210 -3 q 165 -8 182 -8 q 126 -3 144 -8 q 98 15 108 3 q 88 49 88 28 q 92 212 86 132 q 108 365 97 292 q 135 509 119 439 q 172 642 151 579 q 219 765 193 706 q 274 877 244 824 q 338 978 304 931 q 370 984 354 982 q 404 986 386 986 q 480 973 450 986 q 531 929 510 960 q 576 846 553 899 q 636 703 607 785 q 689 525 665 621 q 727 325 713 429 q 743 111 742 221 q 746 56 744 83 q 747 0 747 28 q 724 -6 736 -4 q 697 -8 711 -8 q 651 -1 671 -8 q 622 23 632 6 q 611 69 613 40 q 601 244 610 156 q 576 421 592 333 q 537 593 560 508 q 483 756 514 678 q 413 904 453 835 l 451 876 l 390 876 l 431 904 q 356 761 389 835 q 299 606 324 688 q 256 431 274 524 q 231 231 239 338 q 222 0 224 124 m 581 1304 q 622 1299 604 1304 q 653 1286 639 1294 q 663 1270 661 1279 q 660 1249 665 1261 q 613 1169 644 1203 q 533 1118 581 1136 q 422 1100 486 1100 l 411 1100 q 301 1118 349 1100 q 221 1169 253 1136 q 174 1249 189 1203 q 170 1270 168 1261 q 181 1286 172 1279 q 212 1299 194 1294 q 253 1304 229 1304 q 311 1228 274 1254 q 417 1197 349 1203 q 522 1228 485 1203 q 581 1304 560 1254 z "},"Ą":{"ha":833,"x_min":56,"x_max":747,"o":"m 56 386 l 472 386 q 531 380 504 386 q 578 358 557 374 l 615 376 l 615 324 l 615 265 l 111 265 q 77 277 89 265 q 60 311 65 289 q 56 364 56 333 l 56 386 m 222 0 q 196 -6 210 -3 q 165 -8 182 -8 q 126 -3 144 -8 q 98 15 108 3 q 88 49 88 28 q 92 212 86 132 q 108 365 97 292 q 135 509 119 439 q 172 642 151 579 q 219 765 193 706 q 274 877 244 824 q 338 978 304 931 q 370 984 354 982 q 404 986 386 986 q 480 973 450 986 q 531 929 510 960 q 576 846 553 899 q 636 703 607 785 q 689 525 665 621 q 727 325 713 429 q 743 111 742 221 q 746 56 744 83 q 747 0 747 28 q 724 -6 736 -4 q 697 -8 711 -8 q 651 -1 671 -8 q 622 23 632 6 q 611 69 613 40 q 601 244 610 156 q 576 421 592 333 q 537 593 560 508 q 483 756 514 678 q 413 904 453 835 l 451 876 l 390 876 l 431 904 q 356 761 389 835 q 299 606 324 688 q 256 431 274 524 q 231 231 239 338 q 222 0 224 124 m 675 40 q 697 33 683 42 q 736 -6 710 25 q 718 -15 729 -11 q 693 -24 707 -19 q 592 -77 628 -42 q 557 -158 557 -112 q 576 -208 557 -192 q 629 -224 594 -224 q 678 -216 656 -224 q 722 -192 700 -208 l 731 -192 q 739 -210 736 -201 q 742 -228 742 -219 q 743 -249 743 -236 q 706 -322 743 -297 q 608 -347 669 -347 q 485 -307 529 -347 q 440 -192 440 -267 q 469 -83 440 -131 q 550 -5 497 -36 q 675 40 603 26 z "},"Ǻ":{"ha":833,"x_min":56,"x_max":747,"o":"m 419 1243 q 527 1222 481 1243 q 601 1164 574 1201 q 628 1076 628 1126 l 628 1068 q 600 981 628 1018 q 524 922 572 943 q 411 900 475 900 q 303 920 350 900 q 229 977 256 940 q 203 1061 203 1014 l 203 1069 q 231 1160 203 1121 q 307 1221 258 1199 q 419 1243 356 1243 m 422 1156 q 336 1133 367 1156 q 306 1071 306 1111 l 306 1063 q 316 1024 306 1042 q 344 994 326 1007 q 375 990 360 992 q 407 988 390 988 q 494 1008 465 988 q 524 1067 524 1029 l 524 1075 q 514 1117 524 1099 q 483 1149 504 1136 q 454 1154 468 1153 q 422 1156 440 1156 m 521 1425 q 558 1424 542 1425 q 590 1419 575 1422 q 618 1411 604 1417 q 637 1392 633 1406 q 635 1364 640 1379 q 614 1323 626 1343 q 585 1285 601 1303 q 548 1252 568 1268 q 504 1224 528 1236 q 467 1210 485 1214 q 426 1206 449 1206 q 401 1207 414 1206 q 376 1213 389 1208 q 350 1224 364 1217 q 428 1285 394 1254 q 485 1351 461 1317 q 521 1425 508 1386 m 56 386 l 472 386 q 531 380 504 386 q 578 358 557 374 l 615 376 l 615 324 l 615 265 l 111 265 q 77 277 89 265 q 60 311 65 289 q 56 364 56 333 l 56 386 m 222 0 q 196 -6 210 -3 q 165 -8 182 -8 q 126 -3 144 -8 q 98 15 108 3 q 88 49 88 28 q 92 212 86 132 q 108 365 97 292 q 135 509 119 439 q 172 642 151 579 q 219 765 193 706 q 274 877 244 824 q 338 978 304 931 q 370 984 354 982 q 404 986 386 986 q 480 973 450 986 q 531 929 510 960 q 576 846 553 899 q 636 703 607 785 q 689 525 665 621 q 727 325 713 429 q 743 111 742 221 q 746 56 744 83 q 747 0 747 28 q 724 -6 736 -4 q 697 -8 711 -8 q 651 -1 671 -8 q 622 23 632 6 q 611 69 613 40 q 601 244 610 156 q 576 421 592 333 q 537 593 560 508 q 483 756 514 678 q 413 904 453 835 l 451 876 l 390 876 l 431 904 q 356 761 389 835 q 299 606 324 688 q 256 431 274 524 q 231 231 239 338 q 222 0 224 124 z "},"Ȁ":{"ha":833,"x_min":56,"x_max":747,"o":"m 206 1299 q 240 1224 218 1258 q 297 1159 263 1190 q 375 1097 331 1128 q 349 1086 361 1090 q 325 1081 338 1082 q 299 1079 313 1079 q 262 1083 279 1079 q 225 1096 244 1086 q 181 1124 201 1108 q 143 1158 161 1140 q 112 1195 125 1175 q 90 1236 99 1215 q 88 1264 85 1251 q 106 1283 90 1276 q 134 1293 119 1290 q 167 1297 149 1296 q 206 1299 185 1299 m 469 1299 q 506 1224 483 1258 q 562 1159 528 1190 q 639 1097 596 1128 q 615 1086 626 1090 q 590 1081 603 1082 q 564 1079 578 1079 q 527 1083 544 1079 q 490 1096 510 1086 q 446 1124 467 1108 q 408 1158 425 1140 q 377 1195 390 1175 q 356 1236 364 1215 q 351 1264 349 1251 q 371 1283 354 1276 q 399 1293 383 1290 q 431 1297 414 1296 q 469 1299 449 1299 m 56 386 l 472 386 q 531 380 504 386 q 578 358 557 374 l 615 376 l 615 324 l 615 265 l 111 265 q 77 277 89 265 q 60 311 65 289 q 56 364 56 333 l 56 386 m 222 0 q 196 -6 210 -3 q 165 -8 182 -8 q 126 -3 144 -8 q 98 15 108 3 q 88 49 88 28 q 92 212 86 132 q 108 365 97 292 q 135 509 119 439 q 172 642 151 579 q 219 765 193 706 q 274 877 244 824 q 338 978 304 931 q 370 984 354 982 q 404 986 386 986 q 480 973 450 986 q 531 929 510 960 q 576 846 553 899 q 636 703 607 785 q 689 525 665 621 q 727 325 713 429 q 743 111 742 221 q 746 56 744 83 q 747 0 747 28 q 724 -6 736 -4 q 697 -8 711 -8 q 651 -1 671 -8 q 622 23 632 6 q 611 69 613 40 q 601 244 610 156 q 576 421 592 333 q 537 593 560 508 q 483 756 514 678 q 413 904 453 835 l 451 876 l 390 876 l 431 904 q 356 761 389 835 q 299 606 324 688 q 256 431 274 524 q 231 231 239 338 q 222 0 224 124 z "},"Ȃ":{"ha":833,"x_min":56,"x_max":747,"o":"m 253 1092 q 212 1098 229 1093 q 181 1111 194 1103 q 170 1126 172 1117 q 174 1147 168 1135 q 221 1227 189 1194 q 301 1278 253 1260 q 411 1296 349 1296 l 422 1296 q 533 1278 486 1296 q 613 1227 581 1260 q 660 1147 644 1194 q 663 1126 665 1135 q 653 1111 661 1117 q 622 1098 639 1103 q 581 1092 604 1093 q 522 1169 560 1143 q 417 1199 485 1194 q 311 1169 349 1194 q 253 1092 274 1143 m 56 386 l 472 386 q 531 380 504 386 q 578 358 557 374 l 615 376 l 615 324 l 615 265 l 111 265 q 77 277 89 265 q 60 311 65 289 q 56 364 56 333 l 56 386 m 222 0 q 196 -6 210 -3 q 165 -8 182 -8 q 126 -3 144 -8 q 98 15 108 3 q 88 49 88 28 q 92 212 86 132 q 108 365 97 292 q 135 509 119 439 q 172 642 151 579 q 219 765 193 706 q 274 877 244 824 q 338 978 304 931 q 370 984 354 982 q 404 986 386 986 q 480 973 450 986 q 531 929 510 960 q 576 846 553 899 q 636 703 607 785 q 689 525 665 621 q 727 325 713 429 q 743 111 742 221 q 746 56 744 83 q 747 0 747 28 q 724 -6 736 -4 q 697 -8 711 -8 q 651 -1 671 -8 q 622 23 632 6 q 611 69 613 40 q 601 244 610 156 q 576 421 592 333 q 537 593 560 508 q 483 756 514 678 q 413 904 453 835 l 451 876 l 390 876 l 431 904 q 356 761 389 835 q 299 606 324 688 q 256 431 274 524 q 231 231 239 338 q 222 0 224 124 z "},"Ạ":{"ha":833,"x_min":56,"x_max":747,"o":"m 56 386 l 472 386 q 531 380 504 386 q 578 358 557 374 l 615 376 l 615 324 l 615 265 l 111 265 q 77 277 89 265 q 60 311 65 289 q 56 364 56 333 l 56 386 m 222 0 q 196 -6 210 -3 q 165 -8 182 -8 q 126 -3 144 -8 q 98 15 108 3 q 88 49 88 28 q 92 212 86 132 q 108 365 97 292 q 135 509 119 439 q 172 642 151 579 q 219 765 193 706 q 274 877 244 824 q 338 978 304 931 q 370 984 354 982 q 404 986 386 986 q 480 973 450 986 q 531 929 510 960 q 576 846 553 899 q 636 703 607 785 q 689 525 665 621 q 727 325 713 429 q 743 111 742 221 q 746 56 744 83 q 747 0 747 28 q 724 -6 736 -4 q 697 -8 711 -8 q 651 -1 671 -8 q 622 23 632 6 q 611 69 613 40 q 601 244 610 156 q 576 421 592 333 q 537 593 560 508 q 483 756 514 678 q 413 904 453 835 l 451 876 l 390 876 l 431 904 q 356 761 389 835 q 299 606 324 688 q 256 431 274 524 q 231 231 239 338 q 222 0 224 124 m 324 -125 q 340 -122 331 -124 q 357 -120 349 -121 q 374 -119 365 -119 q 393 -119 383 -119 q 467 -133 439 -119 q 496 -183 496 -146 l 496 -274 q 480 -276 489 -275 q 463 -278 471 -278 q 445 -279 454 -279 q 426 -279 436 -279 q 353 -265 382 -279 q 324 -215 324 -251 l 324 -125 z "},"Ả":{"ha":833,"x_min":56,"x_max":747,"o":"m 56 386 l 472 386 q 531 380 504 386 q 578 358 557 374 l 615 376 l 615 324 l 615 265 l 111 265 q 77 277 89 265 q 60 311 65 289 q 56 364 56 333 l 56 386 m 222 0 q 196 -6 210 -3 q 165 -8 182 -8 q 126 -3 144 -8 q 98 15 108 3 q 88 49 88 28 q 92 212 86 132 q 108 365 97 292 q 135 509 119 439 q 172 642 151 579 q 219 765 193 706 q 274 877 244 824 q 338 978 304 931 q 370 984 354 982 q 404 986 386 986 q 480 973 450 986 q 531 929 510 960 q 576 846 553 899 q 636 703 607 785 q 689 525 665 621 q 727 325 713 429 q 743 111 742 221 q 746 56 744 83 q 747 0 747 28 q 724 -6 736 -4 q 697 -8 711 -8 q 651 -1 671 -8 q 622 23 632 6 q 611 69 613 40 q 601 244 610 156 q 576 421 592 333 q 537 593 560 508 q 483 756 514 678 q 413 904 453 835 l 451 876 l 390 876 l 431 904 q 356 761 389 835 q 299 606 324 688 q 256 431 274 524 q 231 231 239 338 q 222 0 224 124 m 346 1078 q 362 1114 346 1097 q 419 1146 378 1131 q 473 1169 458 1160 q 488 1193 488 1179 q 488 1201 488 1197 q 486 1208 488 1204 q 459 1215 474 1214 q 426 1217 444 1217 q 345 1205 379 1217 q 283 1167 311 1193 l 275 1167 q 267 1188 269 1178 q 264 1214 264 1199 q 270 1249 264 1233 q 290 1276 276 1264 q 311 1291 300 1285 q 338 1302 322 1297 q 372 1309 353 1307 q 415 1311 392 1311 q 504 1297 469 1311 q 556 1257 539 1282 q 574 1200 574 1232 l 574 1197 q 558 1150 574 1168 q 508 1113 543 1132 q 460 1079 471 1092 q 447 1049 450 1067 q 433 1045 442 1047 q 417 1042 425 1043 q 400 1042 408 1042 q 359 1052 372 1042 q 346 1078 346 1063 z "},"Ấ":{"ha":833,"x_min":56,"x_max":824,"o":"m 56 386 l 472 386 q 531 380 504 386 q 578 358 557 374 l 615 376 l 615 324 l 615 265 l 111 265 q 77 277 89 265 q 60 311 65 289 q 56 364 56 333 l 56 386 m 222 0 q 196 -6 210 -3 q 165 -8 182 -8 q 126 -3 144 -8 q 98 15 108 3 q 88 49 88 28 q 92 212 86 132 q 108 365 97 292 q 135 509 119 439 q 172 642 151 579 q 219 765 193 706 q 274 877 244 824 q 338 978 304 931 q 370 984 354 982 q 404 986 386 986 q 480 973 450 986 q 531 929 510 960 q 576 846 553 899 q 636 703 607 785 q 689 525 665 621 q 727 325 713 429 q 743 111 742 221 q 746 56 744 83 q 747 0 747 28 q 724 -6 736 -4 q 697 -8 711 -8 q 651 -1 671 -8 q 622 23 632 6 q 611 69 613 40 q 601 244 610 156 q 576 421 592 333 q 537 593 560 508 q 483 756 514 678 q 413 904 453 835 l 451 876 l 390 876 l 431 904 q 356 761 389 835 q 299 606 324 688 q 256 431 274 524 q 231 231 239 338 q 222 0 224 124 m 375 1301 q 390 1301 382 1301 q 405 1301 397 1301 q 419 1301 413 1301 q 467 1296 444 1301 q 529 1265 490 1290 q 576 1233 551 1251 q 625 1192 601 1214 q 670 1143 649 1169 q 711 1086 692 1117 q 676 1075 693 1079 q 636 1071 660 1071 q 599 1078 613 1071 q 569 1104 586 1086 q 496 1169 536 1140 q 383 1231 456 1199 l 463 1214 q 417 1214 440 1214 q 371 1214 394 1214 l 449 1232 q 317 1150 368 1192 q 238 1069 265 1108 l 229 1069 q 178 1073 197 1069 q 150 1084 158 1076 q 142 1100 142 1092 q 150 1125 142 1108 q 179 1165 158 1142 q 220 1206 199 1186 q 267 1243 242 1225 q 319 1276 292 1261 q 375 1301 346 1290 m 721 1492 q 749 1490 736 1492 q 775 1487 763 1489 q 799 1482 788 1485 q 820 1461 817 1476 q 815 1422 824 1446 q 792 1376 806 1399 q 762 1335 779 1354 q 724 1299 744 1317 q 690 1279 706 1286 q 654 1272 674 1272 q 631 1274 642 1272 q 608 1281 619 1276 q 585 1290 597 1285 q 644 1348 618 1317 q 690 1415 671 1379 q 721 1492 710 1451 z "},"Ầ":{"ha":833,"x_min":56,"x_max":747,"o":"m 56 386 l 472 386 q 531 380 504 386 q 578 358 557 374 l 615 376 l 615 324 l 615 265 l 111 265 q 77 277 89 265 q 60 311 65 289 q 56 364 56 333 l 56 386 m 222 0 q 196 -6 210 -3 q 165 -8 182 -8 q 126 -3 144 -8 q 98 15 108 3 q 88 49 88 28 q 92 212 86 132 q 108 365 97 292 q 135 509 119 439 q 172 642 151 579 q 219 765 193 706 q 274 877 244 824 q 338 978 304 931 q 370 984 354 982 q 404 986 386 986 q 480 973 450 986 q 531 929 510 960 q 576 846 553 899 q 636 703 607 785 q 689 525 665 621 q 727 325 713 429 q 743 111 742 221 q 746 56 744 83 q 747 0 747 28 q 724 -6 736 -4 q 697 -8 711 -8 q 651 -1 671 -8 q 622 23 632 6 q 611 69 613 40 q 601 244 610 156 q 576 421 592 333 q 537 593 560 508 q 483 756 514 678 q 413 904 453 835 l 451 876 l 390 876 l 431 904 q 356 761 389 835 q 299 606 324 688 q 256 431 274 524 q 231 231 239 338 q 222 0 224 124 m 375 1301 q 390 1301 382 1301 q 405 1301 397 1301 q 419 1301 413 1301 q 467 1296 444 1301 q 529 1265 490 1290 q 576 1233 551 1251 q 625 1192 601 1214 q 670 1143 649 1169 q 711 1086 692 1117 q 676 1075 693 1079 q 636 1071 660 1071 q 599 1078 613 1071 q 569 1104 586 1086 q 496 1169 536 1140 q 383 1231 456 1199 l 463 1214 q 417 1214 440 1214 q 371 1214 394 1214 l 449 1232 q 317 1150 368 1192 q 238 1069 265 1108 l 229 1069 q 178 1073 197 1069 q 150 1084 158 1076 q 142 1100 142 1092 q 150 1125 142 1108 q 179 1165 158 1142 q 220 1206 199 1186 q 267 1243 242 1225 q 319 1276 292 1261 q 375 1301 346 1290 m 579 1490 q 610 1415 590 1451 q 656 1348 629 1379 q 715 1290 682 1317 q 692 1281 703 1285 q 670 1274 681 1276 q 647 1272 660 1272 q 610 1279 628 1272 q 575 1299 593 1286 q 538 1335 556 1317 q 506 1376 519 1354 q 485 1422 493 1399 q 481 1461 475 1446 q 506 1482 486 1476 q 526 1487 515 1485 q 551 1490 538 1489 q 579 1490 564 1490 z "},"Ẩ":{"ha":833,"x_min":56,"x_max":808,"o":"m 56 386 l 472 386 q 531 380 504 386 q 578 358 557 374 l 615 376 l 615 324 l 615 265 l 111 265 q 77 277 89 265 q 60 311 65 289 q 56 364 56 333 l 56 386 m 222 0 q 196 -6 210 -3 q 165 -8 182 -8 q 126 -3 144 -8 q 98 15 108 3 q 88 49 88 28 q 92 212 86 132 q 108 365 97 292 q 135 509 119 439 q 172 642 151 579 q 219 765 193 706 q 274 877 244 824 q 338 978 304 931 q 370 984 354 982 q 404 986 386 986 q 480 973 450 986 q 531 929 510 960 q 576 846 553 899 q 636 703 607 785 q 689 525 665 621 q 727 325 713 429 q 743 111 742 221 q 746 56 744 83 q 747 0 747 28 q 724 -6 736 -4 q 697 -8 711 -8 q 651 -1 671 -8 q 622 23 632 6 q 611 69 613 40 q 601 244 610 156 q 576 421 592 333 q 537 593 560 508 q 483 756 514 678 q 413 904 453 835 l 451 876 l 390 876 l 431 904 q 356 761 389 835 q 299 606 324 688 q 256 431 274 524 q 231 231 239 338 q 222 0 224 124 m 375 1301 q 390 1301 382 1301 q 405 1301 397 1301 q 419 1301 413 1301 q 467 1296 444 1301 q 529 1265 490 1290 q 576 1233 551 1251 q 625 1192 601 1214 q 670 1143 649 1169 q 711 1086 692 1117 q 676 1075 693 1079 q 636 1071 660 1071 q 599 1078 613 1071 q 569 1104 586 1086 q 496 1169 536 1140 q 383 1231 456 1199 l 463 1214 q 417 1214 440 1214 q 371 1214 394 1214 l 449 1232 q 317 1150 368 1192 q 238 1069 265 1108 l 229 1069 q 178 1073 197 1069 q 150 1084 158 1076 q 142 1100 142 1092 q 150 1125 142 1108 q 179 1165 158 1142 q 220 1206 199 1186 q 267 1243 242 1225 q 319 1276 292 1261 q 375 1301 346 1290 m 581 1297 q 597 1333 581 1317 q 654 1365 613 1350 q 708 1389 693 1379 q 722 1413 722 1399 q 722 1420 722 1417 q 721 1428 722 1424 q 694 1435 708 1433 q 661 1436 679 1436 q 580 1424 614 1436 q 518 1386 546 1413 l 510 1386 q 501 1408 504 1397 q 499 1433 499 1418 q 505 1468 499 1453 q 525 1496 511 1483 q 546 1510 535 1504 q 572 1522 557 1517 q 607 1528 588 1526 q 650 1531 626 1531 q 739 1516 704 1531 q 791 1476 774 1501 q 808 1419 808 1451 l 808 1417 q 793 1369 808 1388 q 743 1332 778 1351 q 695 1299 706 1311 q 682 1268 685 1286 q 668 1265 676 1267 q 651 1262 660 1263 q 635 1261 643 1261 q 594 1272 607 1261 q 581 1297 581 1282 z "},"Ẫ":{"ha":833,"x_min":56,"x_max":747,"o":"m 56 386 l 472 386 q 531 380 504 386 q 578 358 557 374 l 615 376 l 615 324 l 615 265 l 111 265 q 77 277 89 265 q 60 311 65 289 q 56 364 56 333 l 56 386 m 222 0 q 196 -6 210 -3 q 165 -8 182 -8 q 126 -3 144 -8 q 98 15 108 3 q 88 49 88 28 q 92 212 86 132 q 108 365 97 292 q 135 509 119 439 q 172 642 151 579 q 219 765 193 706 q 274 877 244 824 q 338 978 304 931 q 370 984 354 982 q 404 986 386 986 q 480 973 450 986 q 531 929 510 960 q 576 846 553 899 q 636 703 607 785 q 689 525 665 621 q 727 325 713 429 q 743 111 742 221 q 746 56 744 83 q 747 0 747 28 q 724 -6 736 -4 q 697 -8 711 -8 q 651 -1 671 -8 q 622 23 632 6 q 611 69 613 40 q 601 244 610 156 q 576 421 592 333 q 537 593 560 508 q 483 756 514 678 q 413 904 453 835 l 451 876 l 390 876 l 431 904 q 356 761 389 835 q 299 606 324 688 q 256 431 274 524 q 231 231 239 338 q 222 0 224 124 m 375 1301 q 390 1301 382 1301 q 405 1301 397 1301 q 419 1301 413 1301 q 467 1296 444 1301 q 529 1265 490 1290 q 576 1233 551 1251 q 625 1192 601 1214 q 670 1143 649 1169 q 711 1086 692 1117 q 676 1075 693 1079 q 636 1071 660 1071 q 599 1078 613 1071 q 569 1104 586 1086 q 496 1169 536 1140 q 383 1231 456 1199 l 463 1214 q 417 1214 440 1214 q 371 1214 394 1214 l 449 1232 q 317 1150 368 1192 q 238 1069 265 1108 l 229 1069 q 178 1073 197 1069 q 150 1084 158 1076 q 142 1100 142 1092 q 150 1125 142 1108 q 179 1165 158 1142 q 220 1206 199 1186 q 267 1243 242 1225 q 319 1276 292 1261 q 375 1301 346 1290 m 528 1438 q 573 1451 556 1438 q 606 1503 590 1464 l 614 1503 q 624 1477 621 1492 q 628 1446 628 1463 q 624 1410 628 1426 q 615 1381 621 1393 q 585 1345 606 1358 q 536 1332 565 1332 q 467 1347 497 1332 q 410 1380 436 1361 q 358 1413 385 1399 q 301 1428 332 1428 q 255 1412 271 1428 q 221 1364 239 1396 l 213 1364 q 203 1387 207 1374 q 200 1417 200 1400 q 203 1453 200 1438 q 214 1485 207 1469 q 246 1522 224 1508 q 301 1535 268 1535 q 363 1519 335 1535 q 416 1485 390 1504 q 469 1452 442 1467 q 528 1438 496 1438 z "},"Ậ":{"ha":833,"x_min":56,"x_max":747,"o":"m 322 -125 q 339 -122 331 -124 q 356 -120 347 -121 q 374 -119 365 -119 q 392 -119 383 -119 q 467 -133 438 -119 q 496 -183 496 -146 l 496 -274 q 480 -276 489 -275 q 462 -278 471 -278 q 444 -279 453 -279 q 426 -279 436 -279 q 352 -265 382 -279 q 322 -215 322 -251 l 322 -125 m 56 386 l 472 386 q 531 380 504 386 q 578 358 557 374 l 615 376 l 615 324 l 615 265 l 111 265 q 77 277 89 265 q 60 311 65 289 q 56 364 56 333 l 56 386 m 222 0 q 196 -6 210 -3 q 165 -8 182 -8 q 126 -3 144 -8 q 98 15 108 3 q 88 49 88 28 q 92 212 86 132 q 108 365 97 292 q 135 509 119 439 q 172 642 151 579 q 219 765 193 706 q 274 877 244 824 q 338 978 304 931 q 370 984 354 982 q 404 986 386 986 q 480 973 450 986 q 531 929 510 960 q 576 846 553 899 q 636 703 607 785 q 689 525 665 621 q 727 325 713 429 q 743 111 742 221 q 746 56 744 83 q 747 0 747 28 q 724 -6 736 -4 q 697 -8 711 -8 q 651 -1 671 -8 q 622 23 632 6 q 611 69 613 40 q 601 244 610 156 q 576 421 592 333 q 537 593 560 508 q 483 756 514 678 q 413 904 453 835 l 451 876 l 390 876 l 431 904 q 356 761 389 835 q 299 606 324 688 q 256 431 274 524 q 231 231 239 338 q 222 0 224 124 m 375 1301 q 390 1301 382 1301 q 405 1301 397 1301 q 419 1301 413 1301 q 467 1296 444 1301 q 529 1265 490 1290 q 576 1233 551 1251 q 625 1192 601 1214 q 670 1143 649 1169 q 711 1086 692 1117 q 676 1075 693 1079 q 636 1071 660 1071 q 599 1078 613 1071 q 569 1104 586 1086 q 496 1169 536 1140 q 383 1231 456 1199 l 463 1214 q 417 1214 440 1214 q 371 1214 394 1214 l 449 1232 q 317 1150 368 1192 q 238 1069 265 1108 l 229 1069 q 178 1073 197 1069 q 150 1084 158 1076 q 142 1100 142 1092 q 150 1125 142 1108 q 179 1165 158 1142 q 220 1206 199 1186 q 267 1243 242 1225 q 319 1276 292 1261 q 375 1301 346 1290 z "},"Ắ":{"ha":833,"x_min":56,"x_max":747,"o":"m 56 386 l 472 386 q 531 380 504 386 q 578 358 557 374 l 615 376 l 615 324 l 615 265 l 111 265 q 77 277 89 265 q 60 311 65 289 q 56 364 56 333 l 56 386 m 222 0 q 196 -6 210 -3 q 165 -8 182 -8 q 126 -3 144 -8 q 98 15 108 3 q 88 49 88 28 q 92 212 86 132 q 108 365 97 292 q 135 509 119 439 q 172 642 151 579 q 219 765 193 706 q 274 877 244 824 q 338 978 304 931 q 370 984 354 982 q 404 986 386 986 q 480 973 450 986 q 531 929 510 960 q 576 846 553 899 q 636 703 607 785 q 689 525 665 621 q 727 325 713 429 q 743 111 742 221 q 746 56 744 83 q 747 0 747 28 q 724 -6 736 -4 q 697 -8 711 -8 q 651 -1 671 -8 q 622 23 632 6 q 611 69 613 40 q 601 244 610 156 q 576 421 592 333 q 537 593 560 508 q 483 756 514 678 q 413 904 453 835 l 451 876 l 390 876 l 431 904 q 356 761 389 835 q 299 606 324 688 q 256 431 274 524 q 231 231 239 338 q 222 0 224 124 m 581 1304 q 622 1299 604 1304 q 653 1286 639 1294 q 663 1270 661 1279 q 660 1249 665 1261 q 613 1169 644 1203 q 533 1118 581 1136 q 422 1100 486 1100 l 411 1100 q 301 1118 349 1100 q 221 1169 253 1136 q 174 1249 189 1203 q 170 1270 168 1261 q 181 1286 172 1279 q 212 1299 194 1294 q 253 1304 229 1304 q 311 1228 274 1254 q 417 1197 349 1203 q 522 1228 485 1203 q 581 1304 560 1254 m 488 1532 q 516 1531 503 1532 q 542 1527 529 1529 q 565 1522 554 1525 q 587 1501 583 1517 q 582 1463 590 1486 q 559 1417 572 1439 q 528 1376 546 1394 q 490 1339 511 1357 q 456 1319 472 1326 q 421 1313 440 1313 q 397 1315 408 1313 q 375 1321 386 1317 q 351 1331 364 1325 q 411 1388 385 1357 q 457 1456 438 1419 q 488 1532 476 1492 z "},"Ằ":{"ha":833,"x_min":56,"x_max":747,"o":"m 56 386 l 472 386 q 531 380 504 386 q 578 358 557 374 l 615 376 l 615 324 l 615 265 l 111 265 q 77 277 89 265 q 60 311 65 289 q 56 364 56 333 l 56 386 m 222 0 q 196 -6 210 -3 q 165 -8 182 -8 q 126 -3 144 -8 q 98 15 108 3 q 88 49 88 28 q 92 212 86 132 q 108 365 97 292 q 135 509 119 439 q 172 642 151 579 q 219 765 193 706 q 274 877 244 824 q 338 978 304 931 q 370 984 354 982 q 404 986 386 986 q 480 973 450 986 q 531 929 510 960 q 576 846 553 899 q 636 703 607 785 q 689 525 665 621 q 727 325 713 429 q 743 111 742 221 q 746 56 744 83 q 747 0 747 28 q 724 -6 736 -4 q 697 -8 711 -8 q 651 -1 671 -8 q 622 23 632 6 q 611 69 613 40 q 601 244 610 156 q 576 421 592 333 q 537 593 560 508 q 483 756 514 678 q 413 904 453 835 l 451 876 l 390 876 l 431 904 q 356 761 389 835 q 299 606 324 688 q 256 431 274 524 q 231 231 239 338 q 222 0 224 124 m 581 1304 q 622 1299 604 1304 q 653 1286 639 1294 q 663 1270 661 1279 q 660 1249 665 1261 q 613 1169 644 1203 q 533 1118 581 1136 q 422 1100 486 1100 l 411 1100 q 301 1118 349 1100 q 221 1169 253 1136 q 174 1249 189 1203 q 170 1270 168 1261 q 181 1286 172 1279 q 212 1299 194 1294 q 253 1304 229 1304 q 311 1228 274 1254 q 417 1197 349 1203 q 522 1228 485 1203 q 581 1304 560 1254 m 346 1531 q 376 1456 357 1492 q 422 1388 396 1419 q 482 1331 449 1357 q 458 1321 469 1325 q 437 1315 447 1317 q 414 1313 426 1313 q 377 1319 394 1313 q 342 1339 360 1326 q 304 1376 322 1357 q 273 1417 286 1394 q 251 1463 260 1439 q 247 1501 242 1486 q 272 1522 253 1517 q 293 1527 282 1525 q 317 1530 304 1529 q 346 1531 331 1531 z "},"Ẳ":{"ha":833,"x_min":56,"x_max":747,"o":"m 56 386 l 472 386 q 531 380 504 386 q 578 358 557 374 l 615 376 l 615 324 l 615 265 l 111 265 q 77 277 89 265 q 60 311 65 289 q 56 364 56 333 l 56 386 m 222 0 q 196 -6 210 -3 q 165 -8 182 -8 q 126 -3 144 -8 q 98 15 108 3 q 88 49 88 28 q 92 212 86 132 q 108 365 97 292 q 135 509 119 439 q 172 642 151 579 q 219 765 193 706 q 274 877 244 824 q 338 978 304 931 q 370 984 354 982 q 404 986 386 986 q 480 973 450 986 q 531 929 510 960 q 576 846 553 899 q 636 703 607 785 q 689 525 665 621 q 727 325 713 429 q 743 111 742 221 q 746 56 744 83 q 747 0 747 28 q 724 -6 736 -4 q 697 -8 711 -8 q 651 -1 671 -8 q 622 23 632 6 q 611 69 613 40 q 601 244 610 156 q 576 421 592 333 q 537 593 560 508 q 483 756 514 678 q 413 904 453 835 l 451 876 l 390 876 l 431 904 q 356 761 389 835 q 299 606 324 688 q 256 431 274 524 q 231 231 239 338 q 222 0 224 124 m 581 1304 q 622 1299 604 1304 q 653 1286 639 1294 q 663 1270 661 1279 q 660 1249 665 1261 q 613 1169 644 1203 q 533 1118 581 1136 q 422 1100 486 1100 l 411 1100 q 301 1118 349 1100 q 221 1169 253 1136 q 174 1249 189 1203 q 170 1270 168 1261 q 181 1286 172 1279 q 212 1299 194 1294 q 253 1304 229 1304 q 311 1228 274 1254 q 417 1197 349 1203 q 522 1228 485 1203 q 581 1304 560 1254 m 347 1333 q 363 1369 347 1353 q 421 1401 379 1386 q 474 1425 460 1415 q 489 1449 489 1435 q 489 1456 489 1453 q 488 1464 489 1460 q 460 1471 475 1469 q 428 1472 446 1472 q 347 1460 381 1472 q 285 1422 313 1449 l 276 1422 q 268 1444 271 1433 q 265 1469 265 1454 q 272 1504 265 1489 q 292 1532 278 1519 q 313 1547 301 1540 q 339 1558 324 1553 q 374 1565 354 1563 q 417 1567 393 1567 q 506 1552 471 1567 q 558 1513 540 1538 q 575 1456 575 1488 l 575 1453 q 560 1406 575 1424 q 510 1368 544 1388 q 462 1335 472 1347 q 449 1304 451 1322 q 435 1301 443 1303 q 418 1298 426 1299 q 401 1297 410 1297 q 360 1308 374 1297 q 347 1333 347 1318 z "},"Ẵ":{"ha":833,"x_min":56,"x_max":747,"o":"m 56 386 l 472 386 q 531 380 504 386 q 578 358 557 374 l 615 376 l 615 324 l 615 265 l 111 265 q 77 277 89 265 q 60 311 65 289 q 56 364 56 333 l 56 386 m 222 0 q 196 -6 210 -3 q 165 -8 182 -8 q 126 -3 144 -8 q 98 15 108 3 q 88 49 88 28 q 92 212 86 132 q 108 365 97 292 q 135 509 119 439 q 172 642 151 579 q 219 765 193 706 q 274 877 244 824 q 338 978 304 931 q 370 984 354 982 q 404 986 386 986 q 480 973 450 986 q 531 929 510 960 q 576 846 553 899 q 636 703 607 785 q 689 525 665 621 q 727 325 713 429 q 743 111 742 221 q 746 56 744 83 q 747 0 747 28 q 724 -6 736 -4 q 697 -8 711 -8 q 651 -1 671 -8 q 622 23 632 6 q 611 69 613 40 q 601 244 610 156 q 576 421 592 333 q 537 593 560 508 q 483 756 514 678 q 413 904 453 835 l 451 876 l 390 876 l 431 904 q 356 761 389 835 q 299 606 324 688 q 256 431 274 524 q 231 231 239 338 q 222 0 224 124 m 581 1304 q 622 1299 604 1304 q 653 1286 639 1294 q 663 1270 661 1279 q 660 1249 665 1261 q 613 1169 644 1203 q 533 1118 581 1136 q 422 1100 486 1100 l 411 1100 q 301 1118 349 1100 q 221 1169 253 1136 q 174 1249 189 1203 q 170 1270 168 1261 q 181 1286 172 1279 q 212 1299 194 1294 q 253 1304 229 1304 q 311 1228 274 1254 q 417 1197 349 1203 q 522 1228 485 1203 q 581 1304 560 1254 m 528 1444 q 573 1458 556 1444 q 606 1510 590 1471 l 614 1510 q 624 1484 621 1499 q 628 1453 628 1469 q 624 1417 628 1433 q 615 1388 621 1400 q 585 1352 606 1365 q 536 1339 565 1339 q 467 1353 497 1339 q 410 1387 436 1368 q 358 1420 385 1406 q 301 1435 332 1435 q 255 1419 271 1435 q 221 1371 239 1403 l 213 1371 q 203 1394 207 1381 q 200 1424 200 1407 q 203 1460 200 1444 q 214 1492 207 1476 q 246 1528 224 1515 q 301 1542 268 1542 q 363 1526 335 1542 q 416 1492 390 1511 q 469 1459 442 1474 q 528 1444 496 1444 z "},"Ặ":{"ha":833,"x_min":56,"x_max":747,"o":"m 322 -125 q 339 -122 331 -124 q 356 -120 347 -121 q 374 -119 365 -119 q 392 -119 383 -119 q 467 -133 438 -119 q 496 -183 496 -146 l 496 -274 q 480 -276 489 -275 q 462 -278 471 -278 q 444 -279 453 -279 q 426 -279 436 -279 q 352 -265 382 -279 q 322 -215 322 -251 l 322 -125 m 56 386 l 472 386 q 531 380 504 386 q 578 358 557 374 l 615 376 l 615 324 l 615 265 l 111 265 q 77 277 89 265 q 60 311 65 289 q 56 364 56 333 l 56 386 m 222 0 q 196 -6 210 -3 q 165 -8 182 -8 q 126 -3 144 -8 q 98 15 108 3 q 88 49 88 28 q 92 212 86 132 q 108 365 97 292 q 135 509 119 439 q 172 642 151 579 q 219 765 193 706 q 274 877 244 824 q 338 978 304 931 q 370 984 354 982 q 404 986 386 986 q 480 973 450 986 q 531 929 510 960 q 576 846 553 899 q 636 703 607 785 q 689 525 665 621 q 727 325 713 429 q 743 111 742 221 q 746 56 744 83 q 747 0 747 28 q 724 -6 736 -4 q 697 -8 711 -8 q 651 -1 671 -8 q 622 23 632 6 q 611 69 613 40 q 601 244 610 156 q 576 421 592 333 q 537 593 560 508 q 483 756 514 678 q 413 904 453 835 l 451 876 l 390 876 l 431 904 q 356 761 389 835 q 299 606 324 688 q 256 431 274 524 q 231 231 239 338 q 222 0 224 124 m 581 1304 q 622 1299 604 1304 q 653 1286 639 1294 q 663 1270 661 1279 q 660 1249 665 1261 q 613 1169 644 1203 q 533 1118 581 1136 q 422 1100 486 1100 l 411 1100 q 301 1118 349 1100 q 221 1169 253 1136 q 174 1249 189 1203 q 170 1270 168 1261 q 181 1286 172 1279 q 212 1299 194 1294 q 253 1304 229 1304 q 311 1228 274 1254 q 417 1197 349 1203 q 522 1228 485 1203 q 581 1304 560 1254 z "},"B":{"ha":833,"x_min":49,"x_max":738,"o":"m 382 -14 q 297 -8 335 -14 q 231 8 258 -3 q 183 30 203 18 q 153 53 164 42 q 132 84 139 68 q 125 121 125 100 q 125 314 125 218 q 125 506 125 410 q 125 699 125 601 q 125 897 125 797 l 242 897 l 225 854 q 250 810 243 836 q 257 747 257 783 q 257 595 257 671 q 257 442 257 519 q 257 287 257 365 q 257 128 257 208 q 288 117 271 122 q 326 110 304 113 q 379 108 347 108 q 493 124 442 108 q 574 176 544 140 q 604 271 604 213 l 604 286 q 582 354 604 324 q 515 406 560 385 q 399 439 469 428 l 272 439 l 272 469 l 586 467 l 586 444 q 692 380 654 425 q 731 275 731 335 l 731 254 q 684 106 731 167 q 559 16 638 46 q 382 -14 481 -14 m 53 972 q 243 994 154 989 q 411 1000 332 1000 q 554 978 493 1000 q 657 919 615 957 q 718 832 699 881 q 738 728 738 783 l 738 707 q 706 574 738 632 q 619 475 675 515 q 492 414 564 435 q 339 393 421 393 q 297 399 315 393 q 265 417 278 404 l 235 411 l 235 514 q 272 500 254 504 q 319 496 289 496 q 476 521 411 496 q 576 594 540 546 q 611 710 611 642 l 611 724 q 603 790 611 761 q 579 840 596 818 q 496 866 540 858 q 393 874 451 874 q 257 867 319 874 q 153 853 194 860 q 97 846 111 846 q 60 867 71 846 q 49 931 49 888 q 50 953 49 943 q 53 972 51 963 z "},"C":{"ha":833,"x_min":101,"x_max":747,"o":"m 460 -28 q 308 2 375 -28 q 196 85 242 32 q 126 209 150 139 q 101 361 101 279 l 101 397 q 131 639 101 529 q 216 830 161 749 q 347 956 271 911 q 514 1000 422 1000 q 576 993 549 1000 q 626 973 604 986 q 667 940 649 960 q 701 894 689 919 q 720 840 714 869 q 726 778 726 811 q 726 678 726 728 q 726 582 726 629 q 706 576 718 579 q 678 574 693 574 q 615 589 636 574 q 594 636 594 604 q 596 742 594 699 q 595 823 597 785 q 583 904 593 861 l 619 846 q 565 873 590 867 q 518 879 540 879 q 376 815 440 879 q 274 641 311 751 q 236 389 236 531 l 236 360 q 238 289 236 319 q 246 226 240 258 q 333 135 281 171 q 467 99 385 99 q 619 133 554 99 q 731 235 685 168 l 739 235 q 743 220 742 228 q 745 205 744 213 q 747 190 746 197 q 747 175 747 182 q 734 103 747 132 q 700 53 721 74 q 639 8 674 26 q 560 -19 604 -10 q 460 -28 515 -28 z "},"Ç":{"ha":833,"x_min":101,"x_max":747,"o":"m 460 -28 q 308 2 375 -28 q 196 85 242 32 q 126 209 150 139 q 101 361 101 279 l 101 397 q 131 639 101 529 q 216 830 161 749 q 347 956 271 911 q 514 1000 422 1000 q 576 993 549 1000 q 626 973 604 986 q 667 940 649 960 q 701 894 689 919 q 720 840 714 869 q 726 778 726 811 q 726 678 726 728 q 726 582 726 629 q 706 576 718 579 q 678 574 693 574 q 615 589 636 574 q 594 636 594 604 q 596 742 594 699 q 595 823 597 785 q 583 904 593 861 l 619 846 q 565 873 590 867 q 518 879 540 879 q 376 815 440 879 q 274 641 311 751 q 236 389 236 531 l 236 360 q 238 289 236 319 q 246 226 240 258 q 333 135 281 171 q 467 99 385 99 q 619 133 554 99 q 731 235 685 168 l 739 235 q 743 220 742 228 q 745 205 744 213 q 747 190 746 197 q 747 175 747 182 q 734 103 747 132 q 700 53 721 74 q 639 8 674 26 q 560 -19 604 -10 q 460 -28 515 -28 m 603 -182 q 553 -292 603 -251 q 415 -332 503 -332 q 342 -321 369 -332 q 303 -291 315 -310 q 290 -250 290 -272 q 292 -231 290 -240 q 295 -212 293 -222 q 301 -193 297 -203 l 310 -193 q 351 -222 329 -212 q 410 -231 372 -231 q 471 -215 449 -231 q 493 -168 493 -199 q 475 -131 493 -144 q 421 -118 457 -118 q 401 -112 408 -118 q 393 -96 393 -106 q 394 -69 393 -83 q 399 -40 396 -54 q 406 -12 401 -25 q 417 11 411 1 q 429 22 421 18 q 453 28 438 26 q 494 29 468 31 q 489 9 492 21 q 485 -15 486 -3 q 481 -37 483 -26 q 478 -57 479 -49 l 478 -65 q 568 -99 533 -69 q 603 -182 603 -129 z "},"Ć":{"ha":833,"x_min":101,"x_max":747,"o":"m 460 -28 q 308 2 375 -28 q 196 85 242 32 q 126 209 150 139 q 101 361 101 279 l 101 397 q 131 639 101 529 q 216 830 161 749 q 347 956 271 911 q 514 1000 422 1000 q 576 993 549 1000 q 626 973 604 986 q 667 940 649 960 q 701 894 689 919 q 720 840 714 869 q 726 778 726 811 q 726 678 726 728 q 726 582 726 629 q 706 576 718 579 q 678 574 693 574 q 615 589 636 574 q 594 636 594 604 q 596 742 594 699 q 595 823 597 785 q 583 904 593 861 l 619 846 q 565 873 590 867 q 518 879 540 879 q 376 815 440 879 q 274 641 311 751 q 236 389 236 531 l 236 360 q 238 289 236 319 q 246 226 240 258 q 333 135 281 171 q 467 99 385 99 q 619 133 554 99 q 731 235 685 168 l 739 235 q 743 220 742 228 q 745 205 744 213 q 747 190 746 197 q 747 175 747 182 q 734 103 747 132 q 700 53 721 74 q 639 8 674 26 q 560 -19 604 -10 q 460 -28 515 -28 m 561 1290 q 599 1289 582 1290 q 631 1285 617 1288 q 658 1278 644 1282 q 678 1258 675 1271 q 676 1231 682 1246 q 656 1189 668 1208 q 626 1151 643 1169 q 588 1118 608 1133 q 544 1090 568 1103 q 508 1075 526 1079 q 467 1071 489 1071 q 442 1073 454 1071 q 417 1079 429 1075 q 392 1090 404 1083 q 469 1152 435 1121 q 526 1217 503 1183 q 561 1290 550 1251 z "},"Ĉ":{"ha":833,"x_min":101,"x_max":758,"o":"m 460 -28 q 308 2 375 -28 q 196 85 242 32 q 126 209 150 139 q 101 361 101 279 l 101 397 q 131 639 101 529 q 216 830 161 749 q 347 956 271 911 q 514 1000 422 1000 q 576 993 549 1000 q 626 973 604 986 q 667 940 649 960 q 701 894 689 919 q 720 840 714 869 q 726 778 726 811 q 726 678 726 728 q 726 582 726 629 q 706 576 718 579 q 678 574 693 574 q 615 589 636 574 q 594 636 594 604 q 596 742 594 699 q 595 823 597 785 q 583 904 593 861 l 619 846 q 565 873 590 867 q 518 879 540 879 q 376 815 440 879 q 274 641 311 751 q 236 389 236 531 l 236 360 q 238 289 236 319 q 246 226 240 258 q 333 135 281 171 q 467 99 385 99 q 619 133 554 99 q 731 235 685 168 l 739 235 q 743 220 742 228 q 745 205 744 213 q 747 190 746 197 q 747 175 747 182 q 734 103 747 132 q 700 53 721 74 q 639 8 674 26 q 560 -19 604 -10 q 460 -28 515 -28 m 422 1303 q 437 1303 429 1303 q 452 1303 444 1303 q 467 1303 460 1303 q 515 1297 492 1303 q 576 1267 538 1292 q 624 1234 599 1253 q 672 1193 649 1215 q 717 1144 696 1171 q 758 1088 739 1118 q 724 1076 740 1081 q 683 1072 707 1072 q 647 1080 660 1072 q 617 1106 633 1088 q 543 1171 583 1142 q 431 1232 503 1200 l 510 1215 q 465 1215 488 1215 q 418 1215 442 1215 l 496 1233 q 364 1151 415 1193 q 285 1071 313 1110 l 276 1071 q 225 1074 244 1071 q 197 1085 206 1078 q 189 1101 189 1093 q 197 1126 189 1110 q 226 1167 206 1143 q 267 1207 246 1188 q 314 1244 289 1226 q 366 1277 339 1263 q 422 1303 393 1292 z "},"Ċ":{"ha":833,"x_min":101,"x_max":747,"o":"m 371 1251 q 389 1257 379 1254 q 409 1261 399 1260 q 431 1263 419 1263 q 453 1264 443 1264 q 528 1248 500 1264 q 557 1194 557 1232 l 557 1110 q 540 1105 549 1107 q 522 1101 531 1103 q 502 1099 513 1099 q 481 1099 492 1099 q 401 1120 432 1099 q 371 1178 371 1142 l 371 1251 m 460 -28 q 308 2 375 -28 q 196 85 242 32 q 126 209 150 139 q 101 361 101 279 l 101 397 q 131 639 101 529 q 216 830 161 749 q 347 956 271 911 q 514 1000 422 1000 q 576 993 549 1000 q 626 973 604 986 q 667 940 649 960 q 701 894 689 919 q 720 840 714 869 q 726 778 726 811 q 726 678 726 728 q 726 582 726 629 q 706 576 718 579 q 678 574 693 574 q 615 589 636 574 q 594 636 594 604 q 596 742 594 699 q 595 823 597 785 q 583 904 593 861 l 619 846 q 565 873 590 867 q 518 879 540 879 q 376 815 440 879 q 274 641 311 751 q 236 389 236 531 l 236 360 q 238 289 236 319 q 246 226 240 258 q 333 135 281 171 q 467 99 385 99 q 619 133 554 99 q 731 235 685 168 l 739 235 q 743 220 742 228 q 745 205 744 213 q 747 190 746 197 q 747 175 747 182 q 734 103 747 132 q 700 53 721 74 q 639 8 674 26 q 560 -19 604 -10 q 460 -28 515 -28 z "},"Č":{"ha":833,"x_min":101,"x_max":747,"o":"m 460 -28 q 308 2 375 -28 q 196 85 242 32 q 126 209 150 139 q 101 361 101 279 l 101 397 q 131 639 101 529 q 216 830 161 749 q 347 956 271 911 q 514 1000 422 1000 q 576 993 549 1000 q 626 973 604 986 q 667 940 649 960 q 701 894 689 919 q 720 840 714 869 q 726 778 726 811 q 726 678 726 728 q 726 582 726 629 q 706 576 718 579 q 678 574 693 574 q 615 589 636 574 q 594 636 594 604 q 596 742 594 699 q 595 823 597 785 q 583 904 593 861 l 619 846 q 565 873 590 867 q 518 879 540 879 q 376 815 440 879 q 274 641 311 751 q 236 389 236 531 l 236 360 q 238 289 236 319 q 246 226 240 258 q 333 135 281 171 q 467 99 385 99 q 619 133 554 99 q 731 235 685 168 l 739 235 q 743 220 742 228 q 745 205 744 213 q 747 190 746 197 q 747 175 747 182 q 734 103 747 132 q 700 53 721 74 q 639 8 674 26 q 560 -19 604 -10 q 460 -28 515 -28 m 507 1089 q 494 1089 501 1089 q 478 1089 486 1089 q 463 1089 471 1089 q 415 1095 438 1089 q 353 1125 392 1101 q 306 1159 331 1140 q 257 1199 281 1178 q 212 1248 233 1221 q 171 1306 190 1275 q 206 1317 189 1314 q 246 1319 222 1319 q 283 1312 269 1319 q 313 1286 297 1304 q 386 1222 346 1251 q 499 1160 426 1192 l 419 1178 q 466 1178 443 1178 q 511 1178 489 1178 l 433 1158 q 565 1240 514 1199 q 644 1322 617 1282 l 653 1322 q 705 1318 686 1322 q 732 1307 724 1314 q 740 1292 740 1300 q 733 1266 740 1283 q 703 1226 725 1249 q 662 1185 683 1204 q 615 1148 640 1165 q 563 1116 590 1131 q 507 1089 536 1101 z "},"Ḉ":{"ha":833,"x_min":101,"x_max":747,"o":"m 460 -28 q 308 2 375 -28 q 196 85 242 32 q 126 209 150 139 q 101 361 101 279 l 101 397 q 131 639 101 529 q 216 830 161 749 q 347 956 271 911 q 514 1000 422 1000 q 576 993 549 1000 q 626 973 604 986 q 667 940 649 960 q 701 894 689 919 q 720 840 714 869 q 726 778 726 811 q 726 678 726 728 q 726 582 726 629 q 706 576 718 579 q 678 574 693 574 q 615 589 636 574 q 594 636 594 604 q 596 742 594 699 q 595 823 597 785 q 583 904 593 861 l 619 846 q 565 873 590 867 q 518 879 540 879 q 376 815 440 879 q 274 641 311 751 q 236 389 236 531 l 236 360 q 238 289 236 319 q 246 226 240 258 q 333 135 281 171 q 467 99 385 99 q 619 133 554 99 q 731 235 685 168 l 739 235 q 743 220 742 228 q 745 205 744 213 q 747 190 746 197 q 747 175 747 182 q 734 103 747 132 q 700 53 721 74 q 639 8 674 26 q 560 -19 604 -10 q 460 -28 515 -28 m 603 -182 q 553 -292 603 -251 q 415 -332 503 -332 q 342 -321 369 -332 q 303 -291 315 -310 q 290 -250 290 -272 q 292 -231 290 -240 q 295 -212 293 -222 q 301 -193 297 -203 l 310 -193 q 351 -222 329 -212 q 410 -231 372 -231 q 471 -215 449 -231 q 493 -168 493 -199 q 475 -131 493 -144 q 421 -118 457 -118 q 401 -112 408 -118 q 393 -96 393 -106 q 394 -69 393 -83 q 399 -40 396 -54 q 406 -12 401 -25 q 417 11 411 1 q 429 22 421 18 q 453 28 438 26 q 494 29 468 31 q 489 9 492 21 q 485 -15 486 -3 q 481 -37 483 -26 q 478 -57 479 -49 l 478 -65 q 568 -99 533 -69 q 603 -182 603 -129 m 561 1290 q 599 1289 582 1290 q 631 1285 617 1288 q 658 1278 644 1282 q 678 1258 675 1271 q 676 1231 682 1246 q 656 1189 668 1208 q 626 1151 643 1169 q 588 1118 608 1133 q 544 1090 568 1103 q 508 1075 526 1079 q 467 1071 489 1071 q 442 1073 454 1071 q 417 1079 429 1075 q 392 1090 404 1083 q 469 1152 435 1121 q 526 1217 503 1183 q 561 1290 550 1251 z "},"D":{"ha":833,"x_min":53,"x_max":749,"o":"m 749 533 q 720 310 749 411 q 638 137 692 210 q 508 25 583 64 q 336 -14 432 -14 q 287 -11 310 -14 q 244 -3 264 -8 q 208 9 225 1 q 176 26 190 17 q 153 44 163 35 q 132 76 139 58 q 125 114 125 93 q 125 305 125 208 q 125 500 125 401 q 125 697 125 599 q 125 896 125 796 l 240 896 l 224 854 q 249 814 242 838 q 257 758 257 790 q 257 604 257 683 q 257 446 257 525 q 257 286 257 367 q 257 126 257 206 q 276 120 265 122 q 299 117 286 118 q 325 117 311 117 q 483 167 418 117 q 582 312 547 218 q 617 531 617 406 l 617 550 q 613 665 617 614 q 599 753 608 715 q 574 821 590 792 q 522 851 549 839 q 462 868 494 863 q 389 874 429 874 q 285 869 333 874 q 199 860 238 865 q 135 850 161 854 q 100 846 110 846 q 72 856 83 846 q 57 884 61 865 q 53 931 53 903 q 53 953 53 943 q 56 972 54 963 q 149 986 104 981 q 237 994 194 992 q 319 999 279 997 q 399 1000 360 1000 q 552 974 486 1000 q 661 894 618 947 q 726 760 704 840 q 749 569 749 679 l 749 533 z "},"Ď":{"ha":833,"x_min":53,"x_max":749,"o":"m 443 1089 q 428 1089 436 1089 q 414 1089 421 1089 q 399 1089 407 1089 q 350 1094 374 1089 q 289 1125 326 1100 q 242 1158 267 1139 q 193 1199 217 1176 q 148 1247 169 1221 q 107 1304 126 1274 q 141 1316 124 1313 q 182 1319 158 1319 q 218 1312 204 1319 q 249 1286 232 1304 q 322 1221 282 1250 q 435 1158 363 1192 l 354 1176 q 401 1176 378 1176 q 447 1176 425 1176 l 368 1157 q 501 1240 450 1199 q 581 1321 553 1282 l 589 1321 q 641 1317 622 1321 q 668 1307 660 1314 q 676 1290 676 1300 q 669 1265 676 1282 q 639 1225 661 1249 q 597 1185 619 1204 q 551 1147 575 1165 q 499 1115 526 1129 q 443 1089 472 1100 m 749 533 q 720 310 749 411 q 638 137 692 210 q 508 25 583 64 q 336 -14 432 -14 q 287 -11 310 -14 q 244 -3 264 -8 q 208 9 225 1 q 176 26 190 17 q 153 44 163 35 q 132 76 139 58 q 125 114 125 93 q 125 305 125 208 q 125 500 125 401 q 125 697 125 599 q 125 896 125 796 l 240 896 l 224 854 q 249 815 242 838 q 257 758 257 792 q 257 604 257 683 q 257 446 257 525 q 257 286 257 367 q 257 126 257 206 q 276 120 265 122 q 299 117 286 118 q 325 117 311 117 q 483 167 418 117 q 582 312 547 218 q 617 531 617 406 l 617 550 q 613 665 617 614 q 599 753 608 715 q 574 821 590 792 q 522 851 549 839 q 462 868 494 863 q 389 874 429 874 q 286 869 335 874 q 199 860 238 865 q 135 850 161 854 q 100 846 110 846 q 72 856 83 846 q 57 884 61 865 q 53 931 53 903 q 53 953 53 943 q 56 972 54 963 q 149 986 104 981 q 237 994 194 992 q 319 999 279 997 q 399 1000 360 1000 q 552 974 486 1000 q 661 894 618 947 q 726 760 704 840 q 749 569 749 679 l 749 533 z "},"Ḍ":{"ha":833,"x_min":53,"x_max":749,"o":"m 310 -125 q 326 -122 317 -124 q 343 -120 335 -121 q 361 -119 351 -119 q 379 -119 371 -119 q 453 -133 425 -119 q 482 -183 482 -146 l 482 -274 q 466 -276 475 -275 q 449 -278 457 -278 q 431 -279 440 -279 q 414 -279 422 -279 q 339 -265 368 -279 q 310 -215 310 -251 l 310 -125 m 749 533 q 720 310 749 411 q 638 137 692 210 q 508 25 583 64 q 336 -14 432 -14 q 287 -11 310 -14 q 244 -3 264 -8 q 208 9 225 1 q 176 26 190 17 q 153 44 163 35 q 132 76 139 58 q 125 114 125 93 q 125 305 125 208 q 125 500 125 401 q 125 697 125 599 q 125 896 125 796 l 240 896 l 224 854 q 249 814 242 838 q 257 758 257 790 q 257 604 257 683 q 257 446 257 525 q 257 286 257 367 q 257 126 257 206 q 276 120 265 122 q 299 117 286 118 q 325 117 311 117 q 483 167 418 117 q 582 312 547 218 q 617 531 617 406 l 617 550 q 613 665 617 614 q 599 753 608 715 q 574 821 590 792 q 522 851 549 839 q 462 868 494 863 q 389 874 429 874 q 285 869 333 874 q 199 860 238 865 q 135 850 161 854 q 100 846 110 846 q 72 856 83 846 q 57 884 61 865 q 53 931 53 903 q 53 953 53 943 q 56 972 54 963 q 149 986 104 981 q 237 994 194 992 q 319 999 279 997 q 399 1000 360 1000 q 552 974 486 1000 q 661 894 618 947 q 726 760 704 840 q 749 569 749 679 l 749 533 z "},"Ḏ":{"ha":833,"x_min":53,"x_max":749,"o":"m 124 -156 l 608 -156 q 656 -174 643 -156 q 668 -226 668 -192 q 667 -240 668 -233 q 666 -253 667 -247 q 664 -265 665 -260 l 226 -265 q 161 -256 183 -265 q 131 -226 139 -246 q 124 -175 124 -206 q 124 -168 124 -171 q 124 -162 124 -165 q 124 -156 124 -158 m 749 533 q 720 310 749 411 q 638 137 692 210 q 508 25 583 64 q 336 -14 432 -14 q 287 -11 310 -14 q 244 -3 264 -8 q 208 9 225 1 q 176 26 190 17 q 153 44 163 35 q 132 76 139 58 q 125 114 125 93 q 125 305 125 208 q 125 500 125 401 q 125 697 125 599 q 125 896 125 796 l 240 896 l 224 854 q 249 814 242 838 q 257 758 257 790 q 257 604 257 683 q 257 446 257 525 q 257 286 257 367 q 257 126 257 206 q 276 120 265 122 q 299 117 286 118 q 325 117 311 117 q 483 167 418 117 q 582 312 547 218 q 617 531 617 406 l 617 550 q 613 665 617 614 q 599 753 608 715 q 574 821 590 792 q 522 851 549 839 q 462 868 494 863 q 389 874 429 874 q 285 869 333 874 q 199 860 238 865 q 135 850 161 854 q 100 846 110 846 q 72 856 83 846 q 57 884 61 865 q 53 931 53 903 q 53 953 53 943 q 56 972 54 963 q 149 986 104 981 q 237 994 194 992 q 319 999 279 997 q 399 1000 360 1000 q 552 974 486 1000 q 661 894 618 947 q 726 760 704 840 q 749 569 749 679 l 749 533 z "},"E":{"ha":833,"x_min":58,"x_max":743,"o":"m 61 972 l 679 972 q 718 958 704 972 q 737 926 732 944 q 742 892 742 907 q 740 865 742 876 q 735 846 739 854 l 103 846 q 77 858 88 846 q 63 891 67 871 q 58 932 58 911 q 59 952 58 942 q 61 972 60 963 m 207 515 l 583 515 q 620 503 606 515 q 642 470 635 490 q 649 428 649 450 q 648 417 649 422 q 647 408 647 413 q 646 400 647 404 l 207 400 l 207 515 m 254 0 q 206 10 229 0 q 166 38 183 21 q 140 76 149 56 q 131 119 131 97 q 131 272 131 193 q 131 429 131 350 q 131 585 131 508 q 131 737 131 663 q 131 879 131 811 l 247 879 l 229 839 q 255 800 247 824 q 263 742 263 776 q 263 590 263 668 q 263 435 263 513 q 263 279 263 357 q 263 126 263 201 l 651 126 q 718 108 693 126 q 743 46 743 90 q 742 21 743 33 q 738 0 740 8 l 254 0 z "},"È":{"ha":833,"x_min":58,"x_max":743,"o":"m 61 972 l 679 972 q 718 958 704 972 q 737 926 732 944 q 742 892 742 907 q 740 865 742 876 q 735 846 739 854 l 103 846 q 77 858 88 846 q 63 891 67 871 q 58 932 58 911 q 59 952 58 942 q 61 972 60 963 m 207 515 l 583 515 q 620 503 606 515 q 642 470 635 490 q 649 428 649 450 q 648 417 649 422 q 647 408 647 413 q 646 400 647 404 l 207 400 l 207 515 m 254 0 q 206 10 229 0 q 166 38 183 21 q 140 76 149 56 q 131 119 131 97 q 131 272 131 193 q 131 429 131 350 q 131 585 131 508 q 131 737 131 663 q 131 879 131 811 l 247 879 l 229 839 q 255 800 247 824 q 263 742 263 776 q 263 590 263 668 q 263 435 263 513 q 263 279 263 357 q 263 126 263 201 l 651 126 q 718 108 693 126 q 743 46 743 90 q 742 21 743 33 q 738 0 740 8 l 254 0 m 319 1299 q 355 1225 332 1260 q 412 1160 378 1190 q 489 1097 446 1129 q 464 1088 476 1092 q 440 1081 451 1083 q 414 1079 428 1079 q 376 1083 393 1079 q 340 1097 358 1086 q 296 1125 317 1110 q 258 1158 275 1140 q 227 1197 240 1176 q 206 1236 214 1217 q 201 1265 199 1253 q 219 1285 204 1278 q 249 1294 233 1290 q 281 1299 264 1297 q 319 1299 299 1300 z "},"É":{"ha":833,"x_min":58,"x_max":743,"o":"m 61 972 l 679 972 q 718 958 704 972 q 737 926 732 944 q 742 892 742 907 q 740 865 742 876 q 735 846 739 854 l 103 846 q 77 858 88 846 q 63 891 67 871 q 58 932 58 911 q 59 952 58 942 q 61 972 60 963 m 207 515 l 583 515 q 620 503 606 515 q 642 470 635 490 q 649 428 649 450 q 648 417 649 422 q 647 408 647 413 q 646 400 647 404 l 207 400 l 207 515 m 254 0 q 206 10 229 0 q 166 38 183 21 q 140 76 149 56 q 131 119 131 97 q 131 272 131 193 q 131 429 131 350 q 131 585 131 508 q 131 737 131 663 q 131 879 131 811 l 247 879 l 229 839 q 255 800 247 824 q 263 742 263 776 q 263 590 263 668 q 263 435 263 513 q 263 279 263 357 q 263 126 263 201 l 651 126 q 718 108 693 126 q 743 46 743 90 q 742 21 743 33 q 738 0 740 8 l 254 0 m 514 1290 q 552 1289 535 1290 q 583 1285 569 1288 q 611 1278 597 1282 q 631 1258 628 1271 q 629 1231 635 1246 q 608 1189 621 1208 q 578 1151 596 1169 q 541 1118 561 1133 q 497 1090 521 1103 q 460 1075 479 1079 q 419 1071 442 1071 q 394 1073 407 1071 q 369 1079 382 1075 q 344 1090 357 1083 q 422 1152 388 1121 q 479 1217 456 1183 q 514 1290 503 1251 z "},"Ê":{"ha":833,"x_min":58,"x_max":743,"o":"m 61 972 l 679 972 q 718 958 704 972 q 737 926 732 944 q 742 892 742 907 q 740 865 742 876 q 735 846 739 854 l 103 846 q 77 858 88 846 q 63 891 67 871 q 58 932 58 911 q 59 952 58 942 q 61 972 60 963 m 207 515 l 583 515 q 620 503 606 515 q 642 470 635 490 q 649 428 649 450 q 648 417 649 422 q 647 408 647 413 q 646 400 647 404 l 207 400 l 207 515 m 254 0 q 206 10 229 0 q 166 38 183 21 q 140 76 149 56 q 131 119 131 97 q 131 272 131 193 q 131 429 131 350 q 131 585 131 508 q 131 737 131 663 q 131 879 131 811 l 247 879 l 229 839 q 255 800 247 824 q 263 742 263 776 q 263 590 263 668 q 263 435 263 513 q 263 279 263 357 q 263 126 263 201 l 651 126 q 718 108 693 126 q 743 46 743 90 q 742 21 743 33 q 738 0 740 8 l 254 0 m 375 1303 q 390 1303 382 1303 q 405 1303 397 1303 q 419 1303 413 1303 q 467 1297 444 1303 q 529 1267 490 1292 q 576 1234 551 1253 q 625 1193 601 1215 q 670 1144 649 1171 q 711 1088 692 1118 q 676 1076 693 1081 q 636 1072 660 1072 q 599 1080 613 1072 q 569 1106 586 1088 q 496 1171 536 1142 q 383 1232 456 1200 l 463 1215 q 417 1215 440 1215 q 371 1215 394 1215 l 449 1233 q 317 1151 368 1193 q 238 1071 265 1110 l 229 1071 q 178 1074 197 1071 q 150 1085 158 1078 q 142 1101 142 1093 q 150 1126 142 1110 q 179 1167 158 1143 q 220 1207 199 1188 q 267 1244 242 1226 q 319 1277 292 1263 q 375 1303 346 1292 z "},"Ë":{"ha":833,"x_min":58,"x_max":743,"o":"m 61 972 l 679 972 q 718 958 704 972 q 737 926 732 944 q 742 892 742 907 q 740 865 742 876 q 735 846 739 854 l 103 846 q 77 858 88 846 q 63 891 67 871 q 58 932 58 911 q 59 952 58 942 q 61 972 60 963 m 207 515 l 583 515 q 620 503 606 515 q 642 470 635 490 q 649 428 649 450 q 648 417 649 422 q 647 408 647 413 q 646 400 647 404 l 207 400 l 207 515 m 254 0 q 206 10 229 0 q 166 38 183 21 q 140 76 149 56 q 131 119 131 97 q 131 272 131 193 q 131 429 131 350 q 131 585 131 508 q 131 737 131 663 q 131 879 131 811 l 247 879 l 229 839 q 255 800 247 824 q 263 742 263 776 q 263 590 263 668 q 263 435 263 513 q 263 279 263 357 q 263 126 263 201 l 651 126 q 718 108 693 126 q 743 46 743 90 q 742 21 743 33 q 738 0 740 8 l 254 0 m 194 1261 q 225 1265 208 1264 q 256 1265 242 1265 q 303 1260 282 1265 q 337 1243 324 1256 q 350 1208 350 1231 l 350 1110 q 319 1107 336 1108 q 288 1106 303 1106 q 242 1111 264 1106 q 208 1129 221 1117 q 194 1164 194 1142 l 194 1261 m 483 1261 q 514 1265 497 1264 q 544 1265 531 1265 q 592 1260 571 1265 q 626 1243 613 1256 q 639 1208 639 1231 l 639 1110 q 608 1107 625 1108 q 576 1106 592 1106 q 531 1111 553 1106 q 497 1129 510 1117 q 483 1164 483 1142 l 483 1261 z "},"Ē":{"ha":833,"x_min":58,"x_max":743,"o":"m 61 972 l 679 972 q 718 958 704 972 q 737 926 732 944 q 742 892 742 907 q 740 865 742 876 q 735 846 739 854 l 103 846 q 77 858 88 846 q 63 891 67 871 q 58 932 58 911 q 59 952 58 942 q 61 972 60 963 m 207 515 l 583 515 q 620 503 606 515 q 642 470 635 490 q 649 428 649 450 q 648 417 649 422 q 647 408 647 413 q 646 400 647 404 l 207 400 l 207 515 m 254 0 q 206 10 229 0 q 166 38 183 21 q 140 76 149 56 q 131 119 131 97 q 131 272 131 193 q 131 429 131 350 q 131 585 131 508 q 131 737 131 663 q 131 879 131 811 l 247 879 l 229 839 q 255 800 247 824 q 263 742 263 776 q 263 590 263 668 q 263 435 263 513 q 263 279 263 357 q 263 126 263 201 l 651 126 q 718 108 693 126 q 743 46 743 90 q 742 21 743 33 q 738 0 740 8 l 254 0 m 143 1226 l 628 1226 q 676 1209 664 1226 q 689 1156 689 1192 q 688 1135 689 1146 q 685 1117 686 1125 l 246 1117 q 182 1126 204 1117 q 151 1156 160 1136 q 143 1207 143 1176 q 143 1217 143 1213 q 143 1226 143 1222 z "},"Ĕ":{"ha":833,"x_min":58,"x_max":743,"o":"m 61 972 l 679 972 q 718 958 704 972 q 737 926 732 944 q 742 892 742 907 q 740 865 742 876 q 735 846 739 854 l 103 846 q 77 858 88 846 q 63 891 67 871 q 58 932 58 911 q 59 952 58 942 q 61 972 60 963 m 207 515 l 583 515 q 620 503 606 515 q 642 470 635 490 q 649 428 649 450 q 648 417 649 422 q 647 408 647 413 q 646 400 647 404 l 207 400 l 207 515 m 254 0 q 206 10 229 0 q 166 38 183 21 q 140 76 149 56 q 131 119 131 97 q 131 272 131 193 q 131 429 131 350 q 131 585 131 508 q 131 737 131 663 q 131 879 131 811 l 247 879 l 229 839 q 255 800 247 824 q 263 742 263 776 q 263 590 263 668 q 263 435 263 513 q 263 279 263 357 q 263 126 263 201 l 651 126 q 718 108 693 126 q 743 46 743 90 q 742 21 743 33 q 738 0 740 8 l 254 0 m 581 1306 q 622 1301 604 1306 q 653 1288 639 1296 q 663 1272 661 1281 q 660 1250 665 1263 q 613 1171 644 1204 q 533 1119 581 1138 q 422 1101 486 1101 l 411 1101 q 301 1119 349 1101 q 221 1171 253 1138 q 174 1250 189 1204 q 170 1272 168 1263 q 181 1288 172 1281 q 212 1301 194 1296 q 253 1306 229 1306 q 311 1230 274 1256 q 417 1199 349 1204 q 522 1230 485 1204 q 581 1306 560 1256 z "},"Ė":{"ha":833,"x_min":58,"x_max":743,"o":"m 324 1253 q 342 1258 332 1256 q 362 1262 351 1260 q 384 1264 372 1264 q 406 1264 396 1264 q 481 1248 453 1264 q 510 1194 510 1232 l 510 1111 q 492 1106 501 1108 q 474 1101 483 1103 q 455 1099 465 1100 q 433 1099 444 1099 q 354 1120 385 1099 q 324 1178 324 1142 l 324 1253 m 61 972 l 679 972 q 718 958 704 972 q 737 926 732 944 q 742 892 742 907 q 740 865 742 876 q 735 846 739 854 l 103 846 q 77 858 88 846 q 63 891 67 871 q 58 932 58 911 q 59 952 58 942 q 61 972 60 963 m 207 515 l 583 515 q 620 503 606 515 q 642 470 635 490 q 649 428 649 450 q 648 417 649 422 q 647 408 647 413 q 646 400 647 404 l 207 400 l 207 515 m 254 0 q 206 10 229 0 q 166 38 183 21 q 140 76 149 56 q 131 119 131 97 q 131 272 131 193 q 131 429 131 350 q 131 585 131 508 q 131 737 131 663 q 131 879 131 811 l 247 879 l 229 839 q 255 800 247 824 q 263 742 263 776 q 263 590 263 668 q 263 435 263 513 q 263 279 263 357 q 263 126 263 201 l 651 126 q 718 108 693 126 q 743 46 743 90 q 742 21 743 33 q 738 0 740 8 l 254 0 z "},"Ę":{"ha":833,"x_min":58,"x_max":746,"o":"m 61 972 l 679 972 q 718 958 704 972 q 737 926 732 944 q 742 892 742 907 q 740 865 742 876 q 735 846 739 854 l 103 846 q 77 858 88 846 q 63 891 67 871 q 58 932 58 911 q 59 952 58 942 q 61 972 60 963 m 207 515 l 583 515 q 620 503 606 515 q 642 470 635 490 q 649 428 649 450 q 648 417 649 422 q 647 408 647 413 q 646 400 647 404 l 207 400 l 207 515 m 254 0 q 206 10 229 0 q 166 38 183 21 q 140 76 149 56 q 131 119 131 97 q 131 272 131 193 q 131 429 131 350 q 131 585 131 508 q 131 737 131 663 q 131 879 131 811 l 247 879 l 229 839 q 255 800 247 824 q 263 742 263 776 q 263 590 263 668 q 263 435 263 513 q 263 279 263 357 q 263 126 263 201 l 651 126 q 718 108 693 126 q 743 46 743 90 q 742 21 743 33 q 738 0 740 8 l 254 0 m 678 46 q 699 39 686 47 q 739 0 713 31 q 721 -10 732 -6 q 696 -18 710 -14 q 595 -72 631 -36 q 560 -153 560 -107 q 578 -202 560 -186 q 632 -218 597 -218 q 681 -210 658 -218 q 725 -186 703 -203 l 733 -186 q 742 -205 739 -196 q 745 -222 744 -214 q 746 -243 746 -231 q 709 -317 746 -292 q 611 -342 672 -342 q 488 -301 532 -342 q 443 -186 443 -261 q 472 -78 443 -125 q 553 1 500 -31 q 678 46 606 32 z "},"Ě":{"ha":833,"x_min":58,"x_max":743,"o":"m 460 1089 q 447 1089 454 1089 q 431 1089 439 1089 q 415 1089 424 1089 q 367 1095 390 1089 q 306 1125 344 1101 q 258 1159 283 1140 q 210 1199 233 1178 q 165 1248 186 1221 q 124 1306 143 1275 q 158 1317 142 1314 q 199 1319 175 1319 q 236 1312 222 1319 q 265 1286 250 1304 q 339 1222 299 1251 q 451 1160 379 1192 l 372 1178 q 419 1178 396 1178 q 464 1178 442 1178 l 386 1158 q 518 1240 467 1199 q 597 1322 569 1282 l 606 1322 q 658 1318 639 1322 q 685 1307 676 1314 q 693 1292 693 1300 q 685 1266 693 1283 q 656 1226 678 1249 q 615 1185 636 1204 q 568 1148 593 1165 q 516 1116 543 1131 q 460 1089 489 1101 m 61 972 l 679 972 q 718 958 704 972 q 737 926 732 944 q 742 892 742 907 q 740 865 742 876 q 735 846 739 854 l 103 846 q 77 858 88 846 q 63 891 67 871 q 58 932 58 911 q 59 952 58 942 q 61 972 60 963 m 207 515 l 583 515 q 620 503 606 515 q 642 470 635 490 q 649 428 649 450 q 648 417 649 422 q 647 408 647 413 q 646 400 647 404 l 207 400 l 207 515 m 254 0 q 206 10 229 0 q 166 38 183 21 q 140 76 149 56 q 131 119 131 97 q 131 272 131 193 q 131 429 131 350 q 131 585 131 508 q 131 737 131 663 q 131 879 131 811 l 247 879 l 229 839 q 255 799 247 822 q 263 742 263 776 q 263 590 263 668 q 263 435 263 513 q 263 279 263 357 q 263 126 263 201 l 651 126 q 718 108 693 126 q 743 46 743 90 q 742 21 743 33 q 738 0 740 8 l 254 0 z "},"Ȅ":{"ha":833,"x_min":58,"x_max":743,"o":"m 206 1300 q 240 1226 218 1260 q 297 1160 263 1192 q 375 1099 331 1129 q 349 1088 361 1092 q 325 1082 338 1083 q 299 1081 313 1081 q 262 1084 279 1081 q 225 1097 244 1088 q 181 1126 201 1110 q 143 1159 161 1142 q 112 1197 125 1176 q 90 1238 99 1217 q 88 1265 85 1253 q 106 1285 90 1278 q 134 1294 119 1292 q 167 1299 149 1297 q 206 1300 185 1300 m 469 1300 q 506 1226 483 1260 q 562 1160 528 1192 q 639 1099 596 1129 q 615 1088 626 1092 q 590 1082 603 1083 q 564 1081 578 1081 q 527 1084 544 1081 q 490 1097 510 1088 q 446 1126 467 1110 q 408 1159 425 1142 q 377 1197 390 1176 q 356 1238 364 1217 q 351 1265 349 1253 q 371 1285 354 1278 q 399 1294 383 1292 q 431 1299 414 1297 q 469 1300 449 1300 m 61 972 l 679 972 q 718 958 704 972 q 737 926 732 944 q 742 892 742 907 q 740 865 742 876 q 735 846 739 854 l 103 846 q 77 858 88 846 q 63 891 67 871 q 58 932 58 911 q 59 952 58 942 q 61 972 60 963 m 207 515 l 583 515 q 620 503 606 515 q 642 470 635 490 q 649 428 649 450 q 648 417 649 422 q 647 408 647 413 q 646 400 647 404 l 207 400 l 207 515 m 254 0 q 206 10 229 0 q 166 38 183 21 q 140 76 149 56 q 131 119 131 97 q 131 272 131 193 q 131 429 131 350 q 131 585 131 508 q 131 737 131 663 q 131 879 131 811 l 247 879 l 229 839 q 255 799 247 822 q 263 742 263 776 q 263 590 263 668 q 263 435 263 513 q 263 279 263 357 q 263 126 263 201 l 651 126 q 718 108 693 126 q 743 46 743 90 q 742 21 743 33 q 738 0 740 8 l 254 0 z "},"Ȇ":{"ha":833,"x_min":58,"x_max":743,"o":"m 253 1093 q 212 1099 229 1094 q 181 1113 194 1104 q 170 1127 172 1118 q 174 1149 168 1136 q 221 1228 189 1196 q 301 1279 253 1261 q 411 1297 349 1297 l 422 1297 q 533 1279 486 1297 q 613 1228 581 1261 q 660 1149 644 1196 q 663 1127 665 1136 q 653 1113 661 1118 q 622 1099 639 1104 q 581 1093 604 1094 q 522 1170 560 1144 q 417 1200 485 1196 q 311 1170 349 1196 q 253 1093 274 1144 m 61 972 l 679 972 q 718 958 704 972 q 737 926 732 944 q 742 892 742 907 q 740 865 742 876 q 735 846 739 854 l 103 846 q 77 858 88 846 q 63 891 67 871 q 58 932 58 911 q 59 952 58 942 q 61 972 60 963 m 207 515 l 583 515 q 620 503 606 515 q 642 470 635 490 q 649 428 649 450 q 648 417 649 422 q 647 408 647 413 q 646 400 647 404 l 207 400 l 207 515 m 254 0 q 206 10 229 0 q 166 38 183 21 q 140 76 149 56 q 131 119 131 97 q 131 272 131 193 q 131 429 131 350 q 131 585 131 508 q 131 737 131 663 q 131 879 131 811 l 247 879 l 229 839 q 255 799 247 822 q 263 742 263 776 q 263 590 263 668 q 263 435 263 513 q 263 279 263 357 q 263 126 263 201 l 651 126 q 718 108 693 126 q 743 46 743 90 q 742 21 743 33 q 738 0 740 8 l 254 0 z "},"Ḕ":{"ha":833,"x_min":58,"x_max":743,"o":"m 61 972 l 679 972 q 718 958 704 972 q 737 926 732 944 q 742 892 742 907 q 740 865 742 876 q 735 846 739 854 l 103 846 q 77 858 88 846 q 63 891 67 871 q 58 932 58 911 q 59 952 58 942 q 61 972 60 963 m 207 515 l 583 515 q 620 503 606 515 q 642 470 635 490 q 649 428 649 450 q 648 417 649 422 q 647 408 647 413 q 646 400 647 404 l 207 400 l 207 515 m 254 0 q 206 10 229 0 q 166 38 183 21 q 140 76 149 56 q 131 119 131 97 q 131 272 131 193 q 131 429 131 350 q 131 585 131 508 q 131 737 131 663 q 131 879 131 811 l 247 879 l 229 839 q 255 800 247 824 q 263 742 263 776 q 263 590 263 668 q 263 435 263 513 q 263 279 263 357 q 263 126 263 201 l 651 126 q 718 108 693 126 q 743 46 743 90 q 742 21 743 33 q 738 0 740 8 l 254 0 m 143 1226 l 628 1226 q 676 1209 664 1226 q 689 1156 689 1192 q 688 1135 689 1146 q 685 1117 686 1125 l 246 1117 q 182 1126 204 1117 q 151 1156 160 1136 q 143 1207 143 1176 q 143 1217 143 1213 q 143 1226 143 1222 m 319 1508 q 355 1435 332 1469 q 412 1369 378 1400 q 489 1307 446 1339 q 464 1297 476 1301 q 440 1291 451 1293 q 414 1289 428 1289 q 376 1292 393 1289 q 340 1307 358 1296 q 296 1335 317 1319 q 258 1368 275 1350 q 227 1406 240 1386 q 206 1446 214 1426 q 201 1475 199 1463 q 219 1494 204 1488 q 249 1503 233 1500 q 281 1508 264 1507 q 319 1508 299 1510 z "},"Ḗ":{"ha":833,"x_min":58,"x_max":743,"o":"m 61 972 l 679 972 q 718 958 704 972 q 737 926 732 944 q 742 892 742 907 q 740 865 742 876 q 735 846 739 854 l 103 846 q 77 858 88 846 q 63 891 67 871 q 58 932 58 911 q 59 952 58 942 q 61 972 60 963 m 207 515 l 583 515 q 620 503 606 515 q 642 470 635 490 q 649 428 649 450 q 648 417 649 422 q 647 408 647 413 q 646 400 647 404 l 207 400 l 207 515 m 254 0 q 206 10 229 0 q 166 38 183 21 q 140 76 149 56 q 131 119 131 97 q 131 272 131 193 q 131 429 131 350 q 131 585 131 508 q 131 737 131 663 q 131 879 131 811 l 247 879 l 229 839 q 255 800 247 824 q 263 742 263 776 q 263 590 263 668 q 263 435 263 513 q 263 279 263 357 q 263 126 263 201 l 651 126 q 718 108 693 126 q 743 46 743 90 q 742 21 743 33 q 738 0 740 8 l 254 0 m 143 1226 l 628 1226 q 676 1209 664 1226 q 689 1156 689 1192 q 688 1135 689 1146 q 685 1117 686 1125 l 246 1117 q 182 1126 204 1117 q 151 1156 160 1136 q 143 1207 143 1176 q 143 1217 143 1213 q 143 1226 143 1222 m 514 1500 q 552 1499 535 1500 q 583 1494 569 1497 q 611 1488 597 1492 q 631 1468 628 1481 q 629 1440 635 1456 q 608 1399 621 1418 q 578 1361 596 1379 q 541 1328 561 1343 q 497 1300 521 1313 q 460 1285 479 1289 q 419 1281 442 1281 q 394 1283 407 1281 q 369 1289 382 1285 q 344 1300 357 1293 q 422 1362 388 1331 q 479 1427 456 1393 q 514 1500 503 1461 z "},"Ḝ":{"ha":833,"x_min":58,"x_max":743,"o":"m 61 972 l 679 972 q 718 958 704 972 q 737 926 732 944 q 742 892 742 907 q 740 865 742 876 q 735 846 739 854 l 103 846 q 77 858 88 846 q 63 891 67 871 q 58 932 58 911 q 59 952 58 942 q 61 972 60 963 m 207 515 l 583 515 q 620 503 606 515 q 642 470 635 490 q 649 428 649 450 q 648 417 649 422 q 647 408 647 413 q 646 400 647 404 l 207 400 l 207 515 m 254 0 q 206 10 229 0 q 166 38 183 21 q 140 76 149 56 q 131 119 131 97 q 131 272 131 193 q 131 429 131 350 q 131 585 131 508 q 131 737 131 663 q 131 879 131 811 l 247 879 l 229 839 q 255 800 247 824 q 263 742 263 776 q 263 590 263 668 q 263 435 263 513 q 263 279 263 357 q 263 126 263 201 l 651 126 q 718 108 693 126 q 743 46 743 90 q 742 21 743 33 q 738 0 740 8 l 254 0 m 599 -175 q 549 -285 599 -244 q 411 -325 499 -325 q 338 -314 365 -325 q 299 -284 311 -303 q 286 -243 286 -265 q 288 -224 286 -233 q 291 -206 289 -215 q 297 -186 293 -196 l 306 -186 q 347 -215 325 -206 q 406 -224 368 -224 q 467 -208 444 -224 q 489 -161 489 -192 q 471 -124 489 -137 q 417 -111 453 -111 q 397 -105 404 -111 q 389 -89 389 -99 q 390 -62 389 -76 q 394 -33 392 -47 q 402 -5 397 -18 q 413 18 407 8 q 425 29 417 25 q 449 35 433 33 q 490 36 464 38 q 485 16 488 28 q 481 -8 482 4 q 477 -31 479 -19 q 474 -50 475 -42 l 474 -58 q 564 -92 529 -62 q 599 -175 599 -122 m 581 1306 q 622 1301 604 1306 q 653 1288 639 1296 q 663 1272 661 1281 q 660 1250 665 1263 q 613 1171 644 1204 q 533 1119 581 1138 q 422 1101 486 1101 l 411 1101 q 301 1119 349 1101 q 221 1171 253 1138 q 174 1250 189 1204 q 170 1272 168 1263 q 181 1288 172 1281 q 212 1301 194 1296 q 253 1306 229 1306 q 311 1230 274 1256 q 417 1199 349 1204 q 522 1230 485 1204 q 581 1306 560 1256 z "},"Ẹ":{"ha":833,"x_min":58,"x_max":743,"o":"m 61 972 l 679 972 q 718 958 704 972 q 737 926 732 944 q 742 892 742 907 q 740 865 742 876 q 735 846 739 854 l 103 846 q 77 858 88 846 q 63 891 67 871 q 58 932 58 911 q 59 952 58 942 q 61 972 60 963 m 207 515 l 583 515 q 620 503 606 515 q 642 470 635 490 q 649 428 649 450 q 648 417 649 422 q 647 408 647 413 q 646 400 647 404 l 207 400 l 207 515 m 254 0 q 206 10 229 0 q 166 38 183 21 q 140 76 149 56 q 131 119 131 97 q 131 272 131 193 q 131 429 131 350 q 131 585 131 508 q 131 737 131 663 q 131 879 131 811 l 247 879 l 229 839 q 255 800 247 824 q 263 742 263 776 q 263 590 263 668 q 263 435 263 513 q 263 279 263 357 q 263 126 263 201 l 651 126 q 718 108 693 126 q 743 46 743 90 q 742 21 743 33 q 738 0 740 8 l 254 0 m 367 -125 q 383 -122 374 -124 q 400 -120 392 -121 q 417 -119 408 -119 q 436 -119 426 -119 q 510 -133 482 -119 q 539 -183 539 -146 l 539 -274 q 523 -276 532 -275 q 506 -278 514 -278 q 488 -279 497 -279 q 469 -279 479 -279 q 396 -265 425 -279 q 367 -215 367 -251 l 367 -125 z "},"Ẻ":{"ha":833,"x_min":58,"x_max":743,"o":"m 61 972 l 679 972 q 718 958 704 972 q 737 926 732 944 q 742 892 742 907 q 740 865 742 876 q 735 846 739 854 l 103 846 q 77 858 88 846 q 63 891 67 871 q 58 932 58 911 q 59 952 58 942 q 61 972 60 963 m 207 515 l 583 515 q 620 503 606 515 q 642 470 635 490 q 649 428 649 450 q 648 417 649 422 q 647 408 647 413 q 646 400 647 404 l 207 400 l 207 515 m 254 0 q 206 10 229 0 q 166 38 183 21 q 140 76 149 56 q 131 119 131 97 q 131 272 131 193 q 131 429 131 350 q 131 585 131 508 q 131 737 131 663 q 131 879 131 811 l 247 879 l 229 839 q 255 800 247 824 q 263 742 263 776 q 263 590 263 668 q 263 435 263 513 q 263 279 263 357 q 263 126 263 201 l 651 126 q 718 108 693 126 q 743 46 743 90 q 742 21 743 33 q 738 0 740 8 l 254 0 m 346 1078 q 362 1114 346 1097 q 419 1146 378 1131 q 473 1169 458 1160 q 488 1193 488 1179 q 488 1201 488 1197 q 486 1208 488 1204 q 459 1215 474 1214 q 426 1217 444 1217 q 345 1205 379 1217 q 283 1167 311 1193 l 275 1167 q 267 1188 269 1178 q 264 1214 264 1199 q 270 1249 264 1233 q 290 1276 276 1264 q 311 1291 300 1285 q 338 1302 322 1297 q 372 1309 353 1307 q 415 1311 392 1311 q 504 1297 469 1311 q 556 1257 539 1282 q 574 1200 574 1232 l 574 1197 q 558 1150 574 1168 q 508 1113 543 1132 q 460 1079 471 1092 q 447 1049 450 1067 q 433 1045 442 1047 q 417 1042 425 1043 q 400 1042 408 1042 q 359 1052 372 1042 q 346 1078 346 1063 z "},"Ẽ":{"ha":833,"x_min":58,"x_max":743,"o":"m 61 972 l 679 972 q 718 958 704 972 q 737 926 732 944 q 742 892 742 907 q 740 865 742 876 q 735 846 739 854 l 103 846 q 77 858 88 846 q 63 891 67 871 q 58 932 58 911 q 59 952 58 942 q 61 972 60 963 m 207 515 l 583 515 q 620 503 606 515 q 642 470 635 490 q 649 428 649 450 q 648 417 649 422 q 647 408 647 413 q 646 400 647 404 l 207 400 l 207 515 m 254 0 q 206 10 229 0 q 166 38 183 21 q 140 76 149 56 q 131 119 131 97 q 131 272 131 193 q 131 429 131 350 q 131 585 131 508 q 131 737 131 663 q 131 879 131 811 l 247 879 l 229 839 q 255 800 247 824 q 263 742 263 776 q 263 590 263 668 q 263 435 263 513 q 263 279 263 357 q 263 126 263 201 l 651 126 q 718 108 693 126 q 743 46 743 90 q 742 21 743 33 q 738 0 740 8 l 254 0 m 554 1196 q 619 1212 590 1196 q 675 1260 647 1228 l 683 1260 q 690 1237 688 1251 q 692 1210 692 1222 q 688 1174 692 1188 q 679 1149 685 1160 q 637 1106 665 1121 q 565 1090 608 1090 q 492 1106 528 1090 q 421 1141 456 1121 q 350 1176 386 1161 q 276 1192 314 1192 q 213 1176 240 1192 q 156 1128 185 1161 l 147 1128 q 141 1152 143 1139 q 139 1178 139 1165 q 142 1213 139 1200 q 151 1238 146 1226 q 194 1281 165 1265 q 265 1297 222 1297 q 339 1282 303 1297 q 410 1247 375 1267 q 481 1211 446 1226 q 554 1196 517 1196 z "},"Ế":{"ha":833,"x_min":58,"x_max":824,"o":"m 61 972 l 679 972 q 718 958 704 972 q 737 926 732 944 q 742 892 742 907 q 740 865 742 876 q 735 846 739 854 l 103 846 q 77 858 88 846 q 63 891 67 871 q 58 932 58 911 q 59 952 58 942 q 61 972 60 963 m 207 515 l 583 515 q 620 503 606 515 q 642 470 635 490 q 649 428 649 450 q 648 417 649 422 q 647 408 647 413 q 646 400 647 404 l 207 400 l 207 515 m 254 0 q 206 10 229 0 q 166 38 183 21 q 140 76 149 56 q 131 119 131 97 q 131 272 131 193 q 131 429 131 350 q 131 585 131 508 q 131 737 131 663 q 131 879 131 811 l 247 879 l 229 839 q 255 800 247 824 q 263 742 263 776 q 263 590 263 668 q 263 435 263 513 q 263 279 263 357 q 263 126 263 201 l 651 126 q 718 108 693 126 q 743 46 743 90 q 742 21 743 33 q 738 0 740 8 l 254 0 m 375 1303 q 390 1303 382 1303 q 405 1303 397 1303 q 419 1303 413 1303 q 467 1297 444 1303 q 529 1267 490 1292 q 576 1234 551 1253 q 625 1193 601 1215 q 670 1144 649 1171 q 711 1088 692 1118 q 676 1076 693 1081 q 636 1072 660 1072 q 599 1080 613 1072 q 569 1106 586 1088 q 496 1171 536 1142 q 383 1232 456 1200 l 463 1215 q 417 1215 440 1215 q 371 1215 394 1215 l 449 1233 q 317 1151 368 1193 q 238 1071 265 1110 l 229 1071 q 178 1074 197 1071 q 150 1085 158 1078 q 142 1101 142 1093 q 150 1126 142 1110 q 179 1167 158 1143 q 220 1207 199 1188 q 267 1244 242 1226 q 319 1277 292 1263 q 375 1303 346 1292 m 721 1493 q 749 1492 736 1493 q 775 1488 763 1490 q 799 1483 788 1486 q 820 1463 817 1478 q 815 1424 824 1447 q 792 1378 806 1400 q 762 1337 779 1356 q 724 1300 744 1318 q 690 1281 706 1288 q 654 1274 674 1274 q 631 1276 642 1274 q 608 1282 619 1278 q 585 1292 597 1286 q 644 1349 618 1318 q 690 1417 671 1381 q 721 1493 710 1453 z "},"Ề":{"ha":833,"x_min":58,"x_max":743,"o":"m 61 972 l 679 972 q 718 958 704 972 q 737 926 732 944 q 742 892 742 907 q 740 865 742 876 q 735 846 739 854 l 103 846 q 77 858 88 846 q 63 891 67 871 q 58 932 58 911 q 59 952 58 942 q 61 972 60 963 m 207 515 l 583 515 q 620 503 606 515 q 642 470 635 490 q 649 428 649 450 q 648 417 649 422 q 647 408 647 413 q 646 400 647 404 l 207 400 l 207 515 m 254 0 q 206 10 229 0 q 166 38 183 21 q 140 76 149 56 q 131 119 131 97 q 131 272 131 193 q 131 429 131 350 q 131 585 131 508 q 131 737 131 663 q 131 879 131 811 l 247 879 l 229 839 q 255 800 247 824 q 263 742 263 776 q 263 590 263 668 q 263 435 263 513 q 263 279 263 357 q 263 126 263 201 l 651 126 q 718 108 693 126 q 743 46 743 90 q 742 21 743 33 q 738 0 740 8 l 254 0 m 375 1303 q 390 1303 382 1303 q 405 1303 397 1303 q 419 1303 413 1303 q 467 1297 444 1303 q 529 1267 490 1292 q 576 1234 551 1253 q 625 1193 601 1215 q 670 1144 649 1171 q 711 1088 692 1118 q 676 1076 693 1081 q 636 1072 660 1072 q 599 1080 613 1072 q 569 1106 586 1088 q 496 1171 536 1142 q 383 1232 456 1200 l 463 1215 q 417 1215 440 1215 q 371 1215 394 1215 l 449 1233 q 317 1151 368 1193 q 238 1071 265 1110 l 229 1071 q 178 1074 197 1071 q 150 1085 158 1078 q 142 1101 142 1093 q 150 1126 142 1110 q 179 1167 158 1143 q 220 1207 199 1188 q 267 1244 242 1226 q 319 1277 292 1263 q 375 1303 346 1292 m 579 1492 q 610 1417 590 1453 q 656 1349 629 1381 q 715 1292 682 1318 q 692 1282 703 1286 q 670 1276 681 1278 q 647 1274 660 1274 q 610 1281 628 1274 q 575 1300 593 1288 q 538 1337 556 1318 q 506 1378 519 1356 q 485 1424 493 1400 q 481 1463 475 1447 q 506 1483 486 1478 q 526 1488 515 1486 q 551 1491 538 1490 q 579 1492 564 1492 z "},"Ể":{"ha":833,"x_min":58,"x_max":808,"o":"m 61 972 l 679 972 q 718 958 704 972 q 737 926 732 944 q 742 892 742 907 q 740 865 742 876 q 735 846 739 854 l 103 846 q 77 858 88 846 q 63 891 67 871 q 58 932 58 911 q 59 952 58 942 q 61 972 60 963 m 207 515 l 583 515 q 620 503 606 515 q 642 470 635 490 q 649 428 649 450 q 648 417 649 422 q 647 408 647 413 q 646 400 647 404 l 207 400 l 207 515 m 254 0 q 206 10 229 0 q 166 38 183 21 q 140 76 149 56 q 131 119 131 97 q 131 272 131 193 q 131 429 131 350 q 131 585 131 508 q 131 737 131 663 q 131 879 131 811 l 247 879 l 229 839 q 255 800 247 824 q 263 742 263 776 q 263 590 263 668 q 263 435 263 513 q 263 279 263 357 q 263 126 263 201 l 651 126 q 718 108 693 126 q 743 46 743 90 q 742 21 743 33 q 738 0 740 8 l 254 0 m 375 1303 q 390 1303 382 1303 q 405 1303 397 1303 q 419 1303 413 1303 q 467 1297 444 1303 q 529 1267 490 1292 q 576 1234 551 1253 q 625 1193 601 1215 q 670 1144 649 1171 q 711 1088 692 1118 q 676 1076 693 1081 q 636 1072 660 1072 q 599 1080 613 1072 q 569 1106 586 1088 q 496 1171 536 1142 q 383 1232 456 1200 l 463 1215 q 417 1215 440 1215 q 371 1215 394 1215 l 449 1233 q 317 1151 368 1193 q 238 1071 265 1110 l 229 1071 q 178 1074 197 1071 q 150 1085 158 1078 q 142 1101 142 1093 q 150 1126 142 1110 q 179 1167 158 1143 q 220 1207 199 1188 q 267 1244 242 1226 q 319 1277 292 1263 q 375 1303 346 1292 m 581 1299 q 597 1335 581 1318 q 654 1367 613 1351 q 708 1390 693 1381 q 722 1414 722 1400 q 722 1422 722 1418 q 721 1429 722 1425 q 694 1436 708 1435 q 661 1438 679 1438 q 580 1426 614 1438 q 518 1388 546 1414 l 510 1388 q 501 1409 504 1399 q 499 1435 499 1419 q 505 1469 499 1454 q 525 1497 511 1485 q 546 1512 535 1506 q 572 1523 557 1518 q 607 1530 588 1528 q 650 1532 626 1532 q 739 1517 704 1532 q 791 1478 774 1503 q 808 1421 808 1453 l 808 1418 q 793 1371 808 1389 q 743 1333 778 1353 q 695 1300 706 1313 q 682 1269 685 1288 q 668 1266 676 1268 q 651 1263 660 1264 q 635 1263 643 1263 q 594 1273 607 1263 q 581 1299 581 1283 z "},"Ễ":{"ha":833,"x_min":58,"x_max":743,"o":"m 61 972 l 679 972 q 718 958 704 972 q 737 926 732 944 q 742 892 742 907 q 740 865 742 876 q 735 846 739 854 l 103 846 q 77 858 88 846 q 63 891 67 871 q 58 932 58 911 q 59 952 58 942 q 61 972 60 963 m 207 515 l 583 515 q 620 503 606 515 q 642 470 635 490 q 649 428 649 450 q 648 417 649 422 q 647 408 647 413 q 646 400 647 404 l 207 400 l 207 515 m 254 0 q 206 10 229 0 q 166 38 183 21 q 140 76 149 56 q 131 119 131 97 q 131 272 131 193 q 131 429 131 350 q 131 585 131 508 q 131 737 131 663 q 131 879 131 811 l 247 879 l 229 839 q 255 800 247 824 q 263 742 263 776 q 263 590 263 668 q 263 435 263 513 q 263 279 263 357 q 263 126 263 201 l 651 126 q 718 108 693 126 q 743 46 743 90 q 742 21 743 33 q 738 0 740 8 l 254 0 m 375 1303 q 390 1303 382 1303 q 405 1303 397 1303 q 419 1303 413 1303 q 467 1297 444 1303 q 529 1267 490 1292 q 576 1234 551 1253 q 625 1193 601 1215 q 670 1144 649 1171 q 711 1088 692 1118 q 676 1076 693 1081 q 636 1072 660 1072 q 599 1080 613 1072 q 569 1106 586 1088 q 496 1171 536 1142 q 383 1232 456 1200 l 463 1215 q 417 1215 440 1215 q 371 1215 394 1215 l 449 1233 q 317 1151 368 1193 q 238 1071 265 1110 l 229 1071 q 178 1074 197 1071 q 150 1085 158 1078 q 142 1101 142 1093 q 150 1126 142 1110 q 179 1167 158 1143 q 220 1207 199 1188 q 267 1244 242 1226 q 319 1277 292 1263 q 375 1303 346 1292 m 528 1439 q 573 1452 556 1439 q 606 1504 590 1465 l 614 1504 q 624 1478 621 1493 q 628 1447 628 1464 q 624 1411 628 1428 q 615 1382 621 1394 q 585 1347 606 1360 q 536 1333 565 1333 q 467 1348 497 1333 q 410 1381 436 1363 q 358 1415 385 1400 q 301 1429 332 1429 q 255 1413 271 1429 q 221 1365 239 1397 l 213 1365 q 203 1388 207 1375 q 200 1418 200 1401 q 203 1455 200 1439 q 214 1486 207 1471 q 246 1523 224 1510 q 301 1536 268 1536 q 363 1521 335 1536 q 416 1487 390 1506 q 469 1453 442 1468 q 528 1439 496 1439 z "},"Ệ":{"ha":833,"x_min":58,"x_max":743,"o":"m 367 -125 q 383 -122 374 -124 q 400 -120 392 -121 q 418 -119 408 -119 q 436 -119 428 -119 q 511 -133 482 -119 q 540 -183 540 -146 l 540 -274 q 523 -276 532 -275 q 506 -278 514 -278 q 488 -279 497 -279 q 471 -279 479 -279 q 396 -265 425 -279 q 367 -215 367 -251 l 367 -125 m 61 972 l 679 972 q 718 958 704 972 q 737 926 732 944 q 742 892 742 907 q 740 865 742 876 q 735 846 739 854 l 103 846 q 77 858 88 846 q 63 891 67 871 q 58 932 58 911 q 59 952 58 942 q 61 972 60 963 m 207 515 l 583 515 q 620 503 606 515 q 642 470 635 490 q 649 428 649 450 q 648 417 649 422 q 647 408 647 413 q 646 400 647 404 l 207 400 l 207 515 m 254 0 q 206 10 229 0 q 166 38 183 21 q 140 76 149 56 q 131 119 131 97 q 131 272 131 193 q 131 429 131 350 q 131 585 131 508 q 131 737 131 663 q 131 879 131 811 l 247 879 l 229 839 q 255 800 247 824 q 263 742 263 776 q 263 590 263 668 q 263 435 263 513 q 263 279 263 357 q 263 126 263 201 l 651 126 q 718 108 693 126 q 743 46 743 90 q 742 21 743 33 q 738 0 740 8 l 254 0 m 375 1303 q 390 1303 382 1303 q 405 1303 397 1303 q 419 1303 413 1303 q 467 1297 444 1303 q 529 1267 490 1292 q 576 1234 551 1253 q 625 1193 601 1215 q 670 1144 649 1171 q 711 1088 692 1118 q 676 1076 693 1081 q 636 1072 660 1072 q 599 1080 613 1072 q 569 1106 586 1088 q 496 1171 536 1142 q 383 1232 456 1200 l 463 1215 q 417 1215 440 1215 q 371 1215 393 1215 l 449 1233 q 317 1151 368 1193 q 238 1071 265 1110 l 229 1071 q 178 1074 197 1071 q 150 1085 158 1078 q 142 1101 142 1092 q 150 1126 142 1110 q 179 1167 158 1143 q 220 1207 199 1188 q 267 1244 242 1226 q 319 1277 292 1263 q 375 1303 346 1292 z "},"F":{"ha":833,"x_min":58,"x_max":742,"o":"m 290 -3 q 267 -8 278 -6 q 242 -10 256 -10 q 188 1 210 -10 q 153 35 165 13 q 142 92 142 58 q 142 289 142 190 q 142 485 142 388 q 142 682 142 583 q 142 879 142 781 l 258 879 l 242 839 q 267 800 260 824 q 275 740 275 776 q 275 538 275 642 q 275 330 275 435 q 275 121 275 225 q 278 52 275 78 q 290 -3 281 26 m 61 972 l 682 972 q 719 958 707 972 q 737 924 732 943 q 742 890 742 906 q 741 874 742 882 q 739 858 740 865 q 735 846 738 851 l 108 846 q 78 858 90 846 q 63 891 67 871 q 58 932 58 911 q 59 952 58 942 q 61 972 60 963 m 213 446 l 604 446 q 662 419 643 446 q 681 354 681 392 q 681 344 681 350 q 680 334 681 339 q 678 324 679 329 l 213 324 l 213 446 z "},"G":{"ha":833,"x_min":88,"x_max":788,"o":"m 417 449 l 729 449 q 764 438 751 449 q 782 406 776 428 q 788 347 788 385 l 788 333 l 522 333 q 472 340 493 333 q 438 356 451 346 q 419 383 425 367 q 413 421 413 400 q 414 437 413 429 q 417 449 415 444 m 501 1000 q 550 996 528 1000 q 592 984 572 992 q 628 965 611 976 q 660 938 644 953 q 703 873 690 908 q 717 786 717 838 q 717 742 717 764 q 717 697 717 719 q 717 654 717 675 q 696 648 708 650 q 668 646 683 646 q 609 660 629 646 q 589 707 589 674 q 590 790 589 758 q 588 848 590 822 q 574 901 585 874 l 610 847 q 560 874 585 867 q 508 881 535 881 q 391 844 444 881 q 297 743 338 808 q 235 590 257 678 q 214 397 214 501 l 214 376 q 216 308 214 340 q 224 232 218 275 q 311 135 257 172 q 447 99 365 99 q 547 122 503 99 q 617 187 592 146 q 642 282 642 228 q 640 315 642 300 q 638 342 639 329 q 632 368 636 356 l 725 368 l 711 326 q 735 290 726 311 q 743 236 743 268 q 722 134 743 181 q 669 54 701 88 q 610 11 644 31 q 533 -18 575 -8 q 440 -28 492 -28 q 292 0 357 -28 q 181 80 228 28 q 111 205 135 132 q 88 369 88 278 l 88 397 q 117 642 88 532 q 202 833 147 753 q 333 956 257 913 q 501 1000 408 1000 z "},"Ĝ":{"ha":833,"x_min":88,"x_max":788,"o":"m 417 449 l 729 449 q 764 438 751 449 q 782 406 776 428 q 788 347 788 385 l 788 333 l 522 333 q 472 340 493 333 q 438 356 451 346 q 419 383 425 367 q 413 421 413 400 q 414 437 413 429 q 417 449 415 444 m 501 1000 q 550 996 528 1000 q 592 984 572 992 q 628 965 611 976 q 660 938 644 953 q 703 873 690 908 q 717 786 717 838 q 717 742 717 764 q 717 697 717 719 q 717 654 717 675 q 696 648 708 650 q 668 646 683 646 q 609 660 629 646 q 589 707 589 674 q 590 790 589 758 q 588 848 590 822 q 574 901 585 874 l 610 847 q 560 874 585 867 q 508 881 535 881 q 391 844 444 881 q 297 743 338 808 q 235 590 257 678 q 214 397 214 501 l 214 376 q 216 308 214 340 q 224 232 218 275 q 311 135 257 172 q 447 99 365 99 q 547 122 503 99 q 617 187 592 146 q 642 282 642 228 q 640 315 642 300 q 638 342 639 329 q 632 368 636 356 l 725 368 l 711 326 q 735 290 726 311 q 743 236 743 268 q 722 134 743 181 q 669 54 701 88 q 610 11 644 31 q 533 -18 575 -8 q 440 -28 492 -28 q 292 0 357 -28 q 181 80 228 28 q 111 205 135 132 q 88 369 88 278 l 88 397 q 117 642 88 532 q 202 833 147 753 q 333 956 257 913 q 501 1000 408 1000 m 396 1303 q 410 1303 403 1303 q 426 1303 418 1303 q 440 1303 433 1303 q 488 1297 465 1303 q 550 1267 511 1292 q 597 1234 572 1253 q 646 1193 622 1215 q 691 1144 669 1171 q 732 1088 713 1118 q 697 1076 714 1081 q 657 1072 681 1072 q 620 1080 633 1072 q 590 1106 607 1088 q 517 1171 557 1142 q 404 1232 476 1200 l 483 1215 q 438 1215 461 1215 q 392 1215 415 1215 l 469 1233 q 338 1151 389 1193 q 258 1071 286 1110 l 250 1071 q 199 1074 218 1071 q 171 1085 179 1078 q 163 1101 163 1093 q 171 1126 163 1110 q 200 1167 179 1143 q 241 1207 219 1188 q 288 1244 263 1226 q 340 1277 313 1263 q 396 1303 367 1292 z "},"Ğ":{"ha":833,"x_min":88,"x_max":788,"o":"m 417 449 l 729 449 q 764 438 751 449 q 782 406 776 428 q 788 347 788 385 l 788 333 l 522 333 q 472 340 493 333 q 438 356 451 346 q 419 383 425 367 q 413 421 413 400 q 414 437 413 429 q 417 449 415 444 m 501 1000 q 550 996 528 1000 q 592 984 572 992 q 628 965 611 976 q 660 938 644 953 q 703 873 690 908 q 717 786 717 838 q 717 742 717 764 q 717 697 717 719 q 717 654 717 675 q 696 648 708 650 q 668 646 683 646 q 609 660 629 646 q 589 707 589 674 q 590 790 589 758 q 588 848 590 822 q 574 901 585 874 l 610 847 q 560 874 585 867 q 508 881 535 881 q 391 844 444 881 q 297 743 338 808 q 235 590 257 678 q 214 397 214 501 l 214 376 q 216 308 214 340 q 224 232 218 275 q 311 135 257 172 q 447 99 365 99 q 547 122 503 99 q 617 187 592 146 q 642 282 642 228 q 640 315 642 300 q 638 342 639 329 q 632 368 636 356 l 725 368 l 711 326 q 735 290 726 311 q 743 236 743 268 q 722 134 743 181 q 669 54 701 88 q 610 11 644 31 q 533 -18 575 -8 q 440 -28 492 -28 q 292 0 357 -28 q 181 80 228 28 q 111 205 135 132 q 88 369 88 278 l 88 397 q 117 642 88 532 q 202 833 147 753 q 333 956 257 913 q 501 1000 408 1000 m 601 1306 q 642 1301 625 1306 q 674 1288 660 1296 q 684 1272 682 1281 q 681 1250 686 1263 q 633 1171 665 1204 q 554 1119 601 1138 q 443 1101 507 1101 l 432 1101 q 322 1119 369 1101 q 242 1171 274 1138 q 194 1250 210 1204 q 191 1272 189 1263 q 201 1288 193 1281 q 233 1301 215 1296 q 274 1306 250 1306 q 332 1230 294 1256 q 438 1199 369 1204 q 543 1230 506 1204 q 601 1306 581 1256 z "},"Ġ":{"ha":833,"x_min":88,"x_max":788,"o":"m 344 1251 q 363 1257 353 1254 q 383 1261 372 1260 q 405 1263 393 1263 q 426 1264 417 1264 q 501 1248 474 1264 q 529 1194 529 1232 l 529 1110 q 513 1105 522 1107 q 495 1101 504 1103 q 476 1099 486 1099 q 454 1099 465 1099 q 375 1120 406 1099 q 344 1178 344 1142 l 344 1251 m 417 449 l 729 449 q 764 438 751 449 q 782 406 776 428 q 788 347 788 385 l 788 333 l 522 333 q 472 340 493 333 q 438 356 451 346 q 419 383 425 367 q 413 421 413 400 q 414 437 413 429 q 417 449 415 444 m 501 1000 q 550 996 528 1000 q 592 984 572 992 q 628 965 611 976 q 660 938 644 953 q 703 873 690 908 q 717 786 717 838 q 717 742 717 764 q 717 697 717 719 q 717 654 717 675 q 696 648 708 650 q 668 646 683 646 q 609 660 629 646 q 589 707 589 674 q 590 790 589 758 q 588 848 590 822 q 574 901 585 874 l 610 847 q 560 874 585 867 q 508 881 535 881 q 391 844 444 881 q 297 743 338 808 q 235 590 257 678 q 214 397 214 501 l 214 376 q 216 308 214 340 q 224 232 218 275 q 311 135 257 172 q 447 99 365 99 q 547 122 503 99 q 617 187 592 146 q 642 282 642 228 q 640 315 642 300 q 638 342 639 329 q 632 368 636 356 l 725 368 l 711 326 q 735 290 726 311 q 743 236 743 268 q 722 134 743 181 q 669 54 701 88 q 610 11 644 31 q 533 -18 575 -8 q 440 -28 492 -28 q 293 0 358 -28 q 181 80 228 28 q 111 205 135 132 q 88 369 88 278 l 88 397 q 117 642 88 532 q 202 833 147 753 q 333 956 257 913 q 501 1000 410 1000 z "},"Ģ":{"ha":833,"x_min":88,"x_max":788,"o":"m 417 449 l 729 449 q 764 438 751 449 q 782 406 776 428 q 788 347 788 385 l 788 333 l 522 333 q 472 340 493 333 q 438 356 451 346 q 419 383 425 367 q 413 421 413 400 q 414 437 413 429 q 417 449 415 444 m 501 1000 q 550 996 528 1000 q 592 984 572 992 q 628 965 611 976 q 660 938 644 953 q 703 873 690 908 q 717 786 717 838 q 717 742 717 764 q 717 697 717 719 q 717 654 717 675 q 696 648 708 650 q 668 646 683 646 q 609 660 629 646 q 589 707 589 674 q 590 790 589 758 q 588 848 590 822 q 574 901 585 874 l 610 847 q 560 874 585 867 q 508 881 535 881 q 391 844 444 881 q 297 743 338 808 q 235 590 257 678 q 214 397 214 501 l 214 376 q 216 308 214 340 q 224 232 218 275 q 311 135 257 172 q 447 99 365 99 q 547 122 503 99 q 617 187 592 146 q 642 282 642 228 q 640 315 642 300 q 638 342 639 329 q 632 368 636 356 l 725 368 l 711 326 q 735 290 726 311 q 743 236 743 268 q 722 134 743 181 q 669 54 701 88 q 610 11 644 31 q 533 -18 575 -8 q 440 -28 492 -28 q 292 0 357 -28 q 181 80 228 28 q 111 205 135 132 q 88 369 88 278 l 88 397 q 117 642 88 532 q 202 833 147 753 q 333 956 257 913 q 501 1000 408 1000 m 396 -97 q 413 -92 406 -93 q 430 -90 421 -90 q 449 -89 439 -89 q 501 -101 483 -89 q 518 -140 518 -112 q 510 -213 518 -176 q 490 -281 503 -250 q 463 -337 478 -312 q 440 -363 451 -357 q 413 -369 428 -369 q 376 -366 393 -369 q 343 -354 358 -362 q 375 -278 364 -317 q 391 -195 386 -239 q 396 -97 396 -151 z "},"Ǧ":{"ha":833,"x_min":88,"x_max":788,"o":"m 481 1089 q 467 1089 474 1089 q 452 1089 460 1089 q 436 1089 444 1089 q 388 1094 411 1089 q 326 1125 365 1100 q 279 1158 304 1139 q 231 1199 254 1176 q 185 1247 207 1221 q 144 1304 164 1274 q 179 1316 163 1313 q 219 1319 196 1319 q 257 1312 243 1319 q 286 1286 271 1304 q 360 1221 319 1250 q 472 1158 400 1192 l 393 1176 q 440 1176 417 1176 q 485 1176 463 1176 l 407 1157 q 539 1240 488 1199 q 618 1321 590 1282 l 626 1321 q 678 1317 660 1321 q 706 1307 697 1314 q 714 1290 714 1300 q 706 1265 714 1282 q 676 1225 699 1249 q 635 1185 657 1204 q 588 1147 613 1165 q 537 1115 564 1129 q 481 1089 510 1100 m 417 449 l 729 449 q 764 438 751 449 q 782 406 776 428 q 788 347 788 385 l 788 333 l 522 333 q 472 340 493 333 q 438 356 451 346 q 419 383 425 367 q 413 421 413 400 q 414 437 413 429 q 417 449 415 444 m 501 1000 q 550 996 528 1000 q 592 984 572 992 q 628 965 611 976 q 660 938 644 953 q 703 874 690 908 q 717 786 717 839 q 717 742 717 764 q 717 698 717 719 q 717 654 717 676 q 696 648 708 650 q 668 646 683 646 q 609 660 629 646 q 589 707 589 674 q 590 790 589 758 q 588 848 590 822 q 574 901 585 874 l 610 847 q 560 874 585 867 q 508 881 535 881 q 391 844 444 881 q 297 743 338 808 q 235 590 257 678 q 214 397 214 501 l 214 376 q 216 308 214 340 q 224 232 218 275 q 311 135 257 172 q 447 99 365 99 q 547 122 503 99 q 617 187 592 146 q 642 282 642 228 q 640 315 642 300 q 638 342 639 329 q 632 368 636 356 l 725 368 l 711 326 q 735 290 726 311 q 743 236 743 268 q 722 134 743 181 q 669 54 701 88 q 610 11 644 31 q 533 -18 575 -8 q 440 -28 492 -28 q 293 0 358 -28 q 181 80 228 28 q 111 205 135 132 q 88 369 88 278 l 88 397 q 117 642 88 532 q 202 833 147 753 q 333 956 257 913 q 501 1000 410 1000 z "},"Ḡ":{"ha":833,"x_min":88,"x_max":788,"o":"m 417 449 l 729 449 q 764 438 751 449 q 782 406 776 428 q 788 347 788 385 l 788 333 l 522 333 q 472 340 493 333 q 438 356 451 346 q 419 383 425 367 q 413 421 413 400 q 414 437 413 429 q 417 449 415 444 m 501 1000 q 550 996 528 1000 q 592 984 572 992 q 628 965 611 976 q 660 938 644 953 q 703 873 690 908 q 717 786 717 838 q 717 742 717 764 q 717 697 717 719 q 717 654 717 675 q 696 648 708 650 q 668 646 683 646 q 609 660 629 646 q 589 707 589 674 q 590 790 589 758 q 588 848 590 822 q 574 901 585 874 l 610 847 q 560 874 585 867 q 508 881 535 881 q 391 844 444 881 q 297 743 338 808 q 235 590 257 678 q 214 397 214 501 l 214 376 q 216 308 214 340 q 224 232 218 275 q 311 135 257 172 q 447 99 365 99 q 547 122 503 99 q 617 187 592 146 q 642 282 642 228 q 640 315 642 300 q 638 342 639 329 q 632 368 636 356 l 725 368 l 711 326 q 735 290 726 311 q 743 236 743 268 q 722 134 743 181 q 669 54 701 88 q 610 11 644 31 q 533 -18 575 -8 q 440 -28 492 -28 q 292 0 357 -28 q 181 80 228 28 q 111 205 135 132 q 88 369 88 278 l 88 397 q 117 642 88 532 q 202 833 147 753 q 333 956 257 913 q 501 1000 408 1000 m 165 1257 l 649 1257 q 697 1240 685 1257 q 710 1186 710 1222 q 709 1173 710 1179 q 708 1160 708 1167 q 706 1147 707 1153 l 268 1147 q 203 1157 225 1147 q 173 1187 181 1167 q 165 1239 165 1207 q 165 1245 165 1242 q 165 1251 165 1249 q 165 1257 165 1254 z "},"H":{"ha":833,"x_min":56,"x_max":744,"o":"m 103 974 q 129 979 117 978 q 156 981 142 981 q 226 952 206 981 q 247 874 247 924 q 247 654 247 764 q 247 435 247 544 q 247 216 247 325 q 247 -4 247 107 q 226 -8 236 -7 q 204 -8 215 -8 q 157 -1 176 -8 q 127 27 138 7 q 117 83 117 47 q 117 331 117 208 q 117 577 117 454 q 117 824 117 700 q 114 901 117 864 q 103 974 111 939 m 56 474 l 489 474 q 549 467 522 474 q 594 446 575 461 l 638 467 l 638 353 l 108 353 q 82 360 92 353 q 66 379 72 367 q 58 410 60 392 q 56 451 56 429 l 56 474 m 744 -1 q 719 -6 732 -4 q 692 -8 707 -8 q 643 4 664 -8 q 612 43 622 17 q 601 108 601 69 q 601 326 601 218 q 601 541 601 433 q 601 757 601 649 q 601 976 601 865 q 622 980 611 979 q 644 981 633 981 q 681 977 664 981 q 708 965 697 974 q 726 941 719 956 q 732 901 732 926 q 732 721 732 813 q 732 535 732 629 q 732 344 732 440 q 732 150 732 247 q 735 72 732 110 q 744 -1 738 35 z "},"Ĥ":{"ha":833,"x_min":56,"x_max":744,"o":"m 103 974 q 129 979 117 978 q 156 981 142 981 q 226 952 206 981 q 247 874 247 924 q 247 654 247 764 q 247 435 247 544 q 247 216 247 325 q 247 -4 247 107 q 226 -8 236 -7 q 204 -8 215 -8 q 157 -1 176 -8 q 127 27 138 7 q 117 83 117 47 q 117 331 117 208 q 117 577 117 454 q 117 824 117 700 q 114 901 117 864 q 103 974 111 939 m 56 474 l 489 474 q 549 467 522 474 q 594 446 575 461 l 638 467 l 638 353 l 108 353 q 82 360 92 353 q 66 379 72 367 q 58 410 60 392 q 56 451 56 429 l 56 474 m 744 -1 q 719 -6 732 -4 q 692 -8 707 -8 q 643 4 664 -8 q 612 43 622 17 q 601 108 601 69 q 601 326 601 218 q 601 541 601 433 q 601 757 601 649 q 601 976 601 865 q 622 980 611 979 q 644 981 633 981 q 681 977 664 981 q 708 965 697 974 q 726 941 719 956 q 732 901 732 926 q 732 721 732 813 q 732 535 732 629 q 732 344 732 440 q 732 150 732 247 q 735 72 732 110 q 744 -1 738 35 m 357 1303 q 372 1303 364 1303 q 387 1303 379 1303 q 401 1303 394 1303 q 449 1297 426 1303 q 511 1267 472 1292 q 558 1234 533 1253 q 607 1193 583 1215 q 652 1144 631 1171 q 693 1088 674 1118 q 658 1076 675 1081 q 618 1072 642 1072 q 581 1080 594 1072 q 551 1106 568 1088 q 478 1171 518 1142 q 365 1232 438 1200 l 444 1215 q 399 1215 422 1215 q 353 1215 376 1215 l 431 1233 q 299 1151 350 1193 q 219 1071 247 1110 l 211 1071 q 160 1074 179 1071 q 132 1085 140 1078 q 124 1101 124 1093 q 132 1126 124 1110 q 161 1167 140 1143 q 202 1207 181 1188 q 249 1244 224 1226 q 301 1277 274 1263 q 357 1303 328 1292 z "},"Ḥ":{"ha":833,"x_min":56,"x_max":744,"o":"m 335 -125 q 352 -122 343 -124 q 369 -120 361 -121 q 387 -119 378 -119 q 404 -119 396 -119 q 479 -133 450 -119 q 508 -183 508 -146 l 508 -274 q 492 -276 501 -275 q 475 -278 483 -278 q 458 -279 467 -279 q 439 -279 449 -279 q 365 -265 394 -279 q 335 -215 335 -251 l 335 -125 m 103 974 q 129 979 117 978 q 156 981 142 981 q 226 952 206 981 q 247 874 247 924 q 247 654 247 764 q 247 435 247 544 q 247 216 247 325 q 247 -4 247 107 q 226 -8 236 -7 q 204 -8 215 -8 q 157 -1 176 -8 q 127 27 138 7 q 117 83 117 47 q 117 331 117 208 q 117 577 117 454 q 117 824 117 700 q 114 901 117 864 q 103 974 111 939 m 56 474 l 489 474 q 549 467 522 474 q 594 446 575 461 l 638 467 l 638 353 l 108 353 q 82 360 92 353 q 66 379 72 367 q 58 410 60 392 q 56 451 56 429 l 56 474 m 744 -1 q 719 -6 732 -4 q 692 -8 707 -8 q 643 4 664 -8 q 612 43 622 17 q 601 108 601 69 q 601 326 601 218 q 601 541 601 433 q 601 757 601 649 q 601 976 601 865 q 622 980 611 979 q 644 981 633 981 q 681 977 664 981 q 708 965 697 974 q 726 941 719 956 q 732 901 732 926 q 732 721 732 813 q 732 535 732 629 q 732 344 732 440 q 732 150 732 247 q 735 72 732 110 q 744 -1 738 35 z "},"Ḫ":{"ha":833,"x_min":56,"x_max":744,"o":"m 422 -192 q 530 -158 492 -187 q 588 -68 568 -129 q 624 -75 607 -69 q 654 -90 640 -81 q 663 -106 661 -96 q 658 -132 664 -117 q 608 -217 640 -182 q 531 -271 576 -253 q 428 -289 486 -289 l 417 -289 q 313 -271 358 -289 q 236 -217 268 -253 q 185 -132 204 -182 q 181 -106 179 -117 q 190 -90 183 -96 q 221 -75 204 -81 q 257 -68 238 -69 q 314 -158 275 -129 q 422 -192 353 -187 m 103 974 q 129 979 117 978 q 156 981 142 981 q 226 952 206 981 q 247 874 247 924 q 247 654 247 764 q 247 435 247 544 q 247 216 247 325 q 247 -4 247 107 q 226 -8 236 -7 q 204 -8 215 -8 q 157 -1 176 -8 q 127 27 138 7 q 117 83 117 47 q 117 331 117 208 q 117 577 117 454 q 117 824 117 700 q 114 901 117 864 q 103 974 111 939 m 56 474 l 489 474 q 549 467 522 474 q 594 446 575 461 l 638 467 l 638 353 l 108 353 q 82 360 92 353 q 66 379 72 367 q 58 410 60 392 q 56 451 56 429 l 56 474 m 744 -1 q 719 -6 732 -4 q 692 -8 707 -8 q 643 4 664 -8 q 612 43 622 17 q 601 108 601 69 q 601 326 601 218 q 601 541 601 433 q 601 757 601 649 q 601 976 601 865 q 622 980 611 979 q 644 981 633 981 q 681 977 664 981 q 708 965 697 974 q 726 941 719 956 q 732 901 732 926 q 732 721 732 813 q 732 535 732 629 q 732 344 732 440 q 732 150 732 247 q 735 72 732 110 q 744 -1 738 35 z "},"I":{"ha":833,"x_min":83,"x_max":750,"o":"m 483 90 l 365 90 l 383 133 q 359 175 368 149 q 350 236 350 201 q 350 394 350 314 q 350 555 350 474 q 350 717 350 636 q 350 882 350 799 l 468 882 l 450 839 q 475 797 467 824 q 483 736 483 771 q 483 578 483 658 q 483 417 483 499 q 483 254 483 336 q 483 90 483 172 m 746 0 l 139 0 q 113 6 124 0 q 96 22 103 11 q 86 47 89 32 q 83 78 83 61 q 84 97 83 88 q 86 113 85 106 q 89 126 88 121 l 643 126 q 708 115 685 126 q 741 83 732 104 q 750 35 750 63 q 750 23 750 29 q 749 11 750 17 q 746 0 747 6 m 88 972 l 696 972 q 740 949 729 972 q 750 890 750 926 q 750 879 750 885 q 749 868 750 874 q 747 857 749 863 q 744 846 746 851 l 192 846 q 110 868 136 846 q 83 935 83 890 q 83 946 83 940 q 84 956 83 951 q 85 965 85 961 q 88 972 86 969 z "},"Ì":{"ha":833,"x_min":83,"x_max":750,"o":"m 483 90 l 365 90 l 383 133 q 359 175 368 149 q 350 236 350 201 q 350 394 350 314 q 350 555 350 474 q 350 717 350 636 q 350 882 350 799 l 468 882 l 450 839 q 475 797 467 824 q 483 736 483 771 q 483 578 483 658 q 483 417 483 499 q 483 254 483 336 q 483 90 483 172 m 746 0 l 139 0 q 113 6 124 0 q 96 22 103 11 q 86 47 89 32 q 83 78 83 61 q 84 97 83 88 q 86 113 85 106 q 89 126 88 121 l 643 126 q 708 115 685 126 q 741 83 732 104 q 750 35 750 63 q 750 23 750 29 q 749 11 750 17 q 746 0 747 6 m 88 972 l 696 972 q 740 949 729 972 q 750 890 750 926 q 750 879 750 885 q 749 868 750 874 q 747 857 749 863 q 744 846 746 851 l 192 846 q 110 868 136 846 q 83 935 83 890 q 83 946 83 940 q 84 956 83 951 q 85 965 85 961 q 88 972 86 969 m 319 1299 q 355 1225 332 1260 q 412 1160 378 1190 q 489 1097 446 1129 q 464 1088 476 1092 q 440 1081 451 1083 q 414 1079 428 1079 q 376 1083 393 1079 q 340 1097 358 1086 q 296 1125 317 1110 q 258 1158 275 1140 q 227 1197 240 1176 q 206 1236 214 1217 q 201 1265 199 1253 q 219 1285 204 1278 q 249 1294 233 1290 q 281 1299 264 1297 q 319 1299 299 1300 z "},"Í":{"ha":833,"x_min":83,"x_max":750,"o":"m 483 90 l 365 90 l 383 133 q 359 175 368 149 q 350 236 350 201 q 350 394 350 314 q 350 555 350 474 q 350 717 350 636 q 350 882 350 799 l 468 882 l 450 839 q 475 797 467 824 q 483 736 483 771 q 483 578 483 658 q 483 417 483 499 q 483 254 483 336 q 483 90 483 172 m 746 0 l 139 0 q 113 6 124 0 q 96 22 103 11 q 86 47 89 32 q 83 78 83 61 q 84 97 83 88 q 86 113 85 106 q 89 126 88 121 l 643 126 q 708 115 685 126 q 741 83 732 104 q 750 35 750 63 q 750 23 750 29 q 749 11 750 17 q 746 0 747 6 m 88 972 l 696 972 q 740 949 729 972 q 750 890 750 926 q 750 879 750 885 q 749 868 750 874 q 747 857 749 863 q 744 846 746 851 l 192 846 q 110 868 136 846 q 83 935 83 890 q 83 946 83 940 q 84 956 83 951 q 85 965 85 961 q 88 972 86 969 m 514 1290 q 552 1289 535 1290 q 583 1285 569 1288 q 611 1278 597 1282 q 631 1258 628 1271 q 629 1231 635 1246 q 608 1189 621 1208 q 578 1151 596 1169 q 541 1118 561 1133 q 497 1090 521 1103 q 460 1075 479 1079 q 419 1071 442 1071 q 394 1073 407 1071 q 369 1079 382 1075 q 344 1090 357 1083 q 422 1152 388 1121 q 479 1217 456 1183 q 514 1290 503 1251 z "},"Î":{"ha":833,"x_min":83,"x_max":750,"o":"m 483 90 l 365 90 l 383 133 q 359 175 368 149 q 350 236 350 201 q 350 394 350 314 q 350 555 350 474 q 350 717 350 636 q 350 882 350 799 l 468 882 l 450 839 q 475 797 467 824 q 483 736 483 771 q 483 578 483 658 q 483 417 483 499 q 483 254 483 336 q 483 90 483 172 m 746 0 l 139 0 q 113 6 124 0 q 96 22 103 11 q 86 47 89 32 q 83 78 83 61 q 84 97 83 88 q 86 113 85 106 q 89 126 88 121 l 643 126 q 708 115 685 126 q 741 83 732 104 q 750 35 750 63 q 750 23 750 29 q 749 11 750 17 q 746 0 747 6 m 88 972 l 696 972 q 740 949 729 972 q 750 890 750 926 q 750 879 750 885 q 749 868 750 874 q 747 857 749 863 q 744 846 746 851 l 192 846 q 110 868 136 846 q 83 935 83 890 q 83 946 83 940 q 84 956 83 951 q 85 965 85 961 q 88 972 86 969 m 375 1303 q 390 1303 382 1303 q 405 1303 397 1303 q 419 1303 413 1303 q 467 1297 444 1303 q 529 1267 490 1292 q 576 1234 551 1253 q 625 1193 601 1215 q 670 1144 649 1171 q 711 1088 692 1118 q 676 1076 693 1081 q 636 1072 660 1072 q 599 1080 613 1072 q 569 1106 586 1088 q 496 1171 536 1142 q 383 1232 456 1200 l 463 1215 q 417 1215 440 1215 q 371 1215 394 1215 l 449 1233 q 317 1151 368 1193 q 238 1071 265 1110 l 229 1071 q 178 1074 197 1071 q 150 1085 158 1078 q 142 1101 142 1093 q 150 1126 142 1110 q 179 1167 158 1143 q 220 1207 199 1188 q 267 1244 242 1226 q 319 1277 292 1263 q 375 1303 346 1292 z "},"Ï":{"ha":833,"x_min":83,"x_max":750,"o":"m 483 90 l 365 90 l 383 133 q 359 175 368 149 q 350 236 350 201 q 350 394 350 314 q 350 555 350 474 q 350 717 350 636 q 350 882 350 799 l 468 882 l 450 839 q 475 797 467 824 q 483 736 483 771 q 483 578 483 658 q 483 417 483 499 q 483 254 483 336 q 483 90 483 172 m 746 0 l 139 0 q 113 6 124 0 q 96 22 103 11 q 86 47 89 32 q 83 78 83 61 q 84 97 83 88 q 86 113 85 106 q 89 126 88 121 l 643 126 q 708 115 685 126 q 741 83 732 104 q 750 35 750 63 q 750 23 750 29 q 749 11 750 17 q 746 0 747 6 m 88 972 l 696 972 q 740 949 729 972 q 750 890 750 926 q 750 879 750 885 q 749 868 750 874 q 747 857 749 863 q 744 846 746 851 l 192 846 q 110 868 136 846 q 83 935 83 890 q 83 946 83 940 q 84 956 83 951 q 85 965 85 961 q 88 972 86 969 m 194 1261 q 225 1265 208 1264 q 256 1265 242 1265 q 303 1260 282 1265 q 337 1243 324 1256 q 350 1208 350 1231 l 350 1110 q 319 1107 336 1108 q 288 1106 303 1106 q 242 1111 264 1106 q 208 1129 221 1117 q 194 1164 194 1142 l 194 1261 m 483 1261 q 514 1265 497 1264 q 544 1265 531 1265 q 592 1260 571 1265 q 626 1243 613 1256 q 639 1208 639 1231 l 639 1110 q 608 1107 625 1108 q 576 1106 592 1106 q 531 1111 553 1106 q 497 1129 510 1117 q 483 1164 483 1142 l 483 1261 z "},"Ĩ":{"ha":833,"x_min":83,"x_max":750,"o":"m 483 90 l 365 90 l 383 133 q 359 175 368 149 q 350 236 350 201 q 350 394 350 314 q 350 555 350 474 q 350 717 350 636 q 350 882 350 799 l 468 882 l 450 839 q 475 797 467 824 q 483 736 483 771 q 483 578 483 658 q 483 417 483 499 q 483 254 483 336 q 483 90 483 172 m 746 0 l 139 0 q 113 6 124 0 q 96 22 103 11 q 86 47 89 32 q 83 78 83 61 q 84 97 83 88 q 86 113 85 106 q 89 126 88 121 l 643 126 q 708 115 685 126 q 741 83 732 104 q 750 35 750 63 q 750 23 750 29 q 749 11 750 17 q 746 0 747 6 m 88 972 l 696 972 q 740 949 729 972 q 750 890 750 926 q 750 879 750 885 q 749 868 750 874 q 747 857 749 863 q 744 846 746 851 l 192 846 q 110 868 136 846 q 83 935 83 890 q 83 946 83 940 q 84 956 83 951 q 85 965 85 961 q 88 972 86 969 m 554 1196 q 619 1212 590 1196 q 675 1260 647 1228 l 683 1260 q 690 1237 688 1251 q 692 1210 692 1222 q 688 1174 692 1188 q 679 1149 685 1160 q 637 1106 665 1121 q 565 1090 608 1090 q 492 1106 528 1090 q 421 1141 456 1121 q 350 1176 386 1161 q 276 1192 314 1192 q 213 1176 240 1192 q 156 1128 185 1161 l 147 1128 q 141 1152 143 1139 q 139 1178 139 1165 q 142 1213 139 1200 q 151 1238 146 1226 q 194 1281 165 1265 q 265 1297 222 1297 q 339 1282 303 1297 q 410 1247 375 1267 q 481 1211 446 1226 q 554 1196 517 1196 z "},"Ī":{"ha":833,"x_min":83,"x_max":750,"o":"m 483 90 l 365 90 l 383 133 q 359 175 368 149 q 350 236 350 201 q 350 394 350 314 q 350 555 350 474 q 350 717 350 636 q 350 882 350 799 l 468 882 l 450 839 q 475 797 467 824 q 483 736 483 771 q 483 578 483 658 q 483 417 483 499 q 483 254 483 336 q 483 90 483 172 m 746 0 l 139 0 q 113 6 124 0 q 96 22 103 11 q 86 47 89 32 q 83 78 83 61 q 84 97 83 88 q 86 113 85 106 q 89 126 88 121 l 643 126 q 708 115 685 126 q 741 83 732 104 q 750 35 750 63 q 750 23 750 29 q 749 11 750 17 q 746 0 747 6 m 88 972 l 696 972 q 740 949 729 972 q 750 890 750 926 q 750 879 750 885 q 749 868 750 874 q 747 857 749 863 q 744 846 746 851 l 192 846 q 110 868 136 846 q 83 935 83 890 q 83 946 83 940 q 84 956 83 951 q 85 965 85 961 q 88 972 86 969 m 143 1226 l 628 1226 q 676 1209 664 1226 q 689 1156 689 1192 q 688 1135 689 1146 q 685 1117 686 1125 l 246 1117 q 182 1126 204 1117 q 151 1156 160 1136 q 143 1207 143 1176 q 143 1217 143 1213 q 143 1226 143 1222 z "},"Ĭ":{"ha":833,"x_min":83,"x_max":750,"o":"m 483 90 l 365 90 l 383 133 q 359 175 368 149 q 350 236 350 201 q 350 394 350 314 q 350 555 350 474 q 350 717 350 636 q 350 882 350 799 l 468 882 l 450 839 q 475 797 467 824 q 483 736 483 771 q 483 578 483 658 q 483 417 483 499 q 483 254 483 336 q 483 90 483 172 m 746 0 l 139 0 q 113 6 124 0 q 96 22 103 11 q 86 47 89 32 q 83 78 83 61 q 84 97 83 88 q 86 113 85 106 q 89 126 88 121 l 643 126 q 708 115 685 126 q 741 83 732 104 q 750 35 750 63 q 750 23 750 29 q 749 11 750 17 q 746 0 747 6 m 88 972 l 696 972 q 740 949 729 972 q 750 890 750 926 q 750 879 750 885 q 749 868 750 874 q 747 857 749 863 q 744 846 746 851 l 192 846 q 110 868 136 846 q 83 935 83 890 q 83 946 83 940 q 84 956 83 951 q 85 965 85 961 q 88 972 86 969 m 581 1306 q 622 1301 604 1306 q 653 1288 639 1296 q 663 1272 661 1281 q 660 1250 665 1263 q 613 1171 644 1204 q 533 1119 581 1138 q 422 1101 486 1101 l 411 1101 q 301 1119 349 1101 q 221 1171 253 1138 q 174 1250 189 1204 q 170 1272 168 1263 q 181 1288 172 1281 q 212 1301 194 1296 q 253 1306 229 1306 q 311 1230 274 1256 q 417 1199 349 1204 q 522 1230 485 1204 q 581 1306 560 1256 z "},"Į":{"ha":833,"x_min":83,"x_max":754,"o":"m 483 90 l 365 90 l 383 133 q 359 175 368 149 q 350 236 350 201 q 350 394 350 314 q 350 555 350 474 q 350 717 350 636 q 350 882 350 799 l 468 882 l 450 839 q 475 797 467 824 q 483 736 483 771 q 483 578 483 658 q 483 417 483 499 q 483 254 483 336 q 483 90 483 172 m 746 0 l 139 0 q 113 6 124 0 q 96 22 103 11 q 86 47 89 32 q 83 78 83 61 q 84 97 83 88 q 86 113 85 106 q 89 126 88 121 l 643 126 q 708 115 685 126 q 741 83 732 104 q 750 35 750 63 q 750 23 750 29 q 749 11 750 17 q 746 0 747 6 m 88 972 l 696 972 q 740 949 729 972 q 750 890 750 926 q 750 879 750 885 q 749 868 750 874 q 747 857 749 863 q 744 846 746 851 l 192 846 q 110 868 136 846 q 83 935 83 890 q 83 946 83 940 q 84 956 83 951 q 85 965 85 961 q 88 972 86 969 m 686 40 q 708 33 694 42 q 747 -6 721 25 q 729 -15 740 -11 q 704 -24 718 -19 q 603 -77 639 -42 q 568 -158 568 -112 q 587 -208 568 -192 q 640 -224 606 -224 q 689 -216 667 -224 q 733 -192 711 -208 l 742 -192 q 750 -210 747 -201 q 753 -228 753 -219 q 754 -249 754 -236 q 717 -322 754 -297 q 619 -347 681 -347 q 496 -307 540 -347 q 451 -192 451 -267 q 480 -83 451 -131 q 561 -5 508 -36 q 686 40 614 26 z "},"İ":{"ha":833,"x_min":83,"x_max":750,"o":"m 324 1253 q 342 1258 332 1256 q 362 1262 351 1260 q 384 1264 372 1264 q 406 1264 396 1264 q 481 1248 453 1264 q 510 1194 510 1232 l 510 1111 q 492 1106 501 1108 q 474 1101 483 1103 q 455 1099 465 1100 q 433 1099 444 1099 q 354 1120 385 1099 q 324 1178 324 1142 l 324 1253 m 483 90 l 365 90 l 383 133 q 359 175 368 149 q 350 236 350 201 q 350 394 350 314 q 350 555 350 474 q 350 717 350 636 q 350 882 350 799 l 468 882 l 450 839 q 475 797 467 824 q 483 736 483 771 q 483 578 483 658 q 483 417 483 499 q 483 254 483 336 q 483 90 483 172 m 746 0 l 139 0 q 113 6 124 0 q 96 22 103 11 q 86 47 89 32 q 83 78 83 61 q 84 97 83 88 q 86 113 85 106 q 89 126 88 121 l 643 126 q 708 115 685 126 q 741 83 732 104 q 750 35 750 63 q 750 23 750 29 q 749 11 750 17 q 746 0 747 6 m 88 972 l 696 972 q 740 949 729 972 q 750 890 750 926 q 750 879 750 885 q 749 868 750 874 q 747 857 749 863 q 744 846 746 851 l 192 846 q 110 868 136 846 q 83 935 83 890 q 83 946 83 940 q 84 956 83 951 q 85 965 85 961 q 88 972 86 969 z "},"Ȉ":{"ha":833,"x_min":83,"x_max":750,"o":"m 206 1300 q 240 1226 218 1260 q 297 1160 263 1192 q 375 1099 331 1129 q 349 1088 361 1092 q 325 1082 338 1083 q 299 1081 313 1081 q 262 1084 279 1081 q 225 1097 244 1088 q 181 1126 201 1110 q 143 1159 161 1142 q 112 1197 125 1176 q 90 1238 99 1217 q 88 1265 85 1253 q 106 1285 90 1278 q 134 1294 119 1292 q 167 1299 149 1297 q 206 1300 185 1300 m 469 1300 q 506 1226 483 1260 q 562 1160 528 1192 q 639 1099 596 1129 q 615 1088 626 1092 q 590 1082 603 1083 q 564 1081 578 1081 q 527 1084 544 1081 q 490 1097 510 1088 q 446 1126 467 1110 q 408 1159 425 1142 q 377 1197 390 1176 q 356 1238 364 1217 q 351 1265 349 1253 q 371 1285 354 1278 q 399 1294 383 1292 q 431 1299 414 1297 q 469 1300 449 1300 m 483 90 l 365 90 l 383 133 q 359 175 368 149 q 350 236 350 201 q 350 394 350 314 q 350 555 350 474 q 350 718 350 636 q 350 882 350 800 l 468 882 l 450 839 q 475 797 467 824 q 483 736 483 771 q 483 578 483 658 q 483 417 483 499 q 483 254 483 336 q 483 90 483 172 m 746 0 l 139 0 q 113 6 124 0 q 96 22 103 11 q 86 47 89 32 q 83 78 83 61 q 84 97 83 88 q 86 113 85 106 q 89 126 88 121 l 644 126 q 708 115 685 126 q 741 83 732 104 q 750 35 750 63 q 750 23 750 29 q 749 11 750 17 q 746 0 747 6 m 88 972 l 696 972 q 740 949 729 972 q 750 890 750 926 q 750 879 750 885 q 749 868 750 874 q 747 857 749 863 q 744 846 746 851 l 192 846 q 110 868 136 846 q 83 935 83 890 q 83 946 83 940 q 84 956 83 951 q 85 965 85 961 q 88 972 86 969 z "},"Ȋ":{"ha":833,"x_min":83,"x_max":750,"o":"m 253 1093 q 212 1099 229 1094 q 181 1113 194 1104 q 170 1127 172 1118 q 174 1149 168 1136 q 221 1228 189 1196 q 301 1279 253 1261 q 411 1297 349 1297 l 422 1297 q 533 1279 486 1297 q 613 1228 581 1261 q 660 1149 644 1196 q 663 1127 665 1136 q 653 1113 661 1118 q 622 1099 639 1104 q 581 1093 604 1094 q 522 1170 560 1144 q 417 1200 485 1196 q 311 1170 349 1196 q 253 1093 274 1144 m 483 90 l 365 90 l 383 133 q 359 175 368 149 q 350 236 350 201 q 350 394 350 314 q 350 555 350 474 q 350 718 350 636 q 350 882 350 800 l 468 882 l 450 839 q 475 797 467 824 q 483 736 483 771 q 483 578 483 658 q 483 417 483 499 q 483 254 483 336 q 483 90 483 172 m 746 0 l 139 0 q 113 6 124 0 q 96 22 103 11 q 86 47 89 32 q 83 78 83 61 q 84 97 83 88 q 86 113 85 106 q 89 126 88 121 l 644 126 q 708 115 685 126 q 741 83 732 104 q 750 35 750 63 q 750 23 750 29 q 749 11 750 17 q 746 0 747 6 m 88 972 l 696 972 q 740 949 729 972 q 750 890 750 926 q 750 879 750 885 q 749 868 750 874 q 747 857 749 863 q 744 846 746 851 l 192 846 q 110 868 136 846 q 83 935 83 890 q 83 946 83 940 q 84 956 83 951 q 85 965 85 961 q 88 972 86 969 z "},"Ḯ":{"ha":833,"x_min":83,"x_max":750,"o":"m 483 90 l 365 90 l 383 133 q 359 175 368 149 q 350 236 350 201 q 350 394 350 314 q 350 555 350 474 q 350 717 350 636 q 350 882 350 799 l 468 882 l 450 839 q 475 797 467 824 q 483 736 483 771 q 483 578 483 658 q 483 417 483 499 q 483 254 483 336 q 483 90 483 172 m 746 0 l 139 0 q 113 6 124 0 q 96 22 103 11 q 86 47 89 32 q 83 78 83 61 q 84 97 83 88 q 86 113 85 106 q 89 126 88 121 l 643 126 q 708 115 685 126 q 741 83 732 104 q 750 35 750 63 q 750 23 750 29 q 749 11 750 17 q 746 0 747 6 m 88 972 l 696 972 q 740 949 729 972 q 750 890 750 926 q 750 879 750 885 q 749 868 750 874 q 747 857 749 863 q 744 846 746 851 l 192 846 q 110 868 136 846 q 83 935 83 890 q 83 946 83 940 q 84 956 83 951 q 85 965 85 961 q 88 972 86 969 m 194 1261 q 225 1265 208 1264 q 256 1265 242 1265 q 303 1260 282 1265 q 337 1243 324 1256 q 350 1208 350 1231 l 350 1110 q 319 1107 336 1108 q 288 1106 303 1106 q 242 1111 264 1106 q 208 1129 221 1117 q 194 1164 194 1142 l 194 1261 m 483 1261 q 514 1265 497 1264 q 544 1265 531 1265 q 592 1260 571 1265 q 626 1243 613 1256 q 639 1208 639 1231 l 639 1110 q 608 1107 625 1108 q 576 1106 592 1106 q 531 1111 553 1106 q 497 1129 510 1117 q 483 1164 483 1142 l 483 1261 m 514 1538 q 552 1536 535 1538 q 583 1532 569 1535 q 611 1525 597 1529 q 631 1506 628 1518 q 629 1478 635 1493 q 608 1436 621 1456 q 578 1399 596 1417 q 541 1365 561 1381 q 497 1338 521 1350 q 460 1322 479 1326 q 419 1318 442 1318 q 394 1320 407 1318 q 369 1326 382 1322 q 344 1338 357 1331 q 422 1399 388 1368 q 479 1465 456 1431 q 514 1538 503 1499 z "},"Ỉ":{"ha":833,"x_min":83,"x_max":750,"o":"m 483 90 l 365 90 l 383 133 q 359 175 368 149 q 350 236 350 201 q 350 394 350 314 q 350 555 350 474 q 350 717 350 636 q 350 882 350 799 l 468 882 l 450 839 q 475 797 467 824 q 483 736 483 771 q 483 578 483 658 q 483 417 483 499 q 483 254 483 336 q 483 90 483 172 m 746 0 l 139 0 q 113 6 124 0 q 96 22 103 11 q 86 47 89 32 q 83 78 83 61 q 84 97 83 88 q 86 113 85 106 q 89 126 88 121 l 643 126 q 708 115 685 126 q 741 83 732 104 q 750 35 750 63 q 750 23 750 29 q 749 11 750 17 q 746 0 747 6 m 88 972 l 696 972 q 740 949 729 972 q 750 890 750 926 q 750 879 750 885 q 749 868 750 874 q 747 857 749 863 q 744 846 746 851 l 192 846 q 110 868 136 846 q 83 935 83 890 q 83 946 83 940 q 84 956 83 951 q 85 965 85 961 q 88 972 86 969 m 346 1078 q 362 1114 346 1097 q 419 1146 378 1131 q 473 1169 458 1160 q 488 1193 488 1179 q 488 1201 488 1197 q 486 1208 488 1204 q 459 1215 474 1214 q 426 1217 444 1217 q 345 1205 379 1217 q 283 1167 311 1193 l 275 1167 q 267 1188 269 1178 q 264 1214 264 1199 q 270 1249 264 1233 q 290 1276 276 1264 q 311 1291 300 1285 q 338 1302 322 1297 q 372 1309 353 1307 q 415 1311 392 1311 q 504 1297 469 1311 q 556 1257 539 1282 q 574 1200 574 1232 l 574 1197 q 558 1150 574 1168 q 508 1113 543 1132 q 460 1079 471 1092 q 447 1049 450 1067 q 433 1045 442 1047 q 417 1042 425 1043 q 400 1042 408 1042 q 359 1052 372 1042 q 346 1078 346 1063 z "},"Ị":{"ha":833,"x_min":83,"x_max":750,"o":"m 483 90 l 365 90 l 383 133 q 359 175 368 149 q 350 236 350 201 q 350 394 350 314 q 350 555 350 474 q 350 717 350 636 q 350 882 350 799 l 468 882 l 450 839 q 475 797 467 824 q 483 736 483 771 q 483 578 483 658 q 483 417 483 499 q 483 254 483 336 q 483 90 483 172 m 746 0 l 139 0 q 113 6 124 0 q 96 22 103 11 q 86 47 89 32 q 83 78 83 61 q 84 97 83 88 q 86 113 85 106 q 89 126 88 121 l 643 126 q 708 115 685 126 q 741 83 732 104 q 750 35 750 63 q 750 23 750 29 q 749 11 750 17 q 746 0 747 6 m 88 972 l 696 972 q 740 949 729 972 q 750 890 750 926 q 750 879 750 885 q 749 868 750 874 q 747 857 749 863 q 744 846 746 851 l 192 846 q 110 868 136 846 q 83 935 83 890 q 83 946 83 940 q 84 956 83 951 q 85 965 85 961 q 88 972 86 969 m 331 -125 q 347 -122 338 -124 q 364 -120 356 -121 q 381 -119 372 -119 q 400 -119 390 -119 q 474 -133 446 -119 q 503 -183 503 -146 l 503 -274 q 487 -276 496 -275 q 469 -278 478 -278 q 452 -279 461 -279 q 433 -279 443 -279 q 360 -265 389 -279 q 331 -215 331 -251 l 331 -125 z "},"J":{"ha":833,"x_min":118,"x_max":685,"o":"m 374 99 q 453 109 417 99 q 522 142 490 119 q 541 189 535 164 q 550 246 547 214 q 553 319 553 278 q 553 459 553 389 q 553 601 553 529 q 553 747 553 672 q 553 900 553 822 l 579 842 l 526 878 l 590 867 q 497 855 543 860 q 409 847 451 850 q 326 841 367 843 q 249 839 286 839 q 208 849 224 839 q 184 878 192 858 q 176 922 176 897 q 178 951 176 939 q 182 972 179 964 q 278 974 231 974 q 375 976 326 975 q 472 978 424 978 q 568 978 521 978 q 635 970 610 978 q 672 946 660 963 q 685 904 685 929 q 685 761 685 835 q 685 612 685 688 q 685 459 685 536 q 685 304 685 382 q 663 174 683 235 q 603 68 643 113 q 502 -2 563 24 q 360 -28 442 -28 q 276 -21 317 -28 q 201 -1 235 -14 q 149 33 168 13 q 132 54 139 43 q 122 81 125 65 q 118 115 118 97 q 120 150 118 135 q 126 176 122 165 l 135 176 q 208 131 172 147 q 283 106 243 114 q 374 99 322 99 z "},"Ĵ":{"ha":833,"x_min":118,"x_max":710,"o":"m 374 99 q 453 109 417 99 q 522 142 490 119 q 541 189 535 164 q 550 246 547 214 q 553 319 553 278 q 553 459 553 389 q 553 601 553 529 q 553 747 553 672 q 553 900 553 822 l 579 842 l 526 878 l 590 867 q 497 855 543 860 q 409 847 451 850 q 326 841 367 843 q 249 839 286 839 q 208 849 224 839 q 184 878 192 858 q 176 922 176 897 q 178 951 176 939 q 182 972 179 964 q 278 974 231 974 q 375 976 326 975 q 472 978 424 978 q 568 978 521 978 q 635 970 610 978 q 672 946 660 963 q 685 904 685 929 q 685 761 685 835 q 685 612 685 688 q 685 459 685 536 q 685 304 685 382 q 663 174 683 235 q 603 68 643 113 q 502 -2 563 24 q 360 -28 442 -28 q 276 -21 317 -28 q 201 -1 235 -14 q 149 33 168 13 q 132 54 139 43 q 122 81 125 65 q 118 115 118 97 q 120 150 118 135 q 126 176 122 165 l 135 176 q 208 131 172 147 q 283 106 243 114 q 374 99 322 99 m 374 1303 q 388 1303 381 1303 q 403 1303 396 1303 q 418 1303 411 1303 q 466 1297 443 1303 q 528 1267 489 1292 q 575 1234 550 1253 q 624 1193 600 1215 q 669 1144 647 1171 q 710 1088 690 1118 q 675 1076 692 1081 q 635 1072 658 1072 q 598 1080 611 1072 q 568 1106 585 1088 q 494 1171 535 1142 q 382 1232 454 1200 l 461 1215 q 416 1215 439 1215 q 369 1215 393 1215 l 447 1233 q 315 1151 367 1193 q 236 1071 264 1110 l 228 1071 q 176 1074 196 1071 q 149 1085 157 1078 q 140 1101 140 1093 q 149 1126 140 1110 q 178 1167 157 1143 q 219 1207 197 1188 q 265 1244 240 1226 q 317 1277 290 1263 q 374 1303 344 1292 z "},"K":{"ha":833,"x_min":103,"x_max":796,"o":"m 422 508 q 529 343 475 426 q 636 176 583 260 q 680 125 658 140 q 724 110 701 110 q 758 115 743 110 q 782 132 772 121 l 789 132 q 792 117 792 125 q 794 101 793 108 q 795 83 794 93 q 796 64 796 74 q 790 24 796 42 q 774 -6 785 6 q 756 -18 765 -12 q 733 -26 746 -24 q 706 -28 721 -28 q 649 -17 675 -28 q 599 17 624 -7 q 549 79 575 42 q 496 159 522 118 q 445 242 469 200 q 401 322 421 283 q 367 396 381 361 l 331 396 l 422 508 m 650 986 q 710 977 688 986 q 744 956 733 968 q 756 929 756 943 q 751 892 756 913 q 736 841 747 872 q 700 761 725 810 q 647 667 678 713 q 580 579 617 621 q 500 500 543 538 q 410 430 457 463 q 315 371 364 397 q 215 325 267 344 l 215 447 l 256 447 q 304 482 281 464 q 351 522 328 500 q 397 567 374 543 q 440 617 419 590 q 515 715 481 661 q 578 837 549 769 q 631 986 608 904 l 650 986 m 103 978 q 129 983 117 982 q 156 985 142 985 q 228 954 210 985 q 247 878 247 924 q 247 657 247 768 q 247 435 247 546 q 247 214 247 325 q 247 -8 247 103 q 226 -12 236 -11 q 204 -12 215 -12 q 140 7 163 -12 q 117 79 117 26 q 117 330 117 206 q 117 578 117 454 q 117 828 117 703 q 114 906 117 868 q 103 978 111 943 z "},"Ķ":{"ha":833,"x_min":103,"x_max":796,"o":"m 422 508 q 529 343 475 426 q 636 176 583 260 q 680 125 658 140 q 724 110 701 110 q 758 115 743 110 q 782 132 772 121 l 789 132 q 792 117 792 125 q 794 101 793 108 q 795 83 794 93 q 796 64 796 74 q 790 24 796 42 q 774 -6 785 6 q 756 -18 765 -12 q 733 -26 746 -24 q 706 -28 721 -28 q 649 -17 675 -28 q 599 17 624 -7 q 549 79 575 42 q 496 159 522 118 q 445 242 469 200 q 401 322 421 283 q 367 396 381 361 l 331 396 l 422 508 m 650 986 q 710 977 688 986 q 744 956 733 968 q 756 929 756 943 q 751 892 756 913 q 736 841 747 872 q 700 761 725 810 q 647 667 678 713 q 580 579 617 621 q 500 500 543 538 q 410 430 457 463 q 315 371 364 397 q 215 325 267 344 l 215 447 l 256 447 q 304 482 281 464 q 351 522 328 500 q 397 567 374 543 q 440 617 419 590 q 515 715 481 661 q 578 837 549 769 q 631 986 608 904 l 650 986 m 103 978 q 129 983 117 982 q 156 985 142 985 q 228 954 210 985 q 247 878 247 924 q 247 657 247 768 q 247 435 247 546 q 247 214 247 325 q 247 -8 247 103 q 226 -12 236 -11 q 204 -12 215 -12 q 140 7 163 -12 q 117 79 117 26 q 117 330 117 206 q 117 578 117 454 q 117 828 117 703 q 114 906 117 868 q 103 978 111 943 m 410 -97 q 427 -92 419 -93 q 444 -90 435 -90 q 463 -89 453 -89 q 515 -101 497 -89 q 532 -140 532 -112 q 524 -213 532 -176 q 504 -281 517 -250 q 476 -337 492 -312 q 453 -363 465 -357 q 426 -369 442 -369 q 390 -366 407 -369 q 357 -354 372 -362 q 389 -278 378 -317 q 405 -195 400 -239 q 410 -97 410 -151 z "},"L":{"ha":833,"x_min":106,"x_max":756,"o":"m 204 0 q 167 12 183 0 q 140 43 150 24 q 124 86 129 63 q 118 135 118 110 q 118 304 118 218 q 118 477 118 390 q 118 652 118 564 q 118 828 118 740 q 116 906 118 874 q 106 975 114 939 q 134 981 119 979 q 165 983 149 983 q 219 971 201 983 q 244 936 238 958 q 251 882 251 914 q 251 698 251 792 q 251 509 251 604 q 251 318 251 414 q 251 126 251 222 l 638 126 q 667 119 654 126 q 688 95 681 111 q 697 55 694 79 q 696 0 699 31 l 204 0 m 636 288 q 649 289 642 288 q 663 290 656 290 q 678 290 671 290 q 721 285 704 290 q 747 267 738 279 q 756 235 756 256 q 751 163 756 199 q 738 89 746 126 q 717 17 729 51 q 692 -47 704 -17 q 639 -43 660 -47 q 608 -29 618 -39 q 599 -6 599 -19 q 609 64 600 22 q 627 161 618 106 q 636 288 636 217 z "},"Ĺ":{"ha":833,"x_min":106,"x_max":756,"o":"m 204 0 q 167 12 183 0 q 140 43 150 24 q 124 86 129 63 q 118 135 118 110 q 118 304 118 218 q 118 477 118 390 q 118 652 118 564 q 118 828 118 740 q 116 906 118 874 q 106 975 114 939 q 134 981 119 979 q 165 983 149 983 q 219 971 201 983 q 244 936 238 958 q 251 882 251 914 q 251 698 251 792 q 251 509 251 604 q 251 318 251 414 q 251 126 251 222 l 638 126 q 667 119 654 126 q 688 95 681 111 q 697 55 694 79 q 696 0 699 31 l 204 0 m 636 288 q 649 289 642 288 q 663 290 656 290 q 678 290 671 290 q 721 285 704 290 q 747 267 738 279 q 756 235 756 256 q 751 163 756 199 q 738 89 746 126 q 717 17 729 51 q 692 -47 704 -17 q 639 -43 660 -47 q 608 -29 618 -39 q 599 -6 599 -19 q 609 64 600 22 q 627 161 618 106 q 636 288 636 217 m 283 1290 q 322 1289 304 1290 q 353 1285 339 1288 q 381 1278 367 1282 q 401 1258 397 1271 q 399 1231 404 1246 q 378 1189 390 1208 q 348 1151 365 1169 q 310 1118 331 1133 q 267 1090 290 1103 q 230 1075 249 1079 q 189 1071 211 1071 q 164 1073 176 1071 q 139 1079 151 1075 q 114 1090 126 1083 q 191 1152 157 1121 q 249 1217 225 1183 q 283 1290 272 1251 z "},"Ļ":{"ha":833,"x_min":106,"x_max":756,"o":"m 204 0 q 167 12 183 0 q 140 43 150 24 q 124 86 129 63 q 118 135 118 110 q 118 304 118 218 q 118 477 118 390 q 118 652 118 564 q 118 828 118 740 q 116 906 118 874 q 106 975 114 939 q 134 981 119 979 q 165 983 149 983 q 219 971 201 983 q 244 936 238 958 q 251 882 251 914 q 251 698 251 792 q 251 509 251 604 q 251 318 251 414 q 251 126 251 222 l 638 126 q 667 119 654 126 q 688 95 681 111 q 697 55 694 79 q 696 0 699 31 l 204 0 m 636 288 q 649 289 642 288 q 663 290 656 290 q 678 290 671 290 q 721 285 704 290 q 747 267 738 279 q 756 235 756 256 q 751 163 756 199 q 738 89 746 126 q 717 17 729 51 q 692 -47 704 -17 q 639 -43 660 -47 q 608 -29 618 -39 q 599 -6 599 -19 q 609 64 600 22 q 627 161 618 106 q 636 288 636 217 m 379 -97 q 397 -92 389 -93 q 413 -90 404 -90 q 432 -89 422 -89 q 484 -101 467 -89 q 501 -140 501 -112 q 494 -213 501 -176 q 474 -281 486 -250 q 446 -337 461 -312 q 423 -363 435 -357 q 396 -369 411 -369 q 359 -366 376 -369 q 326 -354 342 -362 q 358 -278 347 -317 q 374 -195 369 -239 q 379 -97 379 -151 z "},"Ľ":{"ha":833,"x_min":106,"x_max":756,"o":"m 204 0 q 167 12 183 0 q 140 43 150 24 q 124 86 129 63 q 118 135 118 110 q 118 304 118 218 q 118 477 118 390 q 118 652 118 564 q 118 828 118 740 q 116 906 118 874 q 106 975 114 939 q 134 981 119 979 q 165 983 149 983 q 219 971 201 983 q 244 936 238 958 q 251 882 251 914 q 251 698 251 792 q 251 509 251 604 q 251 318 251 414 q 251 126 251 222 l 638 126 q 667 119 654 126 q 688 95 681 111 q 697 55 694 79 q 696 0 699 31 l 204 0 m 636 288 q 649 289 642 288 q 663 290 656 290 q 678 290 671 290 q 721 285 704 290 q 747 267 738 279 q 756 235 756 256 q 751 163 756 199 q 738 89 746 126 q 717 17 729 51 q 692 -47 704 -17 q 639 -43 660 -47 q 608 -29 618 -39 q 599 -6 599 -19 q 609 64 600 22 q 627 161 618 106 q 636 288 636 217 m 603 979 q 652 967 635 979 q 669 929 669 954 q 663 856 669 893 q 642 788 656 819 q 610 736 628 757 q 590 722 600 725 q 565 718 581 718 q 539 721 550 718 q 515 729 528 724 q 538 809 531 776 q 548 878 544 842 q 551 969 551 915 q 577 976 565 974 q 603 979 589 979 z "},"Ḷ":{"ha":833,"x_min":106,"x_max":756,"o":"m 333 -125 q 351 -122 342 -124 q 368 -120 360 -121 q 385 -119 376 -119 q 403 -119 394 -119 q 478 -133 449 -119 q 507 -183 507 -146 l 507 -274 q 491 -276 500 -275 q 474 -278 482 -278 q 456 -279 465 -279 q 438 -279 447 -279 q 363 -265 393 -279 q 333 -215 333 -251 l 333 -125 m 204 0 q 167 12 183 0 q 140 43 150 24 q 124 86 129 63 q 118 135 118 110 q 118 304 118 218 q 118 477 118 390 q 118 652 118 564 q 118 828 118 740 q 116 906 118 874 q 106 975 114 939 q 134 981 119 979 q 165 983 149 983 q 219 971 201 983 q 244 936 238 958 q 251 882 251 914 q 251 698 251 792 q 251 509 251 604 q 251 318 251 414 q 251 126 251 222 l 638 126 q 667 119 654 126 q 688 95 681 111 q 697 55 694 79 q 696 0 699 31 l 204 0 m 636 288 q 649 289 642 288 q 663 290 656 290 q 678 290 671 290 q 721 285 704 290 q 747 267 738 279 q 756 235 756 254 q 751 163 756 199 q 738 89 746 126 q 717 17 729 51 q 692 -47 704 -17 q 639 -43 660 -47 q 608 -29 618 -39 q 599 -6 599 -19 q 609 64 600 22 q 627 161 618 106 q 636 288 636 217 z "},"Ḻ":{"ha":833,"x_min":106,"x_max":756,"o":"m 147 -157 l 632 -157 q 681 -175 668 -157 q 693 -228 693 -193 q 692 -242 693 -235 q 691 -255 692 -249 q 689 -267 690 -261 l 251 -267 q 186 -257 208 -267 q 156 -227 164 -247 q 147 -176 147 -207 q 147 -169 147 -172 q 147 -163 147 -167 q 147 -157 147 -160 m 204 0 q 167 12 183 0 q 140 43 150 24 q 124 86 129 63 q 118 135 118 110 q 118 304 118 218 q 118 477 118 390 q 118 652 118 564 q 118 828 118 740 q 116 906 118 874 q 106 975 114 939 q 134 981 119 979 q 165 983 149 983 q 219 971 201 983 q 244 936 238 958 q 251 882 251 914 q 251 698 251 792 q 251 509 251 604 q 251 318 251 414 q 251 126 251 222 l 638 126 q 667 119 654 126 q 688 95 681 111 q 697 55 694 79 q 696 0 699 31 l 204 0 m 636 288 q 649 289 642 288 q 663 290 656 290 q 678 290 671 290 q 721 285 704 290 q 747 267 738 279 q 756 235 756 254 q 751 163 756 199 q 738 89 746 126 q 717 17 729 51 q 692 -47 704 -17 q 639 -43 660 -47 q 608 -29 618 -39 q 599 -6 599 -19 q 609 64 600 22 q 627 161 618 106 q 636 288 636 217 z "},"M":{"ha":833,"x_min":85,"x_max":750,"o":"m 218 -8 q 201 -12 211 -11 q 181 -12 192 -12 q 139 -6 158 -12 q 108 15 119 0 q 97 56 97 31 q 97 248 97 151 q 97 442 97 344 q 97 635 97 539 q 97 829 97 732 q 94 903 97 867 q 85 972 90 939 q 111 977 99 975 q 136 980 124 979 q 160 981 149 981 q 215 972 192 981 q 252 944 238 964 q 274 889 267 925 q 292 793 282 843 q 316 692 303 743 q 347 592 329 642 q 387 496 365 543 q 438 406 408 449 l 386 446 l 449 446 l 399 407 q 448 497 425 450 q 490 597 471 544 q 526 708 510 650 q 553 833 542 767 q 574 972 565 899 q 593 977 583 975 q 613 980 603 979 q 633 981 622 981 q 694 972 672 981 q 726 940 717 963 q 736 878 736 917 q 736 767 736 824 q 736 649 736 710 q 736 526 736 589 q 736 398 736 463 q 736 269 736 333 q 736 140 736 204 q 738 90 736 115 q 742 42 739 65 q 750 -6 746 18 q 730 -10 740 -8 q 704 -12 719 -12 q 659 -5 679 -12 q 627 22 639 3 q 615 71 615 40 q 615 127 615 99 q 615 183 615 156 q 615 239 615 211 q 615 317 615 278 q 616 397 615 356 q 618 485 617 439 q 622 581 619 531 q 627 690 624 632 q 635 811 631 747 l 658 765 l 603 765 l 633 818 q 603 679 621 744 q 565 556 586 614 q 522 451 544 499 q 476 364 500 403 q 428 299 453 325 q 422 299 425 299 q 415 299 418 299 q 403 300 408 299 q 393 307 399 301 q 354 358 374 326 q 315 433 335 389 q 277 532 296 476 q 240 656 258 588 q 201 804 221 724 l 236 765 l 176 765 l 200 804 q 207 685 204 740 q 212 581 210 629 q 215 488 214 532 q 217 403 217 444 q 218 324 218 363 q 218 247 218 286 q 218 119 218 183 q 218 -8 218 56 z "},"Ṃ":{"ha":833,"x_min":85,"x_max":750,"o":"m 335 -125 q 351 -122 342 -124 q 369 -120 360 -121 q 387 -119 378 -119 q 404 -119 396 -119 q 479 -133 450 -119 q 508 -183 508 -146 l 508 -274 q 492 -276 500 -275 q 474 -278 483 -278 q 457 -279 465 -279 q 439 -279 449 -279 q 364 -265 393 -279 q 335 -215 335 -251 l 335 -125 m 218 -8 q 201 -12 211 -11 q 181 -12 192 -12 q 139 -6 158 -12 q 108 15 119 0 q 97 56 97 31 q 97 248 97 151 q 97 442 97 344 q 97 635 97 539 q 97 829 97 732 q 94 903 97 867 q 85 972 90 939 q 111 977 99 975 q 136 980 124 979 q 160 981 149 981 q 215 972 192 981 q 252 944 238 964 q 274 889 267 925 q 292 793 282 843 q 316 692 303 743 q 347 592 329 642 q 387 496 365 543 q 438 406 408 449 l 386 446 l 449 446 l 399 407 q 448 497 425 450 q 490 597 471 544 q 526 708 510 650 q 553 833 542 767 q 574 972 565 899 q 593 977 583 975 q 613 980 603 979 q 633 981 622 981 q 694 972 672 981 q 726 940 717 963 q 736 878 736 917 q 736 767 736 824 q 736 649 736 710 q 736 526 736 589 q 736 398 736 463 q 736 269 736 333 q 736 140 736 204 q 738 90 736 115 q 742 42 739 65 q 750 -6 746 18 q 730 -10 740 -8 q 704 -12 719 -12 q 659 -5 679 -12 q 627 22 639 3 q 615 71 615 40 q 615 127 615 99 q 615 183 615 156 q 615 239 615 211 q 615 317 615 278 q 616 397 615 356 q 618 485 617 439 q 622 581 619 531 q 627 690 624 632 q 635 811 631 747 l 658 765 l 603 765 l 633 818 q 603 679 621 744 q 565 556 586 614 q 522 451 544 499 q 476 364 500 403 q 428 299 453 325 q 422 299 425 299 q 415 299 418 299 q 403 300 408 299 q 393 307 399 301 q 354 358 374 326 q 315 433 335 389 q 277 532 296 476 q 240 656 258 588 q 201 804 221 724 l 236 765 l 176 765 l 200 804 q 207 685 204 740 q 212 581 210 629 q 215 488 214 532 q 217 403 217 444 q 218 324 218 363 q 218 247 218 286 q 218 119 218 183 q 218 -8 218 56 z "},"N":{"ha":833,"x_min":94,"x_max":738,"o":"m 229 -3 q 212 -7 221 -6 q 189 -8 203 -8 q 146 0 164 -8 q 118 27 128 8 q 108 75 108 46 q 108 264 108 169 q 108 452 108 358 q 108 640 108 546 q 108 828 108 733 q 106 900 108 858 q 94 978 103 942 q 122 982 110 981 q 145 984 133 983 q 168 985 157 985 q 238 975 211 985 q 280 942 264 965 q 304 879 296 919 q 337 752 319 814 q 377 631 354 690 q 426 511 400 571 q 483 393 451 451 q 553 276 515 335 q 636 156 592 217 l 585 185 l 656 185 l 625 151 q 619 271 622 213 q 614 386 615 329 q 611 501 613 443 q 610 617 610 558 q 610 736 610 675 q 610 859 610 799 q 610 981 610 919 q 626 984 615 983 q 649 985 636 985 q 707 967 683 985 q 731 908 731 950 q 731 721 731 815 q 731 532 731 626 q 731 342 731 438 q 731 151 731 247 q 732 73 731 113 q 738 -6 733 33 q 723 -10 731 -8 q 708 -12 715 -11 q 692 -14 700 -14 q 643 -7 664 -14 q 603 17 622 0 q 501 140 556 64 q 392 319 446 215 q 291 551 338 424 q 213 824 244 678 l 246 783 l 186 783 l 208 826 q 219 698 215 765 q 226 560 224 631 q 228 417 228 489 q 229 274 229 344 q 229 138 229 204 q 229 68 229 103 q 229 -3 229 33 z "},"Ñ":{"ha":833,"x_min":94,"x_max":738,"o":"m 229 -3 q 212 -7 221 -6 q 189 -8 203 -8 q 146 0 164 -8 q 118 27 128 8 q 108 75 108 46 q 108 264 108 169 q 108 452 108 358 q 108 640 108 546 q 108 828 108 733 q 106 900 108 858 q 94 978 103 942 q 122 982 110 981 q 145 984 133 983 q 168 985 157 985 q 238 975 211 985 q 280 942 264 965 q 304 879 296 919 q 337 752 319 814 q 377 631 354 690 q 426 511 400 571 q 483 393 451 451 q 553 276 515 335 q 636 156 592 217 l 585 185 l 656 185 l 625 151 q 619 271 622 213 q 614 386 615 329 q 611 501 613 443 q 610 617 610 558 q 610 736 610 675 q 610 859 610 799 q 610 981 610 919 q 626 984 615 983 q 649 985 636 985 q 707 967 683 985 q 731 908 731 950 q 731 721 731 815 q 731 532 731 626 q 731 342 731 438 q 731 151 731 247 q 732 73 731 113 q 738 -6 733 33 q 723 -10 731 -8 q 708 -12 715 -11 q 692 -14 700 -14 q 643 -7 664 -14 q 603 17 622 0 q 501 140 556 64 q 392 319 446 215 q 291 551 338 424 q 213 824 244 678 l 246 783 l 186 783 l 208 826 q 219 698 215 765 q 226 560 224 631 q 228 417 228 489 q 229 274 229 344 q 229 138 229 204 q 229 68 229 103 q 229 -3 229 33 m 554 1196 q 619 1212 590 1196 q 675 1260 647 1228 l 683 1260 q 690 1237 688 1251 q 692 1210 692 1222 q 688 1174 692 1188 q 679 1149 685 1160 q 637 1106 665 1121 q 565 1090 608 1090 q 492 1106 528 1090 q 421 1141 456 1121 q 350 1176 386 1161 q 276 1192 314 1192 q 213 1176 240 1192 q 156 1128 185 1161 l 147 1128 q 141 1152 143 1139 q 139 1178 139 1165 q 142 1213 139 1200 q 151 1238 146 1226 q 194 1281 165 1265 q 265 1297 222 1297 q 339 1282 303 1297 q 410 1247 375 1267 q 481 1211 446 1226 q 554 1196 517 1196 z "},"Ń":{"ha":833,"x_min":94,"x_max":738,"o":"m 229 -3 q 212 -7 221 -6 q 189 -8 203 -8 q 146 0 164 -8 q 118 27 128 8 q 108 75 108 46 q 108 264 108 169 q 108 452 108 358 q 108 640 108 546 q 108 828 108 733 q 106 900 108 858 q 94 978 103 942 q 122 982 110 981 q 145 984 133 983 q 168 985 157 985 q 238 975 211 985 q 280 942 264 965 q 304 879 296 919 q 337 752 319 814 q 377 631 354 690 q 426 511 400 571 q 483 393 451 451 q 553 276 515 335 q 636 156 592 217 l 585 185 l 656 185 l 625 151 q 619 271 622 213 q 614 386 615 329 q 611 501 613 443 q 610 617 610 558 q 610 736 610 675 q 610 859 610 799 q 610 981 610 919 q 626 984 615 983 q 649 985 636 985 q 707 967 683 985 q 731 908 731 950 q 731 721 731 815 q 731 532 731 626 q 731 342 731 438 q 731 151 731 247 q 732 73 731 113 q 738 -6 733 33 q 723 -10 731 -8 q 708 -12 715 -11 q 692 -14 700 -14 q 643 -7 664 -14 q 603 17 622 0 q 501 140 556 64 q 392 319 446 215 q 291 551 338 424 q 213 824 244 678 l 246 783 l 186 783 l 208 826 q 219 698 215 765 q 226 560 224 631 q 228 417 228 489 q 229 274 229 344 q 229 138 229 204 q 229 68 229 103 q 229 -3 229 33 m 514 1290 q 552 1289 535 1290 q 583 1285 569 1288 q 611 1278 597 1282 q 631 1258 628 1271 q 629 1231 635 1246 q 608 1189 621 1208 q 578 1151 596 1169 q 541 1118 561 1133 q 497 1090 521 1103 q 460 1075 479 1079 q 419 1071 442 1071 q 394 1073 407 1071 q 369 1079 382 1075 q 344 1090 357 1083 q 422 1152 388 1121 q 479 1217 456 1183 q 514 1290 503 1251 z "},"Ņ":{"ha":833,"x_min":94,"x_max":738,"o":"m 229 -3 q 212 -7 221 -6 q 189 -8 203 -8 q 146 0 164 -8 q 118 27 128 8 q 108 75 108 46 q 108 264 108 169 q 108 452 108 358 q 108 640 108 546 q 108 828 108 733 q 106 900 108 858 q 94 978 103 942 q 122 982 110 981 q 145 984 133 983 q 168 985 157 985 q 238 975 211 985 q 280 942 264 965 q 304 879 296 919 q 337 752 319 814 q 377 631 354 690 q 426 511 400 571 q 483 393 451 451 q 553 276 515 335 q 636 156 592 217 l 585 185 l 656 185 l 625 151 q 619 271 622 213 q 614 386 615 329 q 611 501 613 443 q 610 617 610 558 q 610 736 610 675 q 610 859 610 799 q 610 981 610 919 q 626 984 615 983 q 649 985 636 985 q 707 967 683 985 q 731 908 731 950 q 731 721 731 815 q 731 532 731 626 q 731 342 731 438 q 731 151 731 247 q 732 73 731 113 q 738 -6 733 33 q 723 -10 731 -8 q 708 -12 715 -11 q 692 -14 700 -14 q 643 -7 664 -14 q 603 17 622 0 q 501 140 556 64 q 392 319 446 215 q 291 551 338 424 q 213 824 244 678 l 246 783 l 186 783 l 208 826 q 219 698 215 765 q 226 560 224 631 q 228 417 228 489 q 229 274 229 344 q 229 138 229 204 q 229 68 229 103 q 229 -3 229 33 m 371 -97 q 388 -92 381 -93 q 405 -90 396 -90 q 424 -89 414 -89 q 476 -101 458 -89 q 493 -140 493 -112 q 485 -213 493 -176 q 465 -281 478 -250 q 438 -337 453 -312 q 415 -363 426 -357 q 388 -369 403 -369 q 351 -366 368 -369 q 318 -354 333 -362 q 350 -278 339 -317 q 366 -195 361 -239 q 371 -97 371 -151 z "},"Ň":{"ha":833,"x_min":94,"x_max":738,"o":"m 460 1089 q 447 1089 454 1089 q 431 1089 439 1089 q 415 1089 424 1089 q 367 1095 390 1089 q 306 1125 344 1101 q 258 1159 283 1140 q 210 1199 233 1178 q 165 1248 186 1221 q 124 1306 143 1275 q 158 1317 142 1314 q 199 1319 175 1319 q 236 1312 222 1319 q 265 1286 250 1304 q 339 1222 299 1251 q 451 1160 379 1192 l 372 1178 q 419 1178 396 1178 q 464 1178 442 1178 l 386 1158 q 518 1240 467 1199 q 597 1322 569 1282 l 606 1322 q 658 1318 639 1322 q 685 1307 676 1314 q 693 1292 693 1300 q 685 1266 693 1283 q 656 1226 678 1249 q 615 1185 636 1204 q 568 1148 593 1165 q 516 1116 543 1131 q 460 1089 489 1101 m 229 -3 q 212 -7 221 -6 q 189 -8 203 -8 q 146 0 164 -8 q 118 27 128 8 q 108 75 108 46 q 108 264 108 169 q 108 452 108 358 q 108 640 108 546 q 108 828 108 733 q 106 900 108 858 q 94 978 103 942 q 122 982 110 981 q 145 984 133 983 q 168 985 157 985 q 238 975 211 985 q 280 942 264 965 q 304 879 296 919 q 337 752 319 814 q 377 631 354 690 q 426 511 400 571 q 483 393 451 451 q 553 276 515 335 q 636 156 592 217 l 585 185 l 656 185 l 625 151 q 619 271 622 213 q 614 386 615 329 q 611 501 613 443 q 610 617 610 558 q 610 736 610 675 q 610 859 610 799 q 610 981 610 919 q 626 984 615 983 q 649 985 636 985 q 707 967 683 985 q 731 908 731 950 q 731 721 731 815 q 731 532 731 626 q 731 342 731 438 q 731 151 731 247 q 732 73 731 113 q 738 -6 733 33 q 723 -10 731 -8 q 708 -12 715 -11 q 692 -14 700 -14 q 643 -7 664 -14 q 603 17 622 0 q 501 140 556 64 q 392 319 446 215 q 291 551 338 424 q 213 824 244 678 l 246 783 l 186 783 l 208 826 q 219 698 215 765 q 226 560 224 631 q 228 417 228 489 q 229 274 229 344 q 229 138 229 204 q 229 68 229 103 q 229 -3 229 33 z "},"Ṅ":{"ha":833,"x_min":94,"x_max":738,"o":"m 324 1253 q 342 1258 332 1256 q 362 1262 351 1260 q 384 1264 372 1264 q 406 1264 396 1264 q 481 1248 453 1264 q 510 1194 510 1232 l 510 1111 q 492 1106 501 1108 q 474 1101 483 1103 q 455 1099 465 1100 q 433 1099 444 1099 q 354 1120 385 1099 q 324 1178 324 1142 l 324 1253 m 229 -3 q 212 -7 221 -6 q 189 -8 203 -8 q 146 0 164 -8 q 118 27 128 8 q 108 75 108 46 q 108 264 108 169 q 108 452 108 358 q 108 640 108 546 q 108 828 108 733 q 106 900 108 858 q 94 978 103 942 q 122 982 110 981 q 145 984 133 983 q 168 985 157 985 q 238 975 211 985 q 280 942 264 965 q 304 879 296 919 q 337 752 319 814 q 377 631 354 690 q 426 511 400 571 q 483 393 451 451 q 553 276 515 335 q 636 156 592 217 l 585 185 l 656 185 l 625 151 q 619 271 622 213 q 614 386 615 329 q 611 501 613 443 q 610 617 610 558 q 610 736 610 675 q 610 859 610 799 q 610 981 610 919 q 626 984 615 983 q 649 985 636 985 q 707 967 683 985 q 731 908 731 950 q 731 721 731 815 q 731 532 731 626 q 731 342 731 438 q 731 151 731 247 q 732 73 731 113 q 738 -6 733 33 q 723 -10 731 -8 q 708 -12 715 -11 q 692 -14 700 -14 q 643 -7 664 -14 q 603 17 622 0 q 501 140 556 64 q 392 319 446 215 q 291 551 338 424 q 213 824 244 678 l 246 783 l 186 783 l 208 826 q 219 698 215 765 q 226 560 224 631 q 228 417 228 489 q 229 274 229 344 q 229 138 229 204 q 229 68 229 103 q 229 -3 229 33 z "},"Ṇ":{"ha":833,"x_min":94,"x_max":738,"o":"m 325 -125 q 342 -122 333 -124 q 360 -120 351 -121 q 377 -119 368 -119 q 394 -119 386 -119 q 469 -133 440 -119 q 499 -183 499 -146 l 499 -274 q 483 -276 492 -275 q 465 -278 474 -278 q 448 -279 457 -279 q 429 -279 439 -279 q 355 -265 385 -279 q 325 -215 325 -251 l 325 -125 m 229 -3 q 212 -7 221 -6 q 189 -8 203 -8 q 146 0 164 -8 q 118 27 128 8 q 108 75 108 46 q 108 264 108 169 q 108 452 108 358 q 108 640 108 546 q 108 828 108 733 q 106 900 108 858 q 94 978 103 942 q 122 982 110 981 q 145 984 133 983 q 168 985 157 985 q 238 975 211 985 q 280 942 264 965 q 304 879 296 919 q 337 752 319 814 q 377 631 354 690 q 426 511 400 571 q 483 393 451 451 q 553 276 515 335 q 636 156 592 217 l 585 185 l 656 185 l 625 151 q 619 271 622 213 q 614 386 615 329 q 611 501 613 443 q 610 617 610 558 q 610 736 610 675 q 610 859 610 799 q 610 981 610 919 q 626 984 615 983 q 649 985 636 985 q 707 967 683 985 q 731 908 731 950 q 731 721 731 815 q 731 532 731 626 q 731 342 731 438 q 731 151 731 247 q 732 73 731 113 q 738 -6 733 33 q 723 -10 731 -8 q 708 -12 715 -11 q 692 -14 700 -14 q 643 -7 664 -14 q 603 17 622 0 q 501 140 556 64 q 392 319 446 215 q 291 551 338 424 q 213 824 244 678 l 246 783 l 186 783 l 208 826 q 219 698 215 765 q 226 560 224 631 q 228 417 228 489 q 229 274 229 344 q 229 138 229 204 q 229 68 229 103 q 229 -3 229 33 z "},"Ṉ":{"ha":833,"x_min":94,"x_max":738,"o":"m 140 -157 l 624 -157 q 672 -175 660 -157 q 685 -228 685 -193 q 684 -242 685 -235 q 683 -255 683 -249 q 681 -267 682 -261 l 243 -267 q 178 -257 200 -267 q 148 -227 156 -247 q 140 -176 140 -207 q 140 -169 140 -172 q 140 -163 140 -167 q 140 -157 140 -160 m 229 -3 q 212 -7 221 -6 q 189 -8 203 -8 q 146 0 164 -8 q 118 27 128 8 q 108 75 108 46 q 108 264 108 169 q 108 452 108 358 q 108 640 108 546 q 108 828 108 733 q 106 900 108 858 q 94 978 103 942 q 122 982 110 981 q 145 984 133 983 q 168 985 157 985 q 238 975 211 985 q 280 942 264 965 q 304 879 296 919 q 337 752 319 814 q 377 631 354 690 q 426 511 400 571 q 483 393 451 451 q 553 276 515 335 q 636 156 592 217 l 585 185 l 656 185 l 625 151 q 619 271 622 213 q 614 386 615 329 q 611 501 613 443 q 610 617 610 558 q 610 736 610 675 q 610 859 610 799 q 610 981 610 919 q 626 984 615 983 q 649 985 636 985 q 707 967 683 985 q 731 908 731 950 q 731 721 731 815 q 731 532 731 626 q 731 342 731 438 q 731 151 731 247 q 732 73 731 113 q 738 -6 733 33 q 723 -10 731 -8 q 708 -12 715 -11 q 692 -14 700 -14 q 643 -7 664 -14 q 603 17 622 0 q 501 140 556 64 q 392 319 446 215 q 291 551 338 424 q 213 824 244 678 l 246 783 l 186 783 l 208 826 q 219 698 215 765 q 226 560 224 631 q 228 417 228 489 q 229 274 229 344 q 229 138 229 204 q 229 68 229 103 q 229 -3 229 33 z "},"O":{"ha":833,"x_min":82,"x_max":751,"o":"m 418 1000 q 604 942 531 1000 q 715 772 678 883 q 751 504 751 661 l 751 471 q 712 203 751 315 q 598 32 672 92 q 418 -28 524 -28 q 231 27 306 -26 q 119 185 156 81 q 82 436 82 289 l 82 469 q 122 753 82 635 q 237 936 161 872 q 418 1000 313 1000 m 208 426 q 231 241 208 315 q 283 128 253 167 q 342 106 314 113 q 404 99 371 99 q 528 145 479 99 q 601 279 576 192 q 625 488 625 367 l 625 514 q 615 660 625 597 q 585 768 604 722 q 543 847 567 814 q 489 867 515 861 q 429 874 463 874 q 306 823 354 874 q 233 678 257 772 q 208 451 208 583 l 208 426 z "},"Ò":{"ha":833,"x_min":82,"x_max":751,"o":"m 418 1000 q 604 942 531 1000 q 715 772 678 883 q 751 504 751 661 l 751 471 q 712 203 751 315 q 598 32 672 92 q 418 -28 524 -28 q 231 27 306 -26 q 119 185 156 81 q 82 436 82 289 l 82 469 q 122 753 82 635 q 237 936 161 872 q 418 1000 313 1000 m 208 426 q 231 241 208 315 q 283 128 253 167 q 342 106 314 113 q 404 99 371 99 q 528 145 479 99 q 601 279 576 192 q 625 488 625 367 l 625 514 q 615 660 625 597 q 585 768 604 722 q 543 847 567 814 q 489 867 515 861 q 429 874 463 874 q 306 823 354 874 q 233 678 257 772 q 208 451 208 583 l 208 426 m 319 1299 q 355 1225 332 1260 q 412 1160 378 1190 q 489 1097 446 1129 q 464 1088 476 1092 q 440 1081 451 1083 q 414 1079 428 1079 q 376 1083 393 1079 q 340 1097 358 1086 q 296 1125 317 1110 q 258 1158 275 1140 q 227 1197 240 1176 q 206 1236 214 1217 q 201 1265 199 1253 q 219 1285 204 1278 q 249 1294 233 1290 q 281 1299 264 1297 q 319 1299 299 1300 z "},"Ó":{"ha":833,"x_min":82,"x_max":751,"o":"m 418 1000 q 604 942 531 1000 q 715 772 678 883 q 751 504 751 661 l 751 471 q 712 203 751 315 q 598 32 672 92 q 418 -28 524 -28 q 231 27 306 -26 q 119 185 156 81 q 82 436 82 289 l 82 469 q 122 753 82 635 q 237 936 161 872 q 418 1000 313 1000 m 208 426 q 231 241 208 315 q 283 128 253 167 q 342 106 314 113 q 404 99 371 99 q 528 145 479 99 q 601 279 576 192 q 625 488 625 367 l 625 514 q 615 660 625 597 q 585 768 604 722 q 543 847 567 814 q 489 867 515 861 q 429 874 463 874 q 306 823 354 874 q 233 678 257 772 q 208 451 208 583 l 208 426 m 514 1290 q 552 1289 535 1290 q 583 1285 569 1288 q 611 1278 597 1282 q 631 1258 628 1271 q 629 1231 635 1246 q 608 1189 621 1208 q 578 1151 596 1169 q 541 1118 561 1133 q 497 1090 521 1103 q 460 1075 479 1079 q 419 1071 442 1071 q 394 1073 407 1071 q 369 1079 382 1075 q 344 1090 357 1083 q 422 1152 388 1121 q 479 1217 456 1183 q 514 1290 503 1251 z "},"Ô":{"ha":833,"x_min":82,"x_max":751,"o":"m 418 1000 q 604 942 531 1000 q 715 772 678 883 q 751 504 751 661 l 751 471 q 712 203 751 315 q 598 32 672 92 q 418 -28 524 -28 q 231 27 306 -26 q 119 185 156 81 q 82 436 82 289 l 82 469 q 122 753 82 635 q 237 936 161 872 q 418 1000 313 1000 m 208 426 q 231 241 208 315 q 283 128 253 167 q 342 106 314 113 q 404 99 371 99 q 528 145 479 99 q 601 279 576 192 q 625 488 625 367 l 625 514 q 615 660 625 597 q 585 768 604 722 q 543 847 567 814 q 489 867 515 861 q 429 874 463 874 q 306 823 354 874 q 233 678 257 772 q 208 451 208 583 l 208 426 m 375 1303 q 390 1303 382 1303 q 405 1303 397 1303 q 419 1303 413 1303 q 467 1297 444 1303 q 529 1267 490 1292 q 576 1234 551 1253 q 625 1193 601 1215 q 670 1144 649 1171 q 711 1088 692 1118 q 676 1076 693 1081 q 636 1072 660 1072 q 599 1080 613 1072 q 569 1106 586 1088 q 496 1171 536 1142 q 383 1232 456 1200 l 463 1215 q 417 1215 440 1215 q 371 1215 394 1215 l 449 1233 q 317 1151 368 1193 q 238 1071 265 1110 l 229 1071 q 178 1074 197 1071 q 150 1085 158 1078 q 142 1101 142 1093 q 150 1126 142 1110 q 179 1167 158 1143 q 220 1207 199 1188 q 267 1244 242 1226 q 319 1277 292 1263 q 375 1303 346 1292 z "},"Õ":{"ha":833,"x_min":82,"x_max":751,"o":"m 418 1000 q 604 942 531 1000 q 715 772 678 883 q 751 504 751 661 l 751 471 q 712 203 751 315 q 598 32 672 92 q 418 -28 524 -28 q 231 27 306 -26 q 119 185 156 81 q 82 436 82 289 l 82 469 q 122 753 82 635 q 237 936 161 872 q 418 1000 313 1000 m 208 426 q 231 241 208 315 q 283 128 253 167 q 342 106 314 113 q 404 99 371 99 q 528 145 479 99 q 601 279 576 192 q 625 488 625 367 l 625 514 q 615 660 625 597 q 585 768 604 722 q 543 847 567 814 q 489 867 515 861 q 429 874 463 874 q 306 823 354 874 q 233 678 257 772 q 208 451 208 583 l 208 426 m 554 1196 q 619 1212 590 1196 q 675 1260 647 1228 l 683 1260 q 690 1237 688 1251 q 692 1210 692 1222 q 688 1174 692 1188 q 679 1149 685 1160 q 637 1106 665 1121 q 565 1090 608 1090 q 492 1106 528 1090 q 421 1141 456 1121 q 350 1176 386 1161 q 276 1192 314 1192 q 213 1176 240 1192 q 156 1128 185 1161 l 147 1128 q 141 1152 143 1139 q 139 1178 139 1165 q 142 1213 139 1200 q 151 1238 146 1226 q 194 1281 165 1265 q 265 1297 222 1297 q 339 1282 303 1297 q 410 1247 375 1267 q 481 1211 446 1226 q 554 1196 517 1196 z "},"Ö":{"ha":833,"x_min":82,"x_max":751,"o":"m 418 1000 q 604 942 531 1000 q 715 772 678 883 q 751 504 751 661 l 751 471 q 712 203 751 315 q 598 32 672 92 q 418 -28 524 -28 q 231 27 306 -26 q 119 185 156 81 q 82 436 82 289 l 82 469 q 122 753 82 635 q 237 936 161 872 q 418 1000 313 1000 m 208 426 q 231 241 208 315 q 283 128 253 167 q 342 106 314 113 q 404 99 371 99 q 528 145 479 99 q 601 279 576 192 q 625 488 625 367 l 625 514 q 615 660 625 597 q 585 768 604 722 q 543 847 567 814 q 489 867 515 861 q 429 874 463 874 q 306 823 354 874 q 233 678 257 772 q 208 451 208 583 l 208 426 m 194 1261 q 225 1265 208 1264 q 256 1265 242 1265 q 303 1260 282 1265 q 337 1243 324 1256 q 350 1208 350 1231 l 350 1110 q 319 1107 336 1108 q 288 1106 303 1106 q 242 1111 264 1106 q 208 1129 221 1117 q 194 1164 194 1142 l 194 1261 m 483 1261 q 514 1265 497 1264 q 544 1265 531 1265 q 592 1260 571 1265 q 626 1243 613 1256 q 639 1208 639 1231 l 639 1110 q 608 1107 625 1108 q 576 1106 592 1106 q 531 1111 553 1106 q 497 1129 510 1117 q 483 1164 483 1142 l 483 1261 z "},"Ō":{"ha":833,"x_min":82,"x_max":751,"o":"m 418 1000 q 604 942 531 1000 q 715 772 678 883 q 751 504 751 661 l 751 471 q 712 203 751 315 q 598 32 672 92 q 418 -28 524 -28 q 231 27 306 -26 q 119 185 156 81 q 82 436 82 289 l 82 469 q 122 753 82 635 q 237 936 161 872 q 418 1000 313 1000 m 208 426 q 231 241 208 315 q 283 128 253 167 q 342 106 314 113 q 404 99 371 99 q 528 145 479 99 q 601 279 576 192 q 625 488 625 367 l 625 514 q 615 660 625 597 q 585 768 604 722 q 543 847 567 814 q 489 867 515 861 q 429 874 463 874 q 306 823 354 874 q 233 678 257 772 q 208 451 208 583 l 208 426 m 143 1226 l 628 1226 q 676 1209 664 1226 q 689 1156 689 1192 q 688 1135 689 1146 q 685 1117 686 1125 l 246 1117 q 182 1126 204 1117 q 151 1156 160 1136 q 143 1207 143 1176 q 143 1217 143 1213 q 143 1226 143 1222 z "},"Ŏ":{"ha":833,"x_min":82,"x_max":751,"o":"m 418 1000 q 604 942 531 1000 q 715 772 678 883 q 751 504 751 661 l 751 471 q 712 203 751 315 q 598 32 672 92 q 418 -28 524 -28 q 231 27 306 -26 q 119 185 156 81 q 82 436 82 289 l 82 469 q 122 753 82 635 q 237 936 161 872 q 418 1000 313 1000 m 208 426 q 231 241 208 315 q 283 128 253 167 q 342 106 314 113 q 404 99 371 99 q 528 145 479 99 q 601 279 576 192 q 625 488 625 367 l 625 514 q 615 660 625 597 q 585 768 604 722 q 543 847 567 814 q 489 867 515 861 q 429 874 463 874 q 306 823 354 874 q 233 678 257 772 q 208 451 208 583 l 208 426 m 581 1306 q 622 1301 604 1306 q 653 1288 639 1296 q 663 1272 661 1281 q 660 1250 665 1263 q 613 1171 644 1204 q 533 1119 581 1138 q 422 1101 486 1101 l 411 1101 q 301 1119 349 1101 q 221 1171 253 1138 q 174 1250 189 1204 q 170 1272 168 1263 q 181 1288 172 1281 q 212 1301 194 1296 q 253 1306 229 1306 q 311 1230 274 1256 q 417 1199 349 1204 q 522 1230 485 1204 q 581 1306 560 1256 z "},"Ő":{"ha":833,"x_min":82,"x_max":761,"o":"m 343 1290 q 381 1289 364 1290 q 412 1285 397 1288 q 440 1278 426 1282 q 460 1258 457 1271 q 458 1231 464 1246 q 438 1189 450 1208 q 408 1151 425 1169 q 370 1118 390 1133 q 326 1090 350 1103 q 290 1075 308 1079 q 249 1071 271 1071 q 224 1073 236 1071 q 199 1079 211 1075 q 174 1090 186 1083 q 251 1152 217 1121 q 308 1217 285 1183 q 343 1290 332 1251 m 642 1290 q 679 1289 663 1290 q 710 1285 696 1288 q 739 1278 725 1282 q 758 1258 756 1271 q 757 1231 761 1246 q 735 1189 749 1208 q 706 1151 722 1169 q 669 1118 689 1133 q 625 1090 649 1103 q 588 1075 606 1079 q 547 1071 569 1071 q 522 1073 535 1071 q 497 1079 510 1075 q 472 1090 485 1083 q 549 1152 515 1121 q 607 1217 583 1183 q 642 1290 631 1251 m 418 1000 q 604 942 531 1000 q 715 772 678 883 q 751 504 751 661 l 751 471 q 712 203 751 315 q 598 32 672 92 q 418 -28 524 -28 q 231 27 306 -26 q 119 185 156 81 q 82 436 82 289 l 82 469 q 122 753 82 635 q 237 936 161 872 q 418 1000 313 1000 m 208 426 q 231 241 208 315 q 283 128 253 167 q 342 106 314 113 q 404 99 371 99 q 528 145 479 99 q 601 279 576 192 q 625 488 625 367 l 625 514 q 615 660 625 597 q 585 768 604 722 q 543 847 567 814 q 489 867 515 861 q 429 874 463 874 q 306 823 354 874 q 233 678 257 772 q 208 451 208 583 l 208 426 z "},"Ơ":{"ha":833,"x_min":82,"x_max":792,"o":"m 418 1000 q 604 942 531 1000 q 715 772 678 883 q 751 504 751 661 l 751 471 q 712 203 751 315 q 598 32 672 92 q 418 -28 524 -28 q 231 27 306 -26 q 119 185 156 81 q 82 436 82 289 l 82 469 q 122 753 82 635 q 237 936 161 872 q 418 1000 313 1000 m 208 426 q 231 241 208 315 q 283 128 253 167 q 342 106 314 113 q 404 99 371 99 q 528 145 479 99 q 601 279 576 192 q 625 488 625 367 l 625 514 q 615 660 625 597 q 585 768 604 722 q 543 847 567 814 q 489 867 515 861 q 429 874 463 874 q 306 823 354 874 q 233 678 257 772 q 208 451 208 583 l 208 426 m 658 1133 q 684 1144 669 1140 q 718 1147 699 1147 q 773 1128 754 1147 q 792 1067 792 1108 q 774 978 792 1014 q 726 921 756 943 q 689 900 707 908 q 653 888 671 892 q 618 885 636 885 q 606 885 613 885 q 593 885 600 885 q 593 898 593 892 q 593 910 593 904 q 593 923 593 915 q 593 940 593 931 q 619 943 606 940 q 646 956 633 946 q 669 985 661 965 q 678 1039 678 1006 q 673 1087 678 1064 q 658 1133 668 1110 z "},"Ǫ":{"ha":833,"x_min":82,"x_max":751,"o":"m 418 1000 q 604 942 531 1000 q 715 772 678 883 q 751 504 751 661 l 751 471 q 712 203 751 315 q 598 32 672 92 q 418 -28 524 -28 q 231 27 306 -26 q 119 185 156 81 q 82 436 82 289 l 82 469 q 122 753 82 635 q 237 936 161 872 q 418 1000 313 1000 m 208 426 q 231 241 208 315 q 283 128 253 167 q 342 106 314 113 q 404 99 371 99 q 528 145 479 99 q 601 279 576 192 q 625 488 625 367 l 625 514 q 615 660 625 597 q 585 768 604 722 q 543 847 567 814 q 489 867 515 861 q 429 874 463 874 q 306 823 354 874 q 233 678 257 772 q 208 451 208 583 l 208 426 m 614 100 q 640 117 625 108 q 675 132 656 125 q 667 113 672 125 q 650 83 661 100 q 605 10 626 49 q 571 -67 583 -29 q 558 -144 558 -106 q 577 -206 558 -187 q 629 -224 596 -224 q 678 -216 656 -224 q 724 -192 700 -208 l 732 -192 q 739 -210 736 -201 q 743 -228 742 -219 q 744 -249 744 -236 q 707 -322 744 -297 q 606 -347 669 -347 q 490 -307 531 -347 q 449 -187 449 -267 q 464 -96 449 -139 q 503 -14 479 -53 q 557 53 528 25 q 614 100 586 82 z "},"Ȍ":{"ha":833,"x_min":82,"x_max":751,"o":"m 206 1300 q 240 1226 218 1260 q 297 1160 263 1192 q 375 1099 331 1129 q 349 1088 361 1092 q 325 1082 338 1083 q 299 1081 313 1081 q 262 1084 279 1081 q 225 1097 244 1088 q 181 1126 201 1110 q 143 1159 161 1142 q 112 1197 125 1176 q 90 1238 99 1217 q 88 1265 85 1253 q 106 1285 90 1278 q 134 1294 119 1292 q 167 1299 149 1297 q 206 1300 185 1300 m 469 1300 q 506 1226 483 1260 q 562 1160 528 1192 q 639 1099 596 1129 q 615 1088 626 1092 q 590 1082 603 1083 q 564 1081 578 1081 q 527 1084 544 1081 q 490 1097 510 1088 q 446 1126 467 1110 q 408 1159 425 1142 q 377 1197 390 1176 q 356 1238 364 1217 q 351 1265 349 1253 q 371 1285 354 1278 q 399 1294 383 1292 q 431 1299 414 1297 q 469 1300 449 1300 m 418 1000 q 604 942 531 1000 q 715 772 678 883 q 751 504 751 661 l 751 471 q 712 203 751 315 q 598 32 672 92 q 418 -28 524 -28 q 231 27 306 -26 q 119 185 156 81 q 82 436 82 289 l 82 469 q 122 753 82 635 q 237 936 161 872 q 418 1000 313 1000 m 208 426 q 231 241 208 315 q 283 128 253 167 q 342 106 314 113 q 404 99 371 99 q 528 145 479 99 q 601 279 576 192 q 625 488 625 367 l 625 514 q 615 660 625 597 q 585 768 604 722 q 543 847 567 814 q 489 867 515 861 q 429 874 463 874 q 306 823 354 874 q 233 678 257 772 q 208 451 208 583 l 208 426 z "},"Ȏ":{"ha":833,"x_min":82,"x_max":751,"o":"m 253 1093 q 212 1099 229 1094 q 181 1113 194 1104 q 170 1127 172 1118 q 174 1149 168 1136 q 221 1228 189 1196 q 301 1279 253 1261 q 411 1297 349 1297 l 422 1297 q 533 1279 486 1297 q 613 1228 581 1261 q 660 1149 644 1196 q 663 1127 665 1136 q 653 1113 661 1118 q 622 1099 639 1104 q 581 1093 604 1094 q 522 1170 560 1144 q 417 1200 485 1196 q 311 1170 349 1196 q 253 1093 274 1144 m 418 1000 q 604 942 531 1000 q 715 772 678 883 q 751 504 751 661 l 751 471 q 712 203 751 315 q 598 32 672 92 q 418 -28 524 -28 q 231 27 306 -26 q 119 185 156 81 q 82 436 82 289 l 82 469 q 122 753 82 635 q 237 936 161 872 q 418 1000 313 1000 m 208 426 q 231 241 208 315 q 283 128 253 167 q 342 106 314 113 q 404 99 371 99 q 528 145 479 99 q 601 279 576 192 q 625 488 625 367 l 625 514 q 615 660 625 597 q 585 768 604 722 q 543 847 567 814 q 489 867 515 861 q 429 874 463 874 q 306 823 354 874 q 233 678 257 772 q 208 451 208 583 l 208 426 z "},"Ȫ":{"ha":833,"x_min":82,"x_max":751,"o":"m 418 1000 q 604 942 531 1000 q 715 772 678 883 q 751 504 751 661 l 751 471 q 712 203 751 315 q 598 32 672 92 q 418 -28 524 -28 q 231 27 306 -26 q 119 185 156 81 q 82 436 82 289 l 82 469 q 122 753 82 635 q 237 936 161 872 q 418 1000 313 1000 m 208 426 q 231 241 208 315 q 283 128 253 167 q 342 106 314 113 q 404 99 371 99 q 528 145 479 99 q 601 279 576 192 q 625 488 625 367 l 625 514 q 615 660 625 597 q 585 768 604 722 q 543 847 567 814 q 489 867 515 861 q 429 874 463 874 q 306 823 354 874 q 233 678 257 772 q 208 451 208 583 l 208 426 m 194 1261 q 225 1265 208 1264 q 256 1265 242 1265 q 303 1260 282 1265 q 337 1243 324 1256 q 350 1208 350 1231 l 350 1110 q 319 1107 336 1108 q 288 1106 303 1106 q 242 1111 264 1106 q 208 1129 221 1117 q 194 1164 194 1142 l 194 1261 m 483 1261 q 514 1265 497 1264 q 544 1265 531 1265 q 592 1260 571 1265 q 626 1243 613 1256 q 639 1208 639 1231 l 639 1110 q 608 1107 625 1108 q 576 1106 592 1106 q 531 1111 553 1106 q 497 1129 510 1117 q 483 1164 483 1142 l 483 1261 m 143 1474 l 628 1474 q 676 1456 664 1474 q 689 1403 689 1439 q 688 1383 689 1393 q 685 1364 686 1372 l 246 1364 q 182 1374 204 1364 q 151 1403 160 1383 q 143 1454 143 1424 q 143 1465 143 1460 q 143 1474 143 1469 z "},"Ȭ":{"ha":833,"x_min":82,"x_max":751,"o":"m 418 1000 q 604 942 531 1000 q 715 772 678 883 q 751 504 751 661 l 751 471 q 712 203 751 315 q 598 32 672 92 q 418 -28 524 -28 q 231 27 306 -26 q 119 185 156 81 q 82 436 82 289 l 82 469 q 122 753 82 635 q 237 936 161 872 q 418 1000 313 1000 m 208 426 q 231 241 208 315 q 283 128 253 167 q 342 106 314 113 q 404 99 371 99 q 528 145 479 99 q 601 279 576 192 q 625 488 625 367 l 625 514 q 615 660 625 597 q 585 768 604 722 q 543 847 567 814 q 489 867 515 861 q 429 874 463 874 q 306 823 354 874 q 233 678 257 772 q 208 451 208 583 l 208 426 m 554 1196 q 619 1212 590 1196 q 675 1260 647 1228 l 683 1260 q 690 1237 688 1251 q 692 1210 692 1222 q 688 1174 692 1188 q 679 1149 685 1160 q 637 1106 665 1121 q 565 1090 608 1090 q 492 1106 528 1090 q 421 1141 456 1121 q 350 1176 386 1161 q 276 1192 314 1192 q 213 1176 240 1192 q 156 1128 185 1161 l 147 1128 q 141 1152 143 1139 q 139 1178 139 1165 q 142 1213 139 1200 q 151 1238 146 1226 q 194 1281 165 1265 q 265 1297 222 1297 q 339 1282 303 1297 q 410 1247 375 1267 q 481 1211 446 1226 q 554 1196 517 1196 m 143 1481 l 628 1481 q 676 1463 664 1481 q 689 1410 689 1446 q 688 1390 689 1400 q 685 1371 686 1379 l 246 1371 q 182 1381 204 1371 q 151 1410 160 1390 q 143 1461 143 1431 q 143 1472 143 1467 q 143 1481 143 1476 z "},"Ȱ":{"ha":833,"x_min":82,"x_max":751,"o":"m 324 1253 q 342 1258 332 1256 q 362 1262 351 1260 q 384 1264 372 1264 q 406 1264 396 1264 q 481 1248 453 1264 q 510 1194 510 1232 l 510 1111 q 492 1106 501 1108 q 474 1101 483 1103 q 455 1099 465 1100 q 433 1099 444 1099 q 354 1120 385 1099 q 324 1178 324 1142 l 324 1253 m 418 1000 q 604 942 531 1000 q 715 772 678 883 q 751 504 751 661 l 751 471 q 712 203 751 315 q 598 32 672 92 q 418 -28 524 -28 q 231 27 306 -26 q 119 185 156 81 q 82 436 82 289 l 82 469 q 122 753 82 635 q 237 936 161 872 q 418 1000 313 1000 m 208 426 q 231 241 208 315 q 283 128 253 167 q 342 106 314 113 q 404 99 371 99 q 528 145 479 99 q 601 279 576 192 q 625 488 625 367 l 625 514 q 615 660 625 597 q 585 768 604 722 q 543 847 567 814 q 489 867 515 861 q 429 874 463 874 q 306 823 354 874 q 233 678 257 772 q 208 451 208 583 l 208 426 m 143 1444 l 628 1444 q 676 1427 664 1444 q 689 1374 689 1410 q 688 1353 689 1364 q 685 1335 686 1343 l 246 1335 q 182 1344 204 1335 q 151 1374 160 1354 q 143 1425 143 1394 q 143 1435 143 1431 q 143 1444 143 1440 z "},"Ṍ":{"ha":833,"x_min":82,"x_max":751,"o":"m 418 1000 q 604 942 531 1000 q 715 772 678 883 q 751 504 751 661 l 751 471 q 712 203 751 315 q 598 32 672 92 q 418 -28 524 -28 q 231 27 306 -26 q 119 185 156 81 q 82 436 82 289 l 82 469 q 122 753 82 635 q 237 936 161 872 q 418 1000 313 1000 m 208 426 q 231 241 208 315 q 283 128 253 167 q 342 106 314 113 q 404 99 371 99 q 528 145 479 99 q 601 279 576 192 q 625 488 625 367 l 625 514 q 615 660 625 597 q 585 768 604 722 q 543 847 567 814 q 489 867 515 861 q 429 874 463 874 q 306 823 354 874 q 233 678 257 772 q 208 451 208 583 l 208 426 m 554 1196 q 619 1212 590 1196 q 675 1260 647 1228 l 683 1260 q 690 1237 688 1251 q 692 1210 692 1222 q 688 1174 692 1188 q 679 1149 685 1160 q 637 1106 665 1121 q 565 1090 608 1090 q 492 1106 528 1090 q 421 1141 456 1121 q 350 1176 386 1161 q 276 1192 314 1192 q 213 1176 240 1192 q 156 1128 185 1161 l 147 1128 q 141 1152 143 1139 q 139 1178 139 1165 q 142 1213 139 1200 q 151 1238 146 1226 q 194 1281 165 1265 q 265 1297 222 1297 q 339 1282 303 1297 q 410 1247 375 1267 q 481 1211 446 1226 q 554 1196 517 1196 m 514 1544 q 552 1543 535 1544 q 583 1539 569 1542 q 611 1532 597 1536 q 631 1513 628 1525 q 629 1485 635 1500 q 608 1443 621 1463 q 578 1406 596 1424 q 541 1372 561 1388 q 497 1344 521 1357 q 460 1329 479 1333 q 419 1325 442 1325 q 394 1327 407 1325 q 369 1333 382 1329 q 344 1344 357 1338 q 422 1406 388 1375 q 479 1472 456 1438 q 514 1544 503 1506 z "},"Ṏ":{"ha":833,"x_min":82,"x_max":751,"o":"m 418 1000 q 604 942 531 1000 q 715 772 678 883 q 751 504 751 661 l 751 471 q 712 203 751 315 q 598 32 672 92 q 418 -28 524 -28 q 231 27 306 -26 q 119 185 156 81 q 82 436 82 289 l 82 469 q 122 753 82 635 q 237 936 161 872 q 418 1000 313 1000 m 208 426 q 231 241 208 315 q 283 128 253 167 q 342 106 314 113 q 404 99 371 99 q 528 145 479 99 q 601 279 576 192 q 625 488 625 367 l 625 514 q 615 660 625 597 q 585 768 604 722 q 543 847 567 814 q 489 867 515 861 q 429 874 463 874 q 306 823 354 874 q 233 678 257 772 q 208 451 208 583 l 208 426 m 554 1196 q 619 1212 590 1196 q 675 1260 647 1228 l 683 1260 q 690 1237 688 1251 q 692 1210 692 1222 q 688 1174 692 1188 q 679 1149 685 1160 q 637 1106 665 1121 q 565 1090 608 1090 q 492 1106 528 1090 q 421 1141 456 1121 q 350 1176 386 1161 q 276 1192 314 1192 q 213 1176 240 1192 q 156 1128 185 1161 l 147 1128 q 141 1152 143 1139 q 139 1178 139 1165 q 142 1213 139 1200 q 151 1238 146 1226 q 194 1281 165 1265 q 265 1297 222 1297 q 339 1282 303 1297 q 410 1247 375 1267 q 481 1211 446 1226 q 554 1196 517 1196 m 194 1515 q 225 1519 208 1518 q 256 1519 242 1519 q 303 1515 282 1519 q 337 1497 324 1510 q 350 1463 350 1485 l 350 1364 q 319 1361 336 1363 q 288 1360 303 1360 q 242 1365 264 1360 q 208 1383 221 1371 q 194 1418 194 1396 l 194 1515 m 483 1515 q 514 1519 497 1518 q 544 1519 531 1519 q 592 1515 571 1519 q 626 1497 613 1510 q 639 1463 639 1485 l 639 1364 q 608 1361 625 1363 q 576 1360 592 1360 q 531 1365 553 1360 q 497 1383 510 1371 q 483 1418 483 1396 l 483 1515 z "},"Ṑ":{"ha":833,"x_min":82,"x_max":751,"o":"m 418 1000 q 604 942 531 1000 q 715 772 678 883 q 751 504 751 661 l 751 471 q 712 203 751 315 q 598 32 672 92 q 418 -28 524 -28 q 231 27 306 -26 q 119 185 156 81 q 82 436 82 289 l 82 469 q 122 753 82 635 q 237 936 161 872 q 418 1000 313 1000 m 208 426 q 231 241 208 315 q 283 128 253 167 q 342 106 314 113 q 404 99 371 99 q 528 145 479 99 q 601 279 576 192 q 625 488 625 367 l 625 514 q 615 660 625 597 q 585 768 604 722 q 543 847 567 814 q 489 867 515 861 q 429 874 463 874 q 306 823 354 874 q 233 678 257 772 q 208 451 208 583 l 208 426 m 143 1226 l 628 1226 q 676 1209 664 1226 q 689 1156 689 1192 q 688 1135 689 1146 q 685 1117 686 1125 l 246 1117 q 182 1126 204 1117 q 151 1156 160 1136 q 143 1207 143 1176 q 143 1217 143 1213 q 143 1226 143 1222 m 319 1508 q 355 1435 332 1469 q 412 1369 378 1400 q 489 1307 446 1339 q 464 1297 476 1301 q 440 1291 451 1293 q 414 1289 428 1289 q 376 1292 393 1289 q 340 1307 358 1296 q 296 1335 317 1319 q 258 1368 275 1350 q 227 1406 240 1386 q 206 1446 214 1426 q 201 1475 199 1463 q 219 1494 204 1488 q 249 1503 233 1500 q 281 1508 264 1507 q 319 1508 299 1510 z "},"Ṓ":{"ha":833,"x_min":82,"x_max":751,"o":"m 418 1000 q 604 942 531 1000 q 715 772 678 883 q 751 504 751 661 l 751 471 q 712 203 751 315 q 598 32 672 92 q 418 -28 524 -28 q 231 27 306 -26 q 119 185 156 81 q 82 436 82 289 l 82 469 q 122 753 82 635 q 237 936 161 872 q 418 1000 313 1000 m 208 426 q 231 241 208 315 q 283 128 253 167 q 342 106 314 113 q 404 99 371 99 q 528 145 479 99 q 601 279 576 192 q 625 488 625 367 l 625 514 q 615 660 625 597 q 585 768 604 722 q 543 847 567 814 q 489 867 515 861 q 429 874 463 874 q 306 823 354 874 q 233 678 257 772 q 208 451 208 583 l 208 426 m 143 1226 l 628 1226 q 676 1209 664 1226 q 689 1156 689 1192 q 688 1135 689 1146 q 685 1117 686 1125 l 246 1117 q 182 1126 204 1117 q 151 1156 160 1136 q 143 1207 143 1176 q 143 1217 143 1213 q 143 1226 143 1222 m 514 1500 q 552 1499 535 1500 q 583 1494 569 1497 q 611 1488 597 1492 q 631 1468 628 1481 q 629 1440 635 1456 q 608 1399 621 1418 q 578 1361 596 1379 q 541 1328 561 1343 q 497 1300 521 1313 q 460 1285 479 1289 q 419 1281 442 1281 q 394 1283 407 1281 q 369 1289 382 1285 q 344 1300 357 1293 q 422 1362 388 1331 q 479 1427 456 1393 q 514 1500 503 1461 z "},"Ọ":{"ha":833,"x_min":82,"x_max":751,"o":"m 418 1000 q 604 942 531 1000 q 715 772 678 883 q 751 504 751 661 l 751 471 q 712 203 751 315 q 598 32 672 92 q 418 -28 524 -28 q 231 27 306 -26 q 119 185 156 81 q 82 436 82 289 l 82 469 q 122 753 82 635 q 237 936 161 872 q 418 1000 313 1000 m 208 426 q 231 241 208 315 q 283 128 253 167 q 342 106 314 113 q 404 99 371 99 q 528 145 479 99 q 601 279 576 192 q 625 488 625 367 l 625 514 q 615 660 625 597 q 585 768 604 722 q 543 847 567 814 q 489 867 515 861 q 429 874 463 874 q 306 823 354 874 q 233 678 257 772 q 208 451 208 583 l 208 426 m 331 -125 q 347 -122 338 -124 q 364 -120 356 -121 q 381 -119 372 -119 q 400 -119 390 -119 q 474 -133 446 -119 q 503 -183 503 -146 l 503 -274 q 487 -276 496 -275 q 469 -278 478 -278 q 452 -279 461 -279 q 433 -279 443 -279 q 360 -265 389 -279 q 331 -215 331 -251 l 331 -125 z "},"Ỏ":{"ha":833,"x_min":82,"x_max":751,"o":"m 418 1000 q 604 942 531 1000 q 715 772 678 883 q 751 504 751 661 l 751 471 q 712 203 751 315 q 598 32 672 92 q 418 -28 524 -28 q 231 27 306 -26 q 119 185 156 81 q 82 436 82 289 l 82 469 q 122 753 82 635 q 237 936 161 872 q 418 1000 313 1000 m 208 426 q 231 241 208 315 q 283 128 253 167 q 342 106 314 113 q 404 99 371 99 q 528 145 479 99 q 601 279 576 192 q 625 488 625 367 l 625 514 q 615 660 625 597 q 585 768 604 722 q 543 847 567 814 q 489 867 515 861 q 429 874 463 874 q 306 823 354 874 q 233 678 257 772 q 208 451 208 583 l 208 426 m 349 1078 q 365 1114 349 1097 q 422 1146 381 1131 q 476 1169 461 1160 q 490 1193 490 1179 q 490 1201 490 1197 q 489 1208 490 1204 q 462 1215 476 1214 q 429 1217 447 1217 q 348 1205 382 1217 q 286 1167 314 1193 l 278 1167 q 269 1188 272 1178 q 267 1214 267 1199 q 273 1249 267 1233 q 293 1276 279 1264 q 314 1291 303 1285 q 340 1302 325 1297 q 375 1309 356 1307 q 418 1311 394 1311 q 507 1297 472 1311 q 559 1257 542 1282 q 576 1200 576 1232 l 576 1197 q 561 1150 576 1168 q 511 1113 546 1132 q 463 1079 474 1092 q 450 1049 453 1067 q 436 1045 444 1047 q 419 1042 428 1043 q 403 1042 411 1042 q 362 1052 375 1042 q 349 1078 349 1063 z "},"Ố":{"ha":833,"x_min":82,"x_max":824,"o":"m 418 1000 q 604 942 531 1000 q 715 772 678 883 q 751 504 751 661 l 751 471 q 712 203 751 315 q 598 32 672 92 q 418 -28 524 -28 q 231 27 306 -26 q 119 185 156 81 q 82 436 82 289 l 82 469 q 122 753 82 635 q 237 936 161 872 q 418 1000 313 1000 m 208 426 q 231 241 208 315 q 283 128 253 167 q 342 106 314 113 q 404 99 371 99 q 528 145 479 99 q 601 279 576 192 q 625 488 625 367 l 625 514 q 615 660 625 597 q 585 768 604 722 q 543 847 567 814 q 489 867 515 861 q 429 874 463 874 q 306 823 354 874 q 233 678 257 772 q 208 451 208 583 l 208 426 m 375 1303 q 390 1303 382 1303 q 405 1303 397 1303 q 419 1303 413 1303 q 467 1297 444 1303 q 529 1267 490 1292 q 576 1234 551 1253 q 625 1193 601 1215 q 670 1144 649 1171 q 711 1088 692 1118 q 676 1076 693 1081 q 636 1072 660 1072 q 599 1080 613 1072 q 569 1106 586 1088 q 496 1171 536 1142 q 383 1232 456 1200 l 463 1215 q 417 1215 440 1215 q 371 1215 394 1215 l 449 1233 q 317 1151 368 1193 q 238 1071 265 1110 l 229 1071 q 178 1074 197 1071 q 150 1085 158 1078 q 142 1101 142 1093 q 150 1126 142 1110 q 179 1167 158 1143 q 220 1207 199 1188 q 267 1244 242 1226 q 319 1277 292 1263 q 375 1303 346 1292 m 721 1493 q 749 1492 736 1493 q 775 1488 763 1490 q 799 1483 788 1486 q 820 1463 817 1478 q 815 1424 824 1447 q 792 1378 806 1400 q 762 1337 779 1356 q 724 1300 744 1318 q 690 1281 706 1288 q 654 1274 674 1274 q 631 1276 642 1274 q 608 1282 619 1278 q 585 1292 597 1286 q 644 1349 618 1318 q 690 1417 671 1381 q 721 1493 710 1453 z "},"Ồ":{"ha":833,"x_min":82,"x_max":751,"o":"m 418 1000 q 604 942 531 1000 q 715 772 678 883 q 751 504 751 661 l 751 471 q 712 203 751 315 q 598 32 672 92 q 418 -28 524 -28 q 231 27 306 -26 q 119 185 156 81 q 82 436 82 289 l 82 469 q 122 753 82 635 q 237 936 161 872 q 418 1000 313 1000 m 208 426 q 231 241 208 315 q 283 128 253 167 q 342 106 314 113 q 404 99 371 99 q 528 145 479 99 q 601 279 576 192 q 625 488 625 367 l 625 514 q 615 660 625 597 q 585 768 604 722 q 543 847 567 814 q 489 867 515 861 q 429 874 463 874 q 306 823 354 874 q 233 678 257 772 q 208 451 208 583 l 208 426 m 375 1303 q 390 1303 382 1303 q 405 1303 397 1303 q 419 1303 413 1303 q 467 1297 444 1303 q 529 1267 490 1292 q 576 1234 551 1253 q 625 1193 601 1215 q 670 1144 649 1171 q 711 1088 692 1118 q 676 1076 693 1081 q 636 1072 660 1072 q 599 1080 613 1072 q 569 1106 586 1088 q 496 1171 536 1142 q 383 1232 456 1200 l 463 1215 q 417 1215 440 1215 q 371 1215 394 1215 l 449 1233 q 317 1151 368 1193 q 238 1071 265 1110 l 229 1071 q 178 1074 197 1071 q 150 1085 158 1078 q 142 1101 142 1093 q 150 1126 142 1110 q 179 1167 158 1143 q 220 1207 199 1188 q 267 1244 242 1226 q 319 1277 292 1263 q 375 1303 346 1292 m 579 1492 q 610 1417 590 1453 q 656 1349 629 1381 q 715 1292 682 1318 q 692 1282 703 1286 q 670 1276 681 1278 q 647 1274 660 1274 q 610 1281 628 1274 q 575 1300 593 1288 q 538 1337 556 1318 q 506 1378 519 1356 q 485 1424 493 1400 q 481 1463 475 1447 q 506 1483 486 1478 q 526 1488 515 1486 q 551 1491 538 1490 q 579 1492 564 1492 z "},"Ổ":{"ha":833,"x_min":82,"x_max":808,"o":"m 418 1000 q 604 942 531 1000 q 715 772 678 883 q 751 504 751 661 l 751 471 q 712 203 751 315 q 598 32 672 92 q 418 -28 524 -28 q 231 27 306 -26 q 119 185 156 81 q 82 436 82 289 l 82 469 q 122 753 82 635 q 237 936 161 872 q 418 1000 313 1000 m 208 426 q 231 241 208 315 q 283 128 253 167 q 342 106 314 113 q 404 99 371 99 q 528 145 479 99 q 601 279 576 192 q 625 488 625 367 l 625 514 q 615 660 625 597 q 585 768 604 722 q 543 847 567 814 q 489 867 515 861 q 429 874 463 874 q 306 823 354 874 q 233 678 257 772 q 208 451 208 583 l 208 426 m 375 1303 q 390 1303 382 1303 q 405 1303 397 1303 q 419 1303 413 1303 q 467 1297 444 1303 q 529 1267 490 1292 q 576 1234 551 1253 q 625 1193 601 1215 q 670 1144 649 1171 q 711 1088 692 1118 q 676 1076 693 1081 q 636 1072 660 1072 q 599 1080 613 1072 q 569 1106 586 1088 q 496 1171 536 1142 q 383 1232 456 1200 l 463 1215 q 417 1215 440 1215 q 371 1215 394 1215 l 449 1233 q 317 1151 368 1193 q 238 1071 265 1110 l 229 1071 q 178 1074 197 1071 q 150 1085 158 1078 q 142 1101 142 1093 q 150 1126 142 1110 q 179 1167 158 1143 q 220 1207 199 1188 q 267 1244 242 1226 q 319 1277 292 1263 q 375 1303 346 1292 m 581 1299 q 597 1335 581 1318 q 654 1367 613 1351 q 708 1390 693 1381 q 722 1414 722 1400 q 722 1422 722 1418 q 721 1429 722 1425 q 694 1436 708 1435 q 661 1438 679 1438 q 580 1426 614 1438 q 518 1388 546 1414 l 510 1388 q 501 1409 504 1399 q 499 1435 499 1419 q 505 1469 499 1454 q 525 1497 511 1485 q 546 1512 535 1506 q 572 1523 557 1518 q 607 1530 588 1528 q 650 1532 626 1532 q 739 1517 704 1532 q 791 1478 774 1503 q 808 1421 808 1453 l 808 1418 q 793 1371 808 1389 q 743 1333 778 1353 q 695 1300 706 1313 q 682 1269 685 1288 q 668 1266 676 1268 q 651 1263 660 1264 q 635 1263 643 1263 q 594 1273 607 1263 q 581 1299 581 1283 z "},"Ỗ":{"ha":833,"x_min":82,"x_max":751,"o":"m 418 1000 q 604 942 531 1000 q 715 772 678 883 q 751 504 751 661 l 751 471 q 712 203 751 315 q 598 32 672 92 q 418 -28 524 -28 q 231 27 306 -26 q 119 185 156 81 q 82 436 82 289 l 82 469 q 122 753 82 635 q 237 936 161 872 q 418 1000 313 1000 m 208 426 q 231 241 208 315 q 283 128 253 167 q 342 106 314 113 q 404 99 371 99 q 528 145 479 99 q 601 279 576 192 q 625 488 625 367 l 625 514 q 615 660 625 597 q 585 768 604 722 q 543 847 567 814 q 489 867 515 861 q 429 874 463 874 q 306 823 354 874 q 233 678 257 772 q 208 451 208 583 l 208 426 m 375 1303 q 390 1303 382 1303 q 405 1303 397 1303 q 419 1303 413 1303 q 467 1297 444 1303 q 529 1267 490 1292 q 576 1234 551 1253 q 625 1193 601 1215 q 670 1144 649 1171 q 711 1088 692 1118 q 676 1076 693 1081 q 636 1072 660 1072 q 599 1080 613 1072 q 569 1106 586 1088 q 496 1171 536 1142 q 383 1232 456 1200 l 463 1215 q 417 1215 440 1215 q 371 1215 394 1215 l 449 1233 q 317 1151 368 1193 q 238 1071 265 1110 l 229 1071 q 178 1074 197 1071 q 150 1085 158 1078 q 142 1101 142 1093 q 150 1126 142 1110 q 179 1167 158 1143 q 220 1207 199 1188 q 267 1244 242 1226 q 319 1277 292 1263 q 375 1303 346 1292 m 528 1439 q 573 1452 556 1439 q 606 1504 590 1465 l 614 1504 q 624 1478 621 1493 q 628 1447 628 1464 q 624 1411 628 1428 q 615 1382 621 1394 q 585 1347 606 1360 q 536 1333 565 1333 q 467 1348 497 1333 q 410 1381 436 1363 q 358 1415 385 1400 q 301 1429 332 1429 q 255 1413 271 1429 q 221 1365 239 1397 l 213 1365 q 203 1388 207 1375 q 200 1418 200 1401 q 203 1455 200 1439 q 214 1486 207 1471 q 246 1523 224 1510 q 301 1536 268 1536 q 363 1521 335 1536 q 416 1487 390 1506 q 469 1453 442 1468 q 528 1439 496 1439 z "},"Ộ":{"ha":833,"x_min":82,"x_max":751,"o":"m 331 -125 q 347 -122 338 -124 q 364 -120 356 -121 q 381 -119 372 -119 q 400 -119 390 -119 q 474 -133 446 -119 q 503 -183 503 -146 l 503 -274 q 487 -276 496 -275 q 469 -278 478 -278 q 452 -279 461 -279 q 433 -279 443 -279 q 360 -265 389 -279 q 331 -215 331 -251 l 331 -125 m 418 1000 q 604 942 531 1000 q 715 772 678 883 q 751 504 751 661 l 751 471 q 712 203 751 315 q 598 32 672 92 q 418 -28 524 -28 q 231 27 306 -26 q 119 185 156 81 q 82 436 82 289 l 82 469 q 122 753 82 635 q 237 936 161 872 q 418 1000 313 1000 m 208 426 q 231 241 208 315 q 283 128 253 167 q 342 106 314 113 q 404 99 371 99 q 528 145 479 99 q 601 279 576 192 q 625 488 625 367 l 625 514 q 615 660 625 597 q 585 768 604 722 q 543 847 567 814 q 489 867 515 861 q 429 874 463 874 q 306 823 354 874 q 233 678 257 772 q 208 451 208 583 l 208 426 m 375 1303 q 390 1303 382 1303 q 405 1303 397 1303 q 419 1303 413 1303 q 467 1297 444 1303 q 529 1267 490 1292 q 576 1234 551 1253 q 625 1193 601 1215 q 670 1144 649 1171 q 711 1088 692 1118 q 676 1076 693 1081 q 636 1072 660 1072 q 599 1080 613 1072 q 569 1106 586 1088 q 496 1171 536 1142 q 383 1232 456 1200 l 463 1215 q 417 1215 440 1215 q 371 1215 394 1215 l 449 1233 q 317 1151 368 1193 q 238 1071 265 1110 l 229 1071 q 178 1074 197 1071 q 150 1085 158 1078 q 142 1101 142 1093 q 150 1126 142 1110 q 179 1167 158 1143 q 220 1207 199 1188 q 267 1244 242 1226 q 319 1277 292 1263 q 375 1303 346 1292 z "},"Ớ":{"ha":833,"x_min":82,"x_max":792,"o":"m 418 1000 q 604 942 531 1000 q 715 772 678 883 q 751 504 751 661 l 751 471 q 712 203 751 315 q 598 32 672 92 q 418 -28 524 -28 q 231 27 306 -26 q 119 185 156 81 q 82 436 82 289 l 82 469 q 122 753 82 635 q 237 936 161 872 q 418 1000 313 1000 m 208 426 q 231 241 208 315 q 283 128 253 167 q 342 106 314 113 q 404 99 371 99 q 528 145 479 99 q 601 279 576 192 q 625 488 625 367 l 625 514 q 615 660 625 597 q 585 768 604 722 q 543 847 567 814 q 489 867 515 861 q 429 874 463 874 q 306 823 354 874 q 233 678 257 772 q 208 451 208 583 l 208 426 m 658 1133 q 684 1144 669 1140 q 718 1147 699 1147 q 773 1128 754 1147 q 792 1067 792 1108 q 774 978 792 1014 q 726 921 756 943 q 689 900 707 908 q 653 888 671 892 q 618 885 636 885 q 606 885 613 885 q 593 885 600 885 q 593 898 593 892 q 593 910 593 904 q 593 923 593 915 q 593 940 593 931 q 619 943 606 940 q 646 956 633 946 q 669 985 661 965 q 678 1039 678 1006 q 673 1087 678 1064 q 658 1133 668 1110 m 488 1297 q 516 1296 503 1297 q 542 1292 529 1294 q 565 1288 554 1290 q 587 1267 583 1282 q 582 1228 590 1251 q 559 1182 572 1204 q 528 1141 546 1160 q 490 1104 511 1122 q 456 1085 472 1092 q 421 1078 440 1078 q 397 1080 408 1078 q 375 1086 386 1082 q 351 1096 364 1090 q 411 1153 385 1122 q 457 1221 438 1185 q 488 1297 476 1257 z "},"Ờ":{"ha":833,"x_min":82,"x_max":792,"o":"m 418 1000 q 604 942 531 1000 q 715 772 678 883 q 751 504 751 661 l 751 471 q 712 203 751 315 q 598 32 672 92 q 418 -28 524 -28 q 231 27 306 -26 q 119 185 156 81 q 82 436 82 289 l 82 469 q 122 753 82 635 q 237 936 161 872 q 418 1000 313 1000 m 208 426 q 231 241 208 315 q 283 128 253 167 q 342 106 314 113 q 404 99 371 99 q 528 145 479 99 q 601 279 576 192 q 625 488 625 367 l 625 514 q 615 660 625 597 q 585 768 604 722 q 543 847 567 814 q 489 867 515 861 q 429 874 463 874 q 306 823 354 874 q 233 678 257 772 q 208 451 208 583 l 208 426 m 658 1133 q 684 1144 669 1140 q 718 1147 699 1147 q 773 1128 754 1147 q 792 1067 792 1108 q 774 978 792 1014 q 726 921 756 943 q 689 900 707 908 q 653 888 671 892 q 618 885 636 885 q 606 885 613 885 q 593 885 600 885 q 593 898 593 892 q 593 910 593 904 q 593 923 593 915 q 593 940 593 931 q 619 943 606 940 q 646 956 633 946 q 669 985 661 965 q 678 1039 678 1006 q 673 1087 678 1064 q 658 1133 668 1110 m 346 1296 q 376 1221 357 1257 q 422 1153 396 1185 q 482 1096 449 1122 q 458 1086 469 1090 q 437 1080 447 1082 q 414 1078 426 1078 q 377 1085 394 1078 q 342 1104 360 1092 q 304 1141 322 1122 q 273 1182 286 1160 q 251 1228 260 1204 q 247 1267 242 1251 q 272 1288 253 1282 q 293 1292 282 1290 q 317 1295 304 1294 q 346 1296 331 1296 z "},"Ở":{"ha":833,"x_min":82,"x_max":792,"o":"m 418 1000 q 604 942 531 1000 q 715 772 678 883 q 751 504 751 661 l 751 471 q 712 203 751 315 q 598 32 672 92 q 418 -28 524 -28 q 231 27 306 -26 q 119 185 156 81 q 82 436 82 289 l 82 469 q 122 753 82 635 q 237 936 161 872 q 418 1000 313 1000 m 208 426 q 231 241 208 315 q 283 128 253 167 q 342 106 314 113 q 404 99 371 99 q 528 145 479 99 q 601 279 576 192 q 625 488 625 367 l 625 514 q 615 660 625 597 q 585 768 604 722 q 543 847 567 814 q 489 867 515 861 q 429 874 463 874 q 306 823 354 874 q 233 678 257 772 q 208 451 208 583 l 208 426 m 658 1133 q 684 1144 669 1140 q 718 1147 699 1147 q 773 1128 754 1147 q 792 1067 792 1108 q 774 978 792 1014 q 726 921 756 943 q 689 900 707 908 q 653 888 671 892 q 618 885 636 885 q 606 885 613 885 q 593 885 600 885 q 593 898 593 892 q 593 910 593 904 q 593 923 593 915 q 593 940 593 931 q 619 943 606 940 q 646 956 633 946 q 669 985 661 965 q 678 1039 678 1006 q 673 1087 678 1064 q 658 1133 668 1110 m 349 1078 q 365 1114 349 1097 q 422 1146 381 1131 q 476 1169 461 1160 q 490 1193 490 1179 q 490 1201 490 1197 q 489 1208 490 1204 q 462 1215 476 1214 q 429 1217 447 1217 q 348 1205 382 1217 q 286 1167 314 1193 l 278 1167 q 269 1188 272 1178 q 267 1214 267 1199 q 273 1249 267 1233 q 293 1276 279 1264 q 314 1291 303 1285 q 340 1302 325 1297 q 375 1309 356 1307 q 418 1311 394 1311 q 507 1297 472 1311 q 559 1257 542 1282 q 576 1200 576 1232 l 576 1197 q 561 1150 576 1168 q 511 1113 546 1132 q 463 1079 474 1092 q 450 1049 453 1067 q 436 1045 444 1047 q 419 1042 428 1043 q 403 1042 411 1042 q 362 1052 375 1042 q 349 1078 349 1063 z "},"Ỡ":{"ha":833,"x_min":82,"x_max":792,"o":"m 418 1000 q 604 942 531 1000 q 715 772 678 883 q 751 504 751 661 l 751 471 q 712 203 751 315 q 598 32 672 92 q 418 -28 524 -28 q 231 27 306 -26 q 119 185 156 81 q 82 436 82 289 l 82 469 q 122 753 82 635 q 237 936 161 872 q 418 1000 313 1000 m 208 426 q 231 241 208 315 q 283 128 253 167 q 342 106 314 113 q 404 99 371 99 q 528 145 479 99 q 601 279 576 192 q 625 488 625 367 l 625 514 q 615 660 625 597 q 585 768 604 722 q 543 847 567 814 q 489 867 515 861 q 429 874 463 874 q 306 823 354 874 q 233 678 257 772 q 208 451 208 583 l 208 426 m 658 1133 q 684 1144 669 1140 q 718 1147 699 1147 q 773 1128 754 1147 q 792 1067 792 1108 q 774 978 792 1014 q 726 921 756 943 q 689 900 707 908 q 653 888 671 892 q 618 885 636 885 q 606 885 613 885 q 593 885 600 885 q 593 898 593 892 q 593 910 593 904 q 593 923 593 915 q 593 940 593 931 q 619 943 606 940 q 646 956 633 946 q 669 985 661 965 q 678 1039 678 1006 q 673 1087 678 1064 q 658 1133 668 1110 m 496 1210 q 541 1223 524 1210 q 574 1275 558 1236 l 582 1275 q 592 1249 589 1264 q 596 1218 596 1235 q 592 1182 596 1199 q 583 1153 589 1165 q 553 1117 574 1131 q 504 1104 533 1104 q 435 1119 465 1104 q 378 1152 404 1133 q 326 1185 353 1171 q 269 1200 300 1200 q 223 1184 239 1200 q 189 1136 207 1168 l 181 1136 q 172 1159 175 1146 q 168 1189 168 1172 q 172 1226 168 1210 q 182 1257 175 1242 q 214 1294 192 1281 q 269 1307 236 1307 q 331 1292 303 1307 q 384 1258 358 1276 q 437 1224 410 1239 q 496 1210 464 1210 z "},"Ợ":{"ha":833,"x_min":82,"x_max":792,"o":"m 331 -125 q 347 -122 338 -124 q 364 -120 356 -121 q 381 -119 372 -119 q 400 -119 390 -119 q 474 -133 446 -119 q 503 -183 503 -146 l 503 -274 q 487 -276 496 -275 q 469 -278 478 -278 q 452 -279 461 -279 q 433 -279 443 -279 q 360 -265 389 -279 q 331 -215 331 -251 l 331 -125 m 418 1000 q 604 942 531 1000 q 715 773 678 883 q 751 504 751 663 l 751 471 q 712 203 751 315 q 598 32 672 92 q 418 -28 524 -28 q 231 27 306 -26 q 119 185 156 81 q 82 436 82 289 l 82 469 q 122 753 82 635 q 237 936 161 872 q 418 1000 313 1000 m 208 426 q 231 241 208 315 q 283 128 253 167 q 342 106 314 113 q 404 99 371 99 q 528 145 479 99 q 601 279 576 192 q 625 488 625 367 l 625 514 q 615 660 625 597 q 585 768 604 722 q 543 847 567 814 q 489 867 515 861 q 429 874 463 874 q 306 823 354 874 q 233 678 257 772 q 208 451 208 583 l 208 426 m 658 1135 q 685 1145 671 1142 q 719 1149 700 1149 q 774 1128 756 1149 q 792 1067 792 1108 q 774 978 792 1014 q 726 921 756 943 q 690 900 708 908 q 653 889 671 892 q 618 886 636 886 q 606 886 613 886 q 593 886 600 886 q 593 898 593 892 q 593 910 593 904 q 593 924 593 917 q 593 940 593 932 q 621 944 607 940 q 646 956 635 947 q 669 986 661 965 q 678 1039 678 1007 q 673 1087 678 1064 q 658 1135 668 1110 z "},"P":{"ha":833,"x_min":49,"x_max":743,"o":"m 269 -1 q 249 -6 258 -4 q 225 -7 239 -7 q 149 19 172 -7 q 125 104 125 46 q 125 302 125 203 q 125 500 125 401 q 125 698 125 599 q 125 896 125 797 l 242 896 l 224 854 q 250 815 243 839 q 257 757 257 790 q 257 556 257 657 q 257 350 257 454 q 257 140 257 246 q 260 69 257 104 q 269 -1 263 33 m 53 972 q 234 994 149 989 q 393 1000 319 1000 q 520 985 464 1000 q 618 945 576 971 q 688 883 660 919 q 729 799 715 846 q 743 700 743 753 l 743 676 q 711 496 743 576 q 624 358 679 415 q 500 272 569 301 q 357 242 431 242 q 304 254 326 242 q 265 288 282 267 l 233 282 l 233 378 q 277 367 256 371 q 328 364 299 364 q 436 385 385 364 q 527 447 488 407 q 590 546 567 488 q 613 676 613 604 l 613 697 q 606 765 613 733 q 588 822 600 797 q 503 862 549 850 q 389 874 458 874 q 257 867 318 874 q 153 853 196 860 q 97 846 111 846 q 60 867 71 846 q 49 931 49 888 q 50 953 49 943 q 53 972 51 963 z "},"Q":{"ha":833,"x_min":82,"x_max":807,"o":"m 569 104 q 603 42 586 72 q 640 -18 621 13 q 688 -68 664 -54 q 739 -82 713 -82 q 770 -77 757 -82 q 793 -62 783 -72 l 800 -62 q 806 -92 804 -78 q 807 -122 807 -106 q 799 -173 807 -153 q 779 -206 792 -193 q 751 -222 767 -217 q 714 -228 735 -228 q 657 -217 683 -228 q 606 -182 631 -206 q 556 -119 581 -158 q 513 -40 532 -79 q 479 40 493 0 l 569 104 m 418 1000 q 604 942 531 1000 q 715 772 678 883 q 751 504 751 661 l 751 471 q 712 203 751 315 q 598 32 672 92 q 418 -28 524 -28 q 231 27 306 -26 q 119 185 156 81 q 82 436 82 289 l 82 469 q 122 753 82 635 q 237 936 161 872 q 418 1000 313 1000 m 208 426 q 231 241 208 315 q 283 128 253 167 q 342 106 314 113 q 404 99 371 99 q 528 145 479 99 q 601 279 576 192 q 625 488 625 367 l 625 514 q 615 660 625 597 q 585 768 604 722 q 543 847 567 814 q 489 867 515 861 q 429 874 463 874 q 306 823 354 874 q 233 678 257 772 q 208 451 208 583 l 208 426 z "},"R":{"ha":833,"x_min":49,"x_max":781,"o":"m 486 368 q 547 272 517 318 q 614 176 578 225 q 661 126 638 142 q 713 111 685 111 q 742 117 729 111 q 764 133 754 122 l 772 133 q 778 104 776 118 q 781 74 781 90 q 774 26 781 46 q 757 -6 768 6 q 731 -22 746 -17 q 692 -28 715 -28 q 634 -17 661 -28 q 581 16 607 -7 q 531 76 556 39 q 456 194 490 136 q 389 311 421 251 l 486 368 m 53 972 q 230 994 147 988 q 388 1000 313 1000 q 542 978 476 1000 q 651 916 608 956 q 716 824 694 876 q 738 710 738 772 l 738 685 q 705 516 738 592 q 617 385 672 440 q 492 301 561 331 q 349 272 422 272 q 299 278 318 272 q 265 299 281 285 l 229 292 l 229 396 q 264 387 246 389 q 315 385 282 385 q 465 420 400 385 q 568 523 531 456 q 606 683 606 590 l 606 703 q 599 775 606 744 q 576 829 592 806 q 494 864 538 854 q 389 874 451 874 q 256 867 315 874 q 155 853 196 860 q 94 846 114 846 q 60 867 72 846 q 49 931 49 889 q 50 953 49 943 q 53 972 51 963 m 272 -3 q 249 -8 260 -6 q 224 -10 239 -10 q 150 15 175 -10 q 125 92 125 40 q 125 292 125 192 q 125 494 125 393 q 125 695 125 594 q 125 896 125 796 l 242 896 l 224 854 q 249 817 242 840 q 257 757 257 793 q 257 549 257 656 q 257 335 257 443 q 257 121 257 228 q 260 52 257 78 q 272 -3 263 26 z "},"Ŕ":{"ha":833,"x_min":49,"x_max":781,"o":"m 486 368 q 547 272 517 318 q 614 176 578 225 q 661 126 638 142 q 713 111 685 111 q 742 117 729 111 q 764 133 754 122 l 772 133 q 778 104 776 118 q 781 74 781 90 q 774 26 781 46 q 757 -6 768 6 q 731 -22 746 -17 q 692 -28 715 -28 q 634 -17 661 -28 q 581 16 607 -7 q 531 76 556 39 q 456 194 490 136 q 389 311 421 251 l 486 368 m 53 972 q 230 994 147 988 q 388 1000 313 1000 q 542 978 476 1000 q 651 916 608 956 q 716 824 694 876 q 738 710 738 772 l 738 685 q 705 516 738 592 q 617 385 672 440 q 492 301 561 331 q 349 272 422 272 q 299 278 318 272 q 265 299 281 285 l 229 292 l 229 396 q 264 387 246 389 q 315 385 282 385 q 465 420 400 385 q 568 523 531 456 q 606 683 606 590 l 606 703 q 599 775 606 744 q 576 829 592 806 q 494 864 538 854 q 389 874 451 874 q 256 867 315 874 q 155 853 196 860 q 94 846 114 846 q 60 867 72 846 q 49 931 49 889 q 50 953 49 943 q 53 972 51 963 m 272 -3 q 249 -8 260 -6 q 224 -10 239 -10 q 150 15 175 -10 q 125 92 125 40 q 125 292 125 192 q 125 494 125 393 q 125 695 125 594 q 125 896 125 796 l 242 896 l 224 854 q 249 817 242 840 q 257 757 257 793 q 257 549 257 656 q 257 335 257 443 q 257 121 257 228 q 260 52 257 78 q 272 -3 263 26 m 513 1290 q 551 1289 533 1290 q 582 1285 568 1288 q 610 1278 596 1282 q 630 1258 626 1271 q 628 1231 633 1246 q 607 1189 619 1208 q 577 1151 594 1169 q 540 1118 560 1133 q 496 1090 519 1103 q 459 1075 478 1079 q 418 1071 440 1071 q 393 1073 406 1071 q 368 1079 381 1075 q 343 1090 356 1083 q 420 1152 386 1121 q 478 1217 454 1183 q 513 1290 501 1251 z "}}}
